{"glyphs":{"0":{"ha":617,"x_min":40,"x_max":582,"o":"m 43 501 q 61 601 50 550 q 91 702 72 653 q 137 797 110 751 q 203 879 164 842 q 261 921 228 904 q 333 940 294 938 q 428 915 383 943 q 506 826 474 888 q 566 642 550 739 q 568 444 582 544 q 549 336 565 392 q 518 238 533 281 q 482 160 503 194 q 429 90 461 125 q 329 19 383 36 q 222 19 275 1 q 160 57 189 33 q 108 117 131 81 q 69 208 83 160 q 49 304 56 256 q 41 403 42 353 q 43 501 40 453 m 85 501 q 82 398 82 449 q 92 294 82 347 q 97 269 93 283 q 104 240 100 256 q 113 210 108 225 q 122 186 118 196 q 174 102 143 136 q 243 57 206 68 q 397 115 315 36 q 442 176 421 139 q 480 258 463 213 q 509 353 497 303 q 528 454 521 404 q 527 635 539 540 q 468 808 515 731 q 406 878 440 857 q 335 900 371 900 q 255 871 294 897 q 183 796 215 844 q 171 774 178 788 q 156 747 164 761 q 142 718 149 732 q 132 693 136 704 q 102 597 113 644 q 85 501 92 549 z "},"1":{"ha":433,"x_min":0,"x_max":376,"o":"m 33 758 q 8 767 15 753 q 13 794 0 782 q 158 875 86 835 q 301 956 229 915 q 325 957 315 963 q 335 936 335 951 q 308 710 319 817 q 284 501 296 604 q 260 292 272 397 q 235 68 249 186 q 295 72 265 71 q 357 76 325 74 q 376 56 376 72 q 358 35 376 40 q 235 26 296 31 q 114 18 175 22 q 97 24 103 18 q 92 38 92 31 q 97 52 92 46 q 113 60 101 58 q 152 62 132 61 q 192 65 172 63 q 217 282 206 181 q 240 482 229 383 q 263 683 251 581 q 289 901 275 785 q 162 830 225 865 q 33 758 99 794 z "},"2":{"ha":606,"x_min":40,"x_max":557,"o":"m 115 719 q 92 702 108 701 q 74 722 76 703 q 105 828 71 779 q 190 906 139 876 q 259 929 222 924 q 332 931 296 935 q 426 903 381 925 q 508 826 481 876 q 541 718 535 776 q 535 600 547 660 q 503 494 524 540 q 442 392 478 440 q 363 301 406 343 q 243 185 304 243 q 118 74 182 126 q 227 69 178 71 q 324 67 276 68 q 422 63 371 65 q 538 60 474 61 q 557 40 557 56 q 539 18 557 24 q 302 26 419 22 q 67 35 185 31 q 45 49 50 36 q 51 72 40 61 q 114 126 83 99 q 175 181 144 153 q 283 284 225 231 q 391 398 342 338 q 472 528 440 458 q 501 683 504 599 q 491 756 500 718 q 460 821 482 793 q 404 868 438 850 q 333 892 371 886 q 271 890 301 896 q 213 871 240 885 q 144 812 171 851 q 115 719 118 772 z "},"3":{"ha":631,"x_min":0,"x_max":585,"o":"m 160 875 q 143 881 149 875 q 138 895 138 888 q 142 909 138 903 q 158 917 147 915 q 356 908 258 913 q 554 899 454 903 q 572 885 568 896 q 567 863 576 874 q 500 813 529 835 q 444 772 471 792 q 389 733 417 753 q 326 688 361 713 q 338 685 333 686 q 349 682 343 683 q 438 644 393 669 q 511 579 483 619 q 561 476 543 532 q 582 361 579 419 q 572 247 585 303 q 531 144 560 190 q 456 63 501 97 q 346 17 410 29 q 289 9 319 11 q 232 10 258 7 q 119 38 168 19 q 17 90 69 56 q 11 120 0 106 q 42 124 22 135 q 135 75 88 94 q 238 51 182 56 q 355 61 294 47 q 457 117 415 75 q 518 214 497 157 q 542 333 539 271 q 528 453 544 394 q 476 556 511 511 q 413 610 450 590 q 336 642 376 631 q 310 649 321 646 q 278 654 299 651 q 256 669 261 657 q 263 692 251 681 q 378 776 321 735 q 493 860 435 818 q 326 867 410 864 q 160 875 243 871 z "},"4":{"ha":661,"x_min":29,"x_max":643,"o":"m 510 264 q 517 279 511 274 q 531 284 524 285 q 545 278 539 283 q 551 261 551 272 q 550 240 550 250 q 549 221 550 231 l 624 221 q 643 201 643 217 q 625 179 643 185 l 547 179 q 542 85 544 132 q 538 -8 540 39 q 515 -26 531 -26 q 496 -6 499 -25 q 501 86 499 40 q 506 178 503 132 q 281 176 393 176 q 56 174 168 175 q 33 200 29 176 q 217 563 125 382 q 403 925 310 743 q 415 938 407 935 q 430 938 424 940 q 440 927 436 935 q 440 910 444 919 q 264 563 351 736 q 88 215 176 390 q 297 217 192 217 q 507 219 401 218 q 508 242 508 231 q 510 264 508 253 z "},"5":{"ha":631,"x_min":64,"x_max":603,"o":"m 476 901 q 496 881 496 897 q 478 860 496 865 q 301 864 389 863 q 125 868 213 865 l 113 739 q 200 751 154 746 q 292 753 246 756 q 380 738 338 750 q 458 696 422 725 q 558 569 522 644 q 599 412 594 493 q 576 251 603 331 q 489 114 549 172 q 401 51 449 74 q 301 15 353 28 q 194 -1 249 3 q 86 -7 139 -6 q 69 -1 75 -7 q 64 13 64 6 q 69 27 64 21 q 85 35 74 33 q 184 40 133 36 q 284 54 235 43 q 378 86 333 65 q 461 144 424 107 q 535 265 511 193 q 557 411 560 336 q 524 553 554 486 q 433 663 493 621 q 354 699 397 688 q 267 713 311 711 q 177 708 222 715 q 92 690 132 701 q 68 711 72 692 q 76 800 72 756 q 85 889 81 844 q 107 910 88 908 q 291 906 199 907 q 476 901 383 904 z "},"6":{"ha":656,"x_min":25,"x_max":614,"o":"m 610 793 q 610 776 614 783 q 600 765 607 768 q 585 765 593 763 q 572 776 578 767 q 500 851 544 825 q 406 881 456 876 q 314 868 360 883 q 231 819 268 853 q 178 760 201 793 q 136 689 156 726 q 98 590 113 642 q 76 484 83 538 q 68 379 68 431 q 75 282 68 328 q 90 213 81 247 q 115 147 100 179 q 162 83 135 111 q 229 40 189 56 q 288 26 257 29 q 349 22 318 22 q 401 33 374 22 q 453 63 428 43 q 498 111 478 83 q 529 172 518 139 q 547 285 546 226 q 528 396 547 344 q 456 501 506 458 q 324 542 406 543 q 275 538 300 542 q 226 526 250 535 q 169 495 194 515 q 119 449 143 475 q 92 449 104 438 q 89 476 81 460 q 156 536 119 511 q 238 572 193 561 q 308 583 274 582 q 379 578 343 583 q 497 522 451 567 q 565 415 542 478 q 588 284 588 353 q 567 157 588 215 q 470 22 533 63 q 326 -19 407 -19 q 299 -18 315 -19 q 267 -13 283 -17 q 235 -6 250 -10 q 210 3 219 -1 q 133 56 165 25 q 81 122 101 86 q 42 223 53 168 q 28 339 31 278 q 38 504 25 422 q 81 661 50 586 q 131 760 101 713 q 200 847 160 807 q 297 910 243 892 q 406 922 350 928 q 523 884 468 917 q 610 793 578 851 z "},"7":{"ha":650,"x_min":47,"x_max":668,"o":"m 69 838 q 53 844 58 838 q 47 858 47 850 q 52 872 47 865 q 68 879 57 878 q 356 883 213 882 q 646 888 500 885 q 664 874 660 885 q 658 851 668 863 q 611 804 633 829 q 565 753 589 779 q 349 474 449 622 q 190 157 249 325 q 172 97 179 128 q 157 36 165 67 q 147 22 154 25 q 132 19 139 18 q 120 27 125 21 q 117 44 115 33 q 133 108 125 76 q 151 171 140 140 q 288 454 203 321 q 474 710 374 588 q 551 801 511 756 q 635 886 590 846 q 644 876 649 881 q 630 865 639 871 q 616 855 621 860 q 625 846 611 850 q 474 844 540 844 q 347 842 408 843 q 219 840 285 840 q 69 838 153 839 z "},"8":{"ha":669,"x_min":49,"x_max":631,"o":"m 208 764 q 236 870 203 822 q 321 940 269 918 q 433 947 375 964 q 519 888 486 932 q 558 790 551 843 q 531 665 568 717 q 433 578 493 614 q 419 569 426 574 q 404 560 411 564 q 415 551 410 556 q 428 542 421 546 q 529 447 481 500 q 606 332 578 394 q 628 239 624 290 q 619 158 631 194 q 584 94 607 122 q 529 44 561 65 q 461 11 497 24 q 330 -8 399 -11 q 203 22 261 -6 q 128 81 161 43 q 76 164 94 119 q 67 299 49 233 q 129 418 85 364 q 172 465 149 443 q 221 504 196 486 q 275 538 247 524 q 331 567 303 551 q 251 653 286 607 q 208 764 217 699 m 403 508 q 383 523 393 515 q 364 539 374 531 q 254 474 310 508 q 158 392 199 439 q 119 332 135 364 q 101 260 104 300 q 109 196 99 226 q 138 138 119 165 q 174 93 153 114 q 222 60 196 72 q 315 35 263 40 q 418 40 367 29 q 526 90 479 54 q 583 189 572 126 q 578 285 593 239 q 536 372 564 332 q 473 447 508 413 q 403 508 438 481 m 250 768 q 291 665 257 707 q 369 588 325 624 q 412 611 389 597 q 456 641 435 625 q 492 676 476 657 q 514 718 508 696 q 518 772 521 746 q 507 825 515 797 q 449 897 489 878 q 364 908 408 915 q 318 892 340 904 q 280 863 296 881 q 256 821 264 844 q 250 768 247 797 z "},"9":{"ha":656,"x_min":28,"x_max":617,"o":"m 32 115 q 31 133 28 125 q 42 143 35 140 q 56 144 49 146 q 69 132 64 142 q 142 58 97 83 q 236 28 186 32 q 328 40 282 25 q 411 89 374 56 q 463 149 440 115 q 506 219 486 182 q 543 319 528 267 q 566 424 558 371 q 574 528 574 476 q 567 626 574 581 q 551 695 561 661 q 526 761 542 729 q 480 825 507 797 q 413 868 453 853 q 354 883 385 879 q 293 886 324 886 q 241 876 268 886 q 189 845 214 865 q 144 797 164 825 q 113 736 124 769 q 95 623 96 682 q 114 513 94 564 q 186 408 136 450 q 318 367 236 365 q 367 370 342 367 q 415 382 392 374 q 473 413 447 393 q 522 460 499 433 q 549 460 538 471 q 553 432 561 449 q 485 372 522 397 q 404 336 449 347 q 333 326 368 326 q 263 331 299 325 q 145 386 190 342 q 76 493 100 431 q 54 624 54 556 q 75 751 54 693 q 172 887 108 846 q 315 928 235 928 q 342 926 326 928 q 375 922 358 925 q 407 914 392 918 q 432 906 422 910 q 508 853 476 883 q 561 786 540 822 q 600 685 589 740 q 614 569 611 631 q 604 404 617 486 q 561 247 592 322 q 511 149 540 196 q 442 61 482 101 q 345 -1 399 17 q 236 -14 292 -19 q 119 24 174 -8 q 32 115 64 57 z "}," ":{"ha":558,"x_min":0,"x_max":0,"o":""},"m":{"ha":1588,"x_min":143,"x_max":1771,"o":"m 185 192 q 167 181 176 182 q 152 185 158 181 q 144 197 146 189 q 150 214 143 206 q 192 261 168 233 q 240 313 217 289 q 271 338 256 328 q 297 349 286 347 q 310 346 304 350 q 319 338 317 342 q 325 293 325 332 q 322 245 325 271 q 317 193 319 219 q 311 140 314 164 q 307 107 308 117 q 353 202 331 157 q 406 293 375 247 q 456 365 435 338 q 503 417 478 393 q 560 457 531 442 q 622 474 590 472 q 694 452 663 475 q 749 394 725 429 q 801 293 781 349 q 838 196 822 238 q 851 160 843 179 q 869 122 858 140 q 892 91 879 104 q 921 72 906 78 q 946 71 933 68 q 971 81 958 74 q 994 97 983 88 q 1013 113 1004 106 q 1055 157 1035 132 q 1097 206 1075 182 q 1144 248 1119 229 q 1201 274 1169 267 q 1263 271 1235 281 q 1315 240 1292 261 q 1376 175 1349 213 q 1426 110 1403 138 q 1490 62 1456 76 q 1568 71 1524 47 q 1606 95 1585 79 q 1651 131 1628 111 q 1695 171 1674 150 q 1733 211 1717 192 q 1750 219 1742 219 q 1764 213 1758 218 q 1770 200 1769 208 q 1764 183 1771 192 q 1677 99 1726 140 q 1588 33 1628 57 q 1539 15 1561 18 q 1497 15 1517 11 q 1450 35 1472 19 q 1408 72 1428 51 q 1369 117 1388 93 q 1331 163 1350 140 q 1306 190 1319 176 q 1278 215 1293 204 q 1246 231 1263 225 q 1210 233 1229 236 q 1172 217 1190 231 q 1134 184 1153 203 q 1096 142 1115 165 q 1056 99 1076 119 q 999 47 1028 68 q 938 26 969 26 q 889 42 911 26 q 835 102 857 63 q 797 186 814 142 q 769 265 782 225 q 739 338 756 304 q 701 397 722 372 q 647 431 679 422 q 588 427 614 438 q 533 389 561 417 q 441 269 489 342 q 357 122 393 197 q 323 44 338 82 q 299 -29 308 6 q 289 -43 296 -39 q 274 -47 282 -47 q 262 -40 267 -46 q 257 -26 257 -35 q 260 23 258 -4 q 266 79 263 50 q 272 138 269 108 q 278 194 275 168 q 283 264 282 235 q 282 296 285 293 q 270 290 279 299 q 249 265 261 281 q 217 228 233 249 q 185 192 200 207 z "},"r":{"ha":653,"x_min":139,"x_max":838,"o":"m 178 185 q 158 174 167 174 q 145 179 150 174 q 140 193 140 185 q 144 208 139 201 q 194 260 167 232 q 250 315 221 289 q 307 358 279 340 q 359 380 335 376 q 401 368 383 383 q 425 311 418 353 q 430 210 433 265 q 418 99 426 156 q 397 -12 410 43 q 375 -112 385 -67 q 365 -126 372 -122 q 351 -128 358 -129 q 338 -120 343 -126 q 335 -104 332 -114 q 360 13 349 -42 q 379 125 371 68 q 386 192 383 164 q 388 253 389 219 q 381 310 388 286 q 353 333 374 335 q 313 313 336 331 q 265 273 290 296 q 217 226 240 250 q 178 185 194 201 m 428 432 q 433 449 428 443 q 447 456 439 456 q 461 451 454 457 q 469 436 468 446 q 479 384 474 410 q 494 332 485 358 q 533 254 511 288 q 590 186 556 221 q 674 147 629 151 q 713 150 693 146 q 751 167 732 154 q 803 215 774 182 q 818 223 810 224 q 832 217 826 222 q 837 201 838 211 q 826 181 836 192 q 794 149 808 161 q 765 129 779 136 q 676 110 722 106 q 558 165 614 115 q 501 233 526 194 q 457 313 475 271 q 428 432 432 371 z "},"s":{"ha":594,"x_min":129,"x_max":597,"o":"m 168 175 q 141 175 153 164 q 138 203 129 186 q 188 256 161 226 q 242 317 214 285 q 313 396 279 360 q 363 443 346 432 q 390 450 375 453 q 419 436 404 447 q 469 389 446 418 q 505 341 489 365 q 528 304 521 317 q 564 233 549 269 q 586 160 579 197 q 592 57 597 107 q 561 -36 588 7 q 478 -117 533 -85 q 385 -143 433 -140 q 293 -126 336 -146 q 249 -99 269 -115 q 214 -58 229 -82 q 210 -40 208 -49 q 219 -28 213 -32 q 233 -25 225 -24 q 249 -35 242 -26 q 285 -71 265 -57 q 328 -92 306 -85 q 436 -90 381 -110 q 514 -34 482 -75 q 549 65 546 7 q 531 193 550 129 q 490 285 515 240 q 437 360 465 329 q 385 407 408 390 q 353 379 367 393 q 324 346 340 365 q 248 259 286 303 q 168 175 210 215 z "},"a":{"ha":783,"x_min":119,"x_max":971,"o":"m 597 306 q 594 286 600 293 q 582 278 589 279 q 567 283 575 278 q 558 299 560 288 q 517 377 547 350 q 442 407 486 404 q 339 378 393 410 q 238 282 285 346 q 185 193 207 242 q 163 93 163 144 q 199 15 163 39 q 285 6 235 -8 q 360 40 324 17 q 428 93 396 64 q 488 155 460 122 q 540 218 515 188 q 565 226 550 231 q 578 203 579 222 q 572 165 575 188 q 567 124 568 143 q 571 63 564 90 q 593 20 578 36 q 633 1 608 4 q 692 15 657 -1 q 765 61 726 32 q 839 122 803 90 q 890 169 867 146 q 933 213 914 193 q 950 221 942 221 q 963 215 958 221 q 969 201 968 210 q 964 185 971 193 q 912 134 940 161 q 851 81 883 107 q 765 16 810 46 q 676 -31 721 -14 q 609 -36 638 -44 q 562 -6 581 -28 q 534 49 543 17 q 525 113 525 81 l 525 135 q 474 79 501 107 q 416 28 446 51 q 355 -12 386 4 q 293 -35 324 -29 q 257 -41 271 -39 q 224 -40 243 -43 q 163 -17 186 -35 q 130 25 140 0 q 119 80 119 50 q 126 142 119 110 q 171 252 140 197 q 231 339 201 307 q 329 418 275 386 q 440 449 383 450 q 506 434 478 449 q 554 398 535 419 q 584 351 574 376 q 597 306 594 326 z "},"b":{"ha":875,"x_min":144,"x_max":1061,"o":"m 178 185 q 164 181 171 181 q 144 200 144 181 q 147 213 144 208 q 176 242 163 228 q 203 271 190 256 q 199 360 199 314 q 215 529 199 444 q 257 689 232 614 q 269 724 261 703 q 287 769 276 744 q 310 819 297 793 q 339 868 324 844 q 394 935 364 908 q 458 963 425 963 q 507 931 494 963 q 519 857 519 899 q 497 699 519 778 q 436 540 475 619 q 350 394 399 464 q 249 261 301 324 q 280 169 260 215 q 332 83 300 122 q 411 19 364 44 q 522 -11 458 -7 q 640 17 597 -17 q 682 114 682 50 q 661 224 682 165 q 660 231 660 226 q 666 245 660 240 q 679 250 672 250 q 699 240 690 250 q 726 198 710 218 q 764 163 743 178 q 807 138 785 147 q 853 129 829 129 q 945 149 908 129 q 1022 213 982 168 q 1038 222 1029 219 q 1054 218 1047 225 q 1061 201 1061 211 q 1054 185 1061 192 q 968 116 1019 144 q 872 85 917 88 q 785 97 822 82 q 722 136 747 113 q 724 124 724 129 q 724 113 724 118 q 712 49 724 81 q 675 -7 700 18 q 611 -46 650 -32 q 518 -56 572 -60 q 397 -24 449 -50 q 306 43 344 3 q 248 125 271 79 q 213 221 225 171 q 194 202 203 211 q 178 185 186 193 m 240 363 q 240 340 240 351 q 242 315 240 328 q 334 445 294 381 q 406 583 374 510 q 433 654 421 618 q 458 731 446 690 q 472 795 468 761 q 476 858 476 829 q 472 904 476 886 q 460 921 468 922 q 414 898 436 918 q 369 844 392 878 q 319 748 343 804 q 278 627 296 692 q 251 494 261 563 q 240 363 240 426 z "},"o":{"ha":839,"x_min":149,"x_max":1022,"o":"m 990 215 q 1004 221 996 222 q 1017 214 1013 219 q 1022 199 1022 208 q 1013 181 1022 190 q 867 81 953 113 q 783 60 826 65 q 693 60 739 54 q 668 63 681 61 q 643 67 656 64 q 599 8 625 35 q 536 -39 572 -19 q 470 -62 504 -56 q 403 -67 436 -69 q 274 -28 331 -62 q 184 61 219 6 q 149 189 149 117 q 171 290 149 243 q 231 376 193 336 q 247 385 239 385 q 260 379 256 385 q 267 365 265 374 q 261 349 268 357 q 210 276 229 315 q 190 189 190 238 q 214 92 190 135 q 275 21 238 49 q 352 -17 310 -6 q 438 -25 394 -29 q 507 -7 474 -22 q 569 36 540 8 q 588 56 579 46 q 603 78 596 67 q 531 107 567 89 q 454 156 494 125 q 407 203 431 174 q 368 267 383 232 q 351 324 356 294 q 353 379 346 353 q 376 428 360 410 q 413 454 392 447 q 499 453 451 468 q 571 413 539 440 q 650 307 625 367 q 669 144 685 228 q 665 124 667 133 q 660 106 663 115 q 670 103 665 104 q 682 103 675 103 q 750 100 715 99 q 821 110 785 101 q 908 147 861 119 q 990 215 954 175 m 507 169 q 563 138 535 151 q 621 115 590 124 q 626 133 624 124 q 631 151 628 142 q 624 250 638 200 q 579 342 611 300 q 543 380 565 361 q 497 411 521 399 q 440 424 468 426 q 397 386 413 421 q 395 328 390 358 q 415 271 400 299 q 456 213 432 239 q 507 169 481 186 z "},"c":{"ha":754,"x_min":144,"x_max":940,"o":"m 564 339 q 558 323 564 328 q 543 319 551 318 q 528 325 535 319 q 522 342 522 331 q 508 390 522 372 q 472 417 494 408 q 429 424 453 424 q 382 417 406 424 q 278 360 324 400 q 200 249 226 314 q 188 185 189 218 q 193 122 186 153 q 230 49 204 78 q 292 4 256 21 q 354 -16 321 -10 q 422 -24 388 -22 q 490 -22 456 -25 q 554 -15 524 -19 q 651 16 607 -4 q 735 64 694 36 q 823 135 782 96 q 903 213 864 174 q 919 221 911 221 q 933 216 928 221 q 940 202 939 211 q 933 185 940 193 q 849 104 893 144 q 756 31 806 64 q 663 -20 711 1 q 558 -53 614 -42 q 485 -62 524 -60 q 406 -62 446 -65 q 327 -49 365 -58 q 256 -21 289 -39 q 190 34 218 0 q 151 118 163 68 q 146 191 144 154 q 161 263 147 228 q 244 383 189 332 q 303 427 272 408 q 371 456 335 446 q 492 456 438 475 q 544 415 524 443 q 564 339 564 386 z "},"d":{"ha":976,"x_min":139,"x_max":1161,"o":"m 596 299 q 578 278 596 278 q 565 283 571 278 q 557 299 558 288 q 513 379 546 351 q 432 407 479 407 q 358 387 401 407 q 276 333 315 367 q 208 251 236 299 q 181 150 181 204 q 187 114 181 135 q 208 74 193 93 q 248 40 222 54 q 314 26 274 26 q 403 47 360 26 q 486 97 447 67 q 558 163 525 128 q 615 226 590 197 q 611 331 611 278 q 631 564 610 447 q 693 785 653 681 q 722 853 704 813 q 767 932 740 894 q 815 985 789 964 q 874 1007 842 1007 q 936 976 918 1007 q 954 896 954 944 q 939 784 954 846 q 903 664 924 722 q 864 560 883 606 q 835 494 844 514 q 799 423 817 457 q 760 356 781 389 q 713 287 739 322 q 654 211 688 251 q 674 136 658 171 q 715 75 690 101 q 772 34 740 49 q 835 19 803 19 q 915 38 875 19 q 992 85 954 56 q 1033 122 1010 99 q 1078 167 1057 146 q 1117 205 1100 189 q 1142 221 1135 221 q 1161 201 1161 221 q 1142 166 1161 189 q 1096 119 1122 143 q 1043 72 1069 94 q 1003 40 1017 50 q 974 19 989 31 q 938 -1 958 8 q 892 -16 918 -10 q 833 -22 867 -22 q 760 -6 796 -22 q 696 37 725 10 q 647 99 667 64 q 622 172 626 133 q 551 101 589 135 q 474 42 514 68 q 394 0 435 15 q 313 -15 353 -15 q 238 -1 271 -15 q 183 37 206 13 q 150 92 161 61 q 139 156 139 122 q 154 233 139 192 q 283 394 206 340 q 433 449 360 449 q 502 435 472 449 q 551 399 532 421 q 582 353 571 378 q 596 306 593 328 l 596 299 m 653 271 q 788 490 732 374 q 881 725 843 606 q 889 754 883 735 q 899 797 894 774 q 908 844 904 819 q 913 892 913 869 q 904 942 913 918 q 874 965 896 965 q 840 952 857 965 q 808 918 824 939 q 761 838 782 882 q 731 769 740 794 q 671 549 690 663 q 651 319 651 435 q 651 296 651 308 q 653 272 651 283 l 653 271 z "},"f":{"ha":638,"x_min":63,"x_max":822,"o":"m 178 185 q 151 185 163 174 q 147 213 139 196 q 277 360 215 285 q 389 519 339 436 q 438 610 415 564 q 476 706 460 657 q 499 786 490 746 q 510 871 507 826 q 503 916 513 897 q 465 926 494 935 q 389 865 425 903 q 310 738 339 810 q 268 597 282 667 q 241 385 246 486 q 246 183 236 283 q 285 -56 257 63 q 351 -301 313 -174 q 336 -325 351 -321 q 311 -312 321 -329 q 250 -90 278 -200 q 208 135 222 21 q 201 216 203 175 q 197 299 199 257 q 208 510 196 400 q 258 717 221 621 q 312 832 279 774 q 393 928 344 890 q 440 958 413 943 q 493 969 468 972 q 531 951 518 967 q 548 915 543 936 q 551 869 553 893 q 549 826 550 844 q 543 788 546 801 q 533 753 540 775 q 488 622 514 686 q 425 497 461 558 q 310 335 374 411 q 178 185 247 258 m 78 24 q 70 51 63 36 q 97 61 78 65 q 277 20 183 25 q 463 36 371 15 q 549 62 507 47 q 631 97 590 76 q 790 217 724 146 q 806 222 799 224 q 818 215 814 221 q 822 201 822 210 q 817 185 822 193 q 742 117 782 149 q 658 63 703 86 q 556 16 610 35 q 446 -12 503 -3 q 259 -21 353 -29 q 78 24 165 -12 z "},"g":{"ha":731,"x_min":119,"x_max":917,"o":"m 597 306 q 595 288 600 294 q 583 280 590 282 q 567 281 575 278 q 557 294 560 285 q 543 328 550 313 q 524 360 536 344 q 484 393 507 383 q 436 403 461 403 q 352 383 394 404 q 281 335 310 363 q 224 265 249 303 q 182 185 199 226 q 167 138 174 164 q 161 88 161 113 q 168 41 161 63 q 193 7 175 19 q 233 -4 207 -4 q 283 3 260 -4 q 355 35 319 13 q 422 86 390 57 q 485 151 457 118 q 529 211 513 183 q 547 219 536 218 q 574 201 564 219 q 572 35 586 118 q 540 -129 558 -49 q 472 -323 517 -232 q 346 -490 428 -414 q 297 -521 321 -514 q 253 -520 272 -528 q 220 -490 233 -512 q 206 -435 207 -468 q 233 -310 201 -368 q 314 -210 265 -251 q 542 -61 419 -121 q 631 -10 590 -37 q 710 46 672 17 q 800 127 758 85 q 879 214 842 169 q 896 222 888 222 q 909 217 904 222 q 915 203 914 211 q 910 186 917 194 q 813 85 865 136 q 699 -11 761 33 q 651 -43 675 -28 q 603 -71 628 -58 q 537 -106 567 -90 q 480 -139 507 -122 q 427 -174 453 -156 q 372 -215 401 -192 q 308 -276 340 -242 q 258 -351 276 -311 q 244 -411 246 -381 q 257 -474 243 -442 q 292 -479 272 -490 q 364 -410 332 -450 q 422 -324 396 -371 q 473 -210 451 -269 q 508 -88 494 -150 q 529 33 522 -26 q 536 147 536 93 q 474 72 510 111 q 401 10 439 33 q 315 -33 361 -14 q 218 -44 268 -53 q 159 -17 181 -39 q 128 33 138 4 q 121 95 119 63 q 131 158 122 128 q 189 289 150 226 q 285 392 228 351 q 374 438 331 425 q 499 431 443 458 q 597 306 564 397 z "},"j":{"ha":447,"x_min":-82,"x_max":633,"o":"m 178 183 q 161 178 169 176 q 149 186 153 181 q 144 200 144 192 q 151 215 144 208 q 203 272 181 243 q 246 324 225 300 q 271 333 257 338 q 288 308 285 329 q 294 126 293 214 q 279 -51 296 39 q 369 3 328 -26 q 449 64 411 32 q 526 138 490 100 q 596 214 563 175 q 613 222 604 222 q 626 217 621 222 q 632 203 631 211 q 626 186 633 194 q 543 98 588 142 q 447 14 499 54 q 385 -31 417 -10 q 319 -71 354 -53 q 295 -85 306 -78 q 271 -99 285 -92 q 228 -235 253 -169 q 168 -358 204 -300 q 120 -428 146 -394 q 63 -490 94 -461 q 13 -521 38 -514 q -31 -520 -11 -528 q -63 -490 -50 -512 q -78 -435 -76 -468 q -50 -310 -82 -368 q 31 -210 -18 -251 q 127 -136 75 -171 q 232 -74 179 -101 q 251 92 250 10 q 247 261 251 174 l 178 183 m 15 -478 q 53 -445 35 -467 q 90 -400 72 -424 q 170 -263 138 -337 q 222 -122 203 -189 q 156 -164 186 -142 q 89 -215 125 -186 q 24 -278 57 -243 q -25 -354 -8 -314 q -34 -386 -31 -368 q -38 -421 -37 -404 q -36 -452 -39 -437 q -26 -474 -33 -467 q -7 -482 -19 -481 q 15 -478 6 -483 m 231 517 q 240 540 231 531 q 265 549 250 549 q 290 540 281 549 q 300 517 300 531 q 290 494 300 503 q 265 485 281 485 q 240 494 250 485 q 231 517 231 503 z "},"k":{"ha":921,"x_min":139,"x_max":1104,"o":"m 178 185 q 151 185 163 174 q 147 213 139 196 q 175 242 163 228 q 200 269 188 256 q 198 362 197 315 q 201 454 199 408 q 233 651 208 553 q 310 835 258 749 q 319 849 314 840 q 332 868 325 858 q 346 886 339 878 q 357 900 353 894 q 381 925 368 914 q 408 946 394 936 q 442 961 424 957 q 479 961 461 965 q 517 920 508 954 q 524 842 526 886 q 514 772 521 808 q 499 705 507 736 q 483 649 490 674 q 471 614 475 624 q 431 526 454 569 q 376 438 407 482 q 310 341 342 385 q 242 256 278 297 q 259 154 249 203 q 288 61 269 106 q 344 175 315 119 q 404 286 372 231 q 455 362 426 325 q 515 424 483 399 q 580 463 546 450 q 649 469 614 476 q 693 447 679 464 q 710 408 707 431 q 706 361 713 386 q 688 313 699 336 q 646 259 678 293 q 563 192 614 225 q 614 99 586 133 q 650 62 632 76 q 688 36 668 47 q 755 14 724 17 q 807 14 786 11 q 883 44 846 21 q 953 94 919 67 q 1016 154 988 124 q 1064 207 1044 185 q 1081 217 1072 217 q 1096 214 1089 218 q 1103 201 1103 210 q 1094 181 1104 192 q 1004 82 1044 119 q 917 17 964 44 q 863 -11 890 1 q 804 -26 835 -24 q 646 11 714 -33 q 581 71 608 36 q 561 98 572 81 q 540 135 550 115 q 521 176 529 156 q 508 213 513 196 q 586 254 551 224 q 642 319 621 285 q 666 383 663 353 q 650 424 669 413 q 613 431 632 433 q 573 418 593 429 q 533 390 553 407 q 497 351 514 372 q 451 283 472 319 q 410 211 429 247 q 356 108 382 160 q 306 1 331 56 q 286 -9 297 -10 q 268 4 275 -8 q 228 106 243 53 q 206 214 213 160 l 178 185 m 301 725 q 248 526 265 633 q 238 311 231 419 q 265 346 253 329 q 290 381 278 363 q 392 545 350 465 q 458 724 433 625 q 469 775 461 738 q 479 849 476 813 q 478 897 482 876 q 464 922 475 918 q 425 910 446 925 q 385 869 404 894 q 336 797 358 838 q 301 725 314 756 z "},"i":{"ha":610,"x_min":143,"x_max":796,"o":"m 176 183 q 160 178 168 176 q 147 187 151 181 q 143 201 143 193 q 150 217 143 210 q 199 272 176 244 q 243 322 222 299 q 274 332 258 338 q 285 320 281 329 q 290 299 290 311 q 364 63 297 128 q 488 29 411 17 q 625 86 565 43 q 694 145 663 113 q 758 213 726 178 q 774 221 765 221 q 788 216 782 221 q 794 202 793 211 q 789 185 796 193 q 719 113 753 147 q 647 53 685 79 q 579 13 615 29 q 501 -10 543 -3 q 403 -8 451 -18 q 319 46 356 3 q 275 129 293 78 q 250 261 257 181 l 176 183 m 243 503 q 253 526 243 517 q 278 535 263 535 q 303 526 293 535 q 313 503 313 517 q 303 480 313 489 q 278 471 293 471 q 253 480 263 471 q 243 503 243 489 z "},"z":{"ha":610,"x_min":125,"x_max":796,"o":"m 260 47 q 247 57 250 50 q 244 71 243 64 q 250 83 244 78 q 265 89 256 89 q 303 85 283 86 q 344 83 324 83 q 385 135 364 110 q 426 186 407 160 q 455 230 442 207 q 475 276 468 253 q 477 324 483 306 q 456 351 471 343 q 374 349 424 368 q 317 317 342 336 q 268 275 292 299 q 218 224 243 251 q 164 169 193 197 q 137 169 149 158 q 133 197 125 181 q 204 269 176 240 q 268 329 232 299 q 308 360 288 346 q 353 385 329 374 q 415 402 385 400 q 468 393 444 404 q 512 347 497 379 q 515 268 526 315 q 467 171 501 215 q 399 83 433 126 q 420 84 410 83 q 442 86 431 85 q 508 93 476 89 q 568 104 540 97 q 613 117 590 110 q 660 138 636 125 q 710 171 685 151 q 763 218 736 190 q 778 224 771 225 q 790 218 786 224 q 795 203 794 213 q 789 186 796 194 q 675 103 739 133 q 574 65 626 78 q 503 53 542 58 q 424 44 464 47 q 394 42 408 43 q 367 42 381 42 q 360 32 363 38 q 333 -17 344 8 q 321 -71 321 -43 q 327 -89 321 -83 q 340 -97 333 -94 q 369 -99 353 -101 q 401 -92 386 -96 q 485 -56 444 -78 q 561 -10 525 -33 q 579 -8 571 -6 q 591 -17 588 -11 q 593 -32 594 -24 q 582 -46 592 -40 q 529 -78 557 -62 q 474 -107 501 -93 q 442 -121 458 -114 q 410 -132 425 -128 q 337 -138 369 -143 q 289 -110 304 -133 q 286 -26 269 -82 q 299 10 292 -7 q 317 42 307 26 q 288 44 301 43 q 260 47 274 44 z "},"h":{"ha":1071,"x_min":143,"x_max":1254,"o":"m 176 185 q 163 181 169 181 q 143 200 143 181 q 146 213 143 208 q 229 310 194 261 q 292 400 264 360 q 393 563 351 485 q 458 724 435 640 q 464 749 460 732 q 471 786 468 765 q 476 829 474 807 q 479 871 479 851 q 475 908 479 894 q 458 922 471 922 q 415 905 438 922 q 372 859 393 888 q 333 795 351 831 q 301 725 314 760 q 255 559 274 647 q 236 379 236 471 q 248 213 236 293 q 288 61 260 133 q 367 219 326 144 q 447 349 407 293 q 530 438 488 406 q 618 471 572 471 q 703 437 667 471 q 771 354 740 403 q 822 254 800 306 q 866 160 843 203 q 920 91 889 118 q 1000 64 951 64 q 1065 79 1033 64 q 1124 117 1096 94 q 1176 167 1151 140 q 1219 214 1200 193 q 1235 221 1226 221 q 1248 215 1242 221 q 1254 199 1254 208 q 1247 182 1254 192 q 1197 128 1224 156 q 1139 76 1169 100 q 1074 38 1108 53 q 1001 22 1040 22 q 906 55 946 22 q 838 135 867 88 q 787 233 808 182 q 744 321 765 285 q 683 400 715 372 q 614 428 651 428 q 559 409 586 428 q 506 360 532 390 q 456 292 481 331 q 410 211 432 253 q 382 155 399 192 q 347 81 365 118 q 313 17 329 44 q 288 -10 296 -10 q 268 4 276 -10 q 213 173 228 85 q 197 351 197 261 q 221 600 197 474 q 310 835 244 726 q 338 877 322 854 q 374 919 354 900 q 415 950 393 938 q 463 963 438 963 q 513 935 499 963 q 526 865 526 907 q 521 799 526 833 q 508 733 515 764 q 492 677 500 701 q 481 642 485 653 q 436 547 464 597 q 378 453 408 497 q 283 313 329 379 q 176 185 238 246 z "},"l":{"ha":688,"x_min":140,"x_max":869,"o":"m 174 181 q 158 175 167 175 q 146 181 151 175 q 140 196 140 188 q 147 212 140 201 q 165 233 154 222 q 185 255 175 244 q 203 274 196 265 q 195 331 197 301 q 193 390 193 361 q 213 583 193 482 q 269 768 233 683 q 359 908 306 853 q 468 963 413 963 q 517 931 504 963 q 531 858 531 900 q 510 708 531 783 q 453 562 489 633 q 372 424 418 490 q 278 299 326 357 q 263 281 271 289 q 247 263 254 272 q 346 76 274 132 q 515 19 418 19 q 608 36 564 19 q 692 81 653 53 q 767 142 732 108 q 833 213 801 176 q 851 221 842 221 q 869 201 869 221 q 857 174 869 190 q 826 138 844 157 q 789 102 808 119 q 756 74 769 85 q 638 3 700 29 q 508 -22 575 -22 q 417 -8 461 -22 q 336 35 374 6 q 267 110 299 64 q 214 224 236 157 q 194 202 204 213 q 174 181 185 192 m 240 318 q 378 512 319 411 q 468 724 438 613 q 483 783 475 746 q 490 854 490 819 q 485 899 490 876 q 460 922 479 922 q 403 889 440 922 q 328 790 365 856 q 263 629 290 725 q 235 410 235 533 q 236 364 235 386 q 240 318 238 342 z "},"n":{"ha":1057,"x_min":143,"x_max":1240,"o":"m 183 192 q 163 181 172 181 q 143 200 143 181 q 149 214 143 207 q 238 311 206 276 q 299 349 271 346 q 322 331 319 346 q 322 288 324 317 q 312 169 314 199 q 306 107 310 140 q 385 258 346 190 q 462 372 424 325 q 540 446 500 419 q 621 474 579 472 q 690 458 660 474 q 744 410 719 443 q 792 326 769 378 q 843 201 815 275 q 880 119 861 149 q 915 74 899 89 q 947 56 932 60 q 975 51 963 51 q 1024 64 996 51 q 1082 99 1051 76 q 1144 150 1113 121 q 1204 211 1176 179 q 1221 218 1211 218 q 1240 199 1240 218 q 1235 183 1240 189 q 1170 117 1204 149 q 1102 62 1136 86 q 1035 24 1068 38 q 971 10 1001 10 q 898 34 932 10 q 832 113 864 58 q 787 211 807 156 q 744 316 767 267 q 693 399 722 365 q 619 433 664 433 q 545 399 585 433 q 467 310 506 364 q 392 192 428 257 q 332 68 357 128 q 319 31 325 51 q 306 -6 313 11 q 293 -34 300 -22 q 276 -46 286 -46 q 262 -41 268 -46 q 256 -26 256 -36 q 264 91 260 47 q 270 160 268 135 q 275 210 272 186 q 282 283 278 235 q 279 296 282 296 q 265 285 275 296 q 240 258 254 274 q 211 224 226 242 q 183 192 196 206 z "},"p":{"ha":1058,"x_min":142,"x_max":1243,"o":"m 183 192 q 166 181 175 182 q 151 185 157 181 q 143 197 144 189 q 149 214 142 206 q 183 252 163 229 q 223 296 203 275 q 263 332 243 317 q 297 349 282 347 q 310 346 304 350 q 319 338 317 342 q 324 301 325 331 q 320 237 324 272 q 313 169 317 201 q 308 125 308 138 q 353 211 332 175 q 406 293 375 247 q 456 365 435 338 q 503 417 478 393 q 560 457 531 442 q 622 474 590 472 q 768 379 710 478 q 806 302 786 350 q 844 201 825 254 q 888 113 865 143 q 925 69 910 82 q 980 52 950 50 q 1040 71 1010 54 q 1078 95 1057 79 q 1123 131 1100 111 q 1167 171 1146 150 q 1206 211 1189 192 q 1222 219 1214 219 q 1236 213 1231 218 q 1242 200 1242 208 q 1236 183 1243 192 q 1150 97 1199 140 q 1060 33 1101 54 q 956 11 1003 6 q 893 39 924 15 q 833 113 863 63 q 791 210 810 153 q 747 319 772 267 q 701 399 722 374 q 647 431 679 424 q 588 427 614 438 q 533 389 561 417 q 487 334 511 365 q 438 267 463 303 q 391 191 414 231 q 349 113 368 151 q 320 55 333 83 q 297 0 307 26 q 283 -49 292 -15 q 266 -126 275 -83 q 248 -216 257 -169 q 231 -301 239 -262 q 217 -367 222 -340 q 210 -397 211 -394 q 198 -410 206 -407 q 183 -411 190 -412 q 172 -403 176 -410 q 169 -389 167 -397 q 176 -359 171 -386 q 189 -291 181 -332 q 207 -201 197 -250 q 226 -103 217 -151 q 242 -12 235 -54 q 254 57 250 31 q 266 143 260 101 q 276 218 272 185 q 283 272 281 251 q 282 296 285 293 q 268 287 279 297 q 242 260 257 276 q 212 225 228 244 q 183 192 196 206 z "},"q":{"ha":736,"x_min":125,"x_max":922,"o":"m 603 306 q 601 288 606 294 q 588 280 596 282 q 573 281 581 278 q 563 294 565 285 q 549 328 556 313 q 529 360 542 344 q 490 392 513 382 q 444 403 468 401 q 358 384 401 406 q 286 335 315 363 q 229 265 254 303 q 188 185 204 226 q 173 138 179 164 q 167 88 167 113 q 174 41 167 63 q 199 7 181 19 q 238 -3 214 -3 q 286 3 263 -3 q 360 35 322 13 q 429 88 397 58 q 490 151 463 118 q 535 211 518 183 q 553 219 542 218 q 579 201 569 219 q 581 166 581 186 q 581 125 582 146 q 578 84 581 104 q 575 50 576 64 q 567 -8 574 29 q 553 -91 561 -46 q 535 -185 544 -136 q 517 -278 525 -233 q 663 -46 582 -154 q 885 214 763 92 q 901 222 893 222 q 915 217 910 222 q 921 203 919 211 q 915 186 922 194 q 689 -79 789 60 q 581 -249 631 -161 q 489 -431 531 -336 q 464 -440 478 -444 q 450 -419 450 -436 l 450 -418 q 474 -279 461 -347 q 501 -140 488 -211 q 526 3 515 -68 q 542 147 538 74 q 480 72 515 111 q 407 10 444 33 q 320 -33 367 -14 q 224 -44 274 -53 q 165 -17 186 -39 q 134 33 143 4 q 126 95 125 63 q 136 158 128 128 q 194 289 156 226 q 290 392 233 351 q 435 446 365 446 q 534 411 490 446 q 603 306 578 376 z "},"u":{"ha":1044,"x_min":139,"x_max":1228,"o":"m 178 182 q 151 182 163 171 q 147 210 139 193 q 201 272 175 242 q 257 332 228 303 q 281 338 268 343 q 294 317 293 333 q 301 220 294 267 q 325 131 307 174 q 352 77 336 103 q 396 31 368 51 q 447 6 419 13 q 496 0 474 0 q 560 21 532 0 q 608 69 588 42 q 653 155 636 107 q 679 244 669 203 q 685 289 682 264 q 693 333 689 314 q 701 347 694 343 q 715 348 708 350 q 728 340 722 346 q 733 325 733 335 q 737 265 733 297 q 749 199 740 232 q 770 134 757 165 q 803 78 783 103 q 849 36 822 53 q 908 17 875 19 q 960 23 933 14 q 1013 47 986 32 q 1061 82 1038 63 q 1107 122 1085 101 q 1154 171 1132 147 q 1192 214 1176 194 q 1208 222 1200 222 q 1221 217 1215 222 q 1227 203 1226 211 q 1221 186 1228 194 q 1153 112 1190 150 q 1076 42 1117 74 q 994 -8 1036 11 q 907 -24 951 -26 q 832 -1 871 -21 q 771 49 793 18 q 738 103 750 76 q 719 153 726 129 q 714 170 717 161 q 708 189 711 179 q 678 99 697 143 q 625 22 658 56 q 553 -24 593 -10 q 471 -36 513 -39 q 394 -16 431 -33 q 331 33 358 1 q 282 121 300 71 q 263 194 268 157 q 254 268 257 232 q 216 226 235 247 q 178 182 197 204 z "},"v":{"ha":964,"x_min":135,"x_max":1147,"o":"m 174 182 q 147 182 158 171 q 143 210 135 193 q 167 238 151 219 q 201 276 183 257 q 234 313 218 296 q 258 335 250 329 q 281 331 271 342 q 292 311 290 319 q 306 269 299 290 q 319 228 313 249 q 364 135 336 183 q 428 43 392 86 q 511 -37 467 -4 q 600 -72 556 -69 q 636 -54 608 -74 q 693 8 664 -35 q 731 76 715 39 q 656 116 694 88 q 586 183 618 144 q 534 280 550 226 q 522 372 518 333 q 549 442 528 417 q 600 471 569 468 q 662 458 629 474 q 718 421 694 443 q 788 313 767 375 q 803 208 804 263 q 785 106 801 154 q 863 99 824 99 q 946 110 903 99 q 1033 147 986 119 q 1115 215 1079 175 q 1129 221 1121 222 q 1142 214 1138 219 q 1147 199 1147 208 q 1138 181 1147 190 q 1065 118 1106 144 q 981 76 1025 92 q 902 59 943 64 q 818 60 861 54 q 794 63 806 61 q 771 67 782 64 q 757 37 764 51 q 743 7 750 22 q 717 -32 733 -11 q 681 -72 700 -53 q 642 -103 661 -90 q 608 -118 622 -117 q 579 -115 597 -119 q 540 -100 561 -110 q 497 -77 518 -90 q 458 -49 475 -64 q 353 68 397 4 q 281 208 310 132 q 267 243 275 221 q 257 276 260 265 q 216 231 238 257 q 174 182 194 206 m 642 186 q 688 144 663 163 q 744 115 714 125 q 759 189 754 151 q 757 264 764 226 q 724 350 750 308 q 657 414 694 394 q 615 424 635 425 q 582 406 596 422 q 571 317 560 369 q 596 250 578 285 q 642 186 614 215 z "},"w":{"ha":1444,"x_min":136,"x_max":1625,"o":"m 175 181 q 148 181 160 169 q 144 208 136 192 q 179 244 161 225 q 215 279 197 264 q 260 319 236 299 q 315 354 283 340 q 353 344 333 361 q 381 303 369 329 q 400 264 393 278 q 427 208 411 244 q 463 132 443 172 q 492 78 476 104 q 523 31 507 51 q 556 -1 539 11 q 588 -12 572 -12 q 621 -3 606 -12 q 648 24 636 7 q 669 62 660 40 q 685 107 678 83 q 700 159 693 133 q 713 206 707 185 q 727 241 719 226 q 746 258 735 256 q 753 260 753 260 q 760 258 753 260 q 777 247 769 256 q 791 228 785 239 q 803 205 797 217 q 814 183 808 193 q 840 135 825 164 q 875 79 856 107 q 920 26 896 49 q 972 -1 944 3 q 1010 26 992 -1 q 1046 93 1029 54 q 1078 176 1063 133 q 1106 250 1093 219 q 1116 274 1110 261 q 1131 297 1122 286 q 1161 322 1146 317 q 1222 307 1188 329 q 1265 271 1246 292 q 1296 238 1285 250 q 1388 167 1336 193 q 1476 143 1435 140 q 1543 164 1522 146 q 1589 208 1564 182 q 1605 217 1597 217 q 1618 211 1613 217 q 1624 197 1624 206 q 1618 181 1625 189 q 1590 152 1606 167 q 1557 126 1575 138 q 1481 103 1521 106 q 1383 124 1432 100 q 1344 146 1364 133 q 1306 176 1325 158 q 1267 210 1289 188 q 1226 251 1246 232 q 1197 276 1210 267 q 1175 281 1183 285 q 1145 242 1156 269 q 1128 197 1135 215 q 1115 163 1122 183 q 1099 117 1108 142 q 1080 68 1090 93 q 1056 21 1069 43 q 1021 -22 1040 -4 q 978 -43 1001 -40 q 921 -28 953 -47 q 897 -9 910 -21 q 876 11 885 3 q 849 46 861 28 q 824 83 836 64 q 787 147 806 114 q 753 208 768 181 q 738 142 747 181 q 717 71 728 104 q 697 31 710 54 q 674 -8 685 7 q 631 -43 654 -32 q 592 -54 608 -54 q 531 -29 560 -56 q 474 38 501 -3 q 438 96 454 65 q 407 156 421 126 q 382 208 393 185 q 363 247 371 232 q 345 278 356 258 q 324 313 335 297 q 293 296 308 308 q 256 263 278 283 q 210 217 232 240 q 175 181 189 194 z "},"y":{"ha":947,"x_min":144,"x_max":1133,"o":"m 178 183 q 161 178 169 176 q 149 187 153 181 q 144 201 144 193 q 151 217 144 210 q 205 274 181 244 q 250 326 229 303 q 276 335 263 342 q 292 299 290 328 q 354 74 299 140 q 489 29 404 15 q 572 55 535 38 q 638 96 608 72 q 692 147 668 119 q 736 201 717 174 q 766 216 747 218 q 788 194 785 214 q 790 70 796 132 q 771 -53 783 8 q 858 -5 818 -31 q 931 49 897 21 q 1022 133 982 90 q 1096 213 1061 176 q 1113 221 1104 221 q 1126 216 1121 221 q 1132 203 1131 211 q 1126 186 1133 194 q 1044 100 1089 143 q 950 17 1000 57 q 817 -71 888 -33 q 788 -85 801 -78 q 760 -100 774 -93 q 757 -115 758 -107 q 754 -129 756 -122 q 709 -272 736 -204 q 638 -403 682 -340 q 602 -448 621 -426 q 560 -490 583 -469 q 504 -523 532 -518 q 457 -515 476 -528 q 419 -435 424 -493 q 446 -307 415 -367 q 482 -254 461 -278 q 528 -210 503 -231 q 623 -137 572 -171 q 725 -76 674 -104 q 744 38 738 -18 q 750 144 750 93 l 742 136 q 726 119 733 128 q 707 101 718 110 q 615 30 663 58 q 503 -10 568 1 q 408 -9 454 -18 q 326 40 363 0 q 278 126 299 72 q 251 264 258 179 l 178 183 m 510 -476 q 548 -446 529 -462 q 582 -410 567 -429 q 662 -279 631 -351 q 714 -126 693 -207 q 650 -167 681 -146 q 586 -215 619 -187 q 515 -276 547 -247 q 468 -346 483 -306 q 457 -386 461 -364 q 456 -431 453 -408 q 510 -476 467 -503 z "},"x":{"ha":708,"x_min":142,"x_max":893,"o":"m 858 215 q 875 222 867 224 q 888 215 883 221 q 893 199 893 208 q 885 183 893 190 q 752 78 835 131 q 576 -17 669 26 q 549 -29 563 -24 q 522 -40 536 -35 q 615 -116 567 -82 q 714 -178 664 -150 q 725 -192 724 -183 q 723 -206 726 -200 q 712 -216 719 -212 q 694 -215 704 -219 q 585 -144 639 -185 q 482 -57 531 -104 q 377 -96 428 -79 q 282 -124 326 -112 q 263 -124 271 -128 q 251 -112 254 -119 q 251 -99 249 -106 q 261 -87 253 -92 q 345 -59 297 -75 q 449 -22 393 -43 q 411 22 429 -1 q 378 68 393 44 q 297 232 331 146 q 286 261 290 246 q 275 292 282 276 q 251 265 261 276 q 231 243 240 254 q 206 217 221 232 q 175 182 192 201 q 161 176 168 175 q 149 183 154 178 q 142 197 143 189 q 149 213 142 206 q 165 230 154 218 q 201 269 176 242 q 249 322 229 301 q 286 340 268 343 q 307 317 300 336 q 322 280 314 301 q 336 243 329 258 q 363 181 350 206 q 396 119 376 156 q 438 53 415 86 q 489 -7 461 21 q 576 31 532 10 q 731 112 656 67 q 858 215 806 157 z "},"A":{"ha":1047,"x_min":131,"x_max":1231,"o":"m 161 347 q 144 353 150 347 q 139 367 139 360 q 144 381 139 374 q 161 389 150 388 q 264 390 208 389 q 379 390 319 390 l 708 882 q 717 892 711 889 q 729 896 724 896 q 744 887 740 896 q 747 867 749 878 q 742 693 743 782 q 747 517 740 604 q 769 344 753 429 q 817 179 785 258 q 946 33 868 47 q 1005 42 974 28 q 1067 81 1036 57 q 1141 151 1107 113 q 1196 213 1175 190 q 1212 220 1204 221 q 1224 214 1219 219 q 1230 200 1229 208 q 1222 183 1231 192 q 1197 154 1213 172 q 1163 115 1182 136 q 1123 74 1144 94 q 1076 36 1101 53 q 983 -7 1032 4 q 889 10 933 -18 q 821 76 846 36 q 778 164 796 117 q 733 316 750 236 q 710 478 717 396 q 702 643 703 561 q 704 801 701 725 q 567 597 635 699 q 429 392 499 494 q 556 394 494 393 q 669 397 617 394 q 683 392 678 397 q 689 381 688 388 q 686 365 690 372 q 672 356 682 357 q 544 351 614 353 q 400 349 474 350 l 171 7 q 156 -3 164 -1 q 142 -1 149 -4 q 133 11 136 3 q 136 29 131 19 q 243 189 189 110 q 350 349 297 268 q 251 347 299 347 q 161 347 203 347 z "},"B":{"ha":772,"x_min":22,"x_max":797,"o":"m 39 104 q 33 134 22 119 q 64 138 44 149 q 256 28 156 67 q 475 -10 357 -11 q 597 11 536 -8 q 699 81 658 31 q 749 226 750 146 q 724 331 747 282 q 661 411 700 379 q 585 452 629 439 q 497 468 542 465 q 476 482 481 469 q 482 506 471 494 q 563 560 524 531 q 626 633 603 589 q 640 695 643 665 q 621 748 638 725 q 576 786 604 771 q 518 804 549 801 q 426 789 471 810 q 346 744 382 768 q 319 403 339 572 q 265 67 299 235 q 255 52 263 56 q 240 50 247 49 q 228 58 233 51 q 225 75 224 64 q 278 413 258 244 q 304 756 299 582 q 313 772 306 765 q 429 831 371 810 q 557 840 488 851 q 616 814 589 835 q 660 764 643 793 q 681 701 676 735 q 672 636 685 667 q 624 561 654 593 q 556 503 593 529 q 608 484 581 496 q 661 456 636 472 q 708 419 686 439 q 743 381 729 400 q 786 275 775 332 q 785 163 797 218 q 744 72 774 114 q 667 1 715 29 q 508 -48 592 -42 q 342 -36 425 -54 q 180 19 258 -18 q 39 104 101 56 z "},"C":{"ha":778,"x_min":144,"x_max":965,"o":"m 928 213 q 944 221 936 221 q 958 215 953 221 q 964 201 963 210 q 958 185 965 193 q 835 69 900 122 q 690 -19 769 17 q 582 -58 635 -44 q 468 -69 529 -72 q 359 -46 410 -68 q 269 13 308 -24 q 201 97 229 49 q 161 199 174 144 q 147 344 144 269 q 169 490 150 418 q 225 628 189 563 q 311 746 261 693 q 417 826 353 790 q 564 864 482 861 q 646 844 604 865 q 706 781 688 824 q 706 763 710 769 q 694 753 701 756 q 679 752 688 750 q 667 764 671 754 q 626 812 653 799 q 565 825 599 825 q 486 814 522 825 q 419 785 450 803 q 365 744 389 767 q 319 696 340 721 q 245 581 275 643 q 201 453 215 519 q 187 320 186 388 q 204 190 188 253 q 237 108 215 146 q 290 40 258 69 q 366 -7 322 11 q 467 -28 410 -25 q 573 -17 521 -31 q 674 18 625 -4 q 810 103 747 54 q 928 213 872 153 z "},"D":{"ha":767,"x_min":17,"x_max":847,"o":"m 33 96 q 28 126 17 111 q 58 129 39 140 q 184 58 121 89 q 319 7 247 26 q 432 -12 374 -7 q 546 -6 490 -17 q 687 61 633 14 q 769 172 740 108 q 802 310 797 235 q 796 464 807 386 q 772 582 788 522 q 722 690 756 642 q 631 778 682 750 q 521 810 579 807 q 419 794 469 813 q 319 742 368 776 q 287 422 300 581 q 249 103 274 264 q 226 85 242 85 q 207 106 210 86 q 231 281 219 193 q 250 460 242 369 q 265 605 257 533 q 279 751 274 676 q 291 769 279 760 q 318 789 303 779 q 351 808 333 799 q 381 821 368 817 q 540 847 464 854 q 624 828 583 844 q 706 775 665 811 q 781 674 751 733 q 826 547 810 614 q 844 410 842 479 q 842 283 847 342 q 818 173 836 229 q 760 76 800 117 q 574 -37 676 -11 q 353 -43 471 -64 q 186 10 264 -26 q 33 96 108 47 z "},"E":{"ha":778,"x_min":85,"x_max":965,"o":"m 107 478 q 90 484 96 478 q 85 497 85 490 q 90 511 85 504 q 107 519 96 518 l 167 519 q 174 554 169 538 q 182 589 178 571 q 194 638 186 610 q 211 696 203 667 q 228 753 219 725 q 242 801 236 781 q 260 816 243 810 q 300 826 278 822 q 345 834 322 831 q 382 839 368 838 q 547 851 457 846 q 724 854 638 857 q 743 834 743 850 q 725 813 743 818 q 585 813 654 815 q 446 804 517 810 q 406 801 429 803 q 358 796 382 799 q 314 788 335 793 q 281 778 293 783 q 239 652 257 718 q 208 519 221 586 q 312 520 258 519 q 419 522 365 521 q 522 525 472 524 q 615 528 572 526 q 635 508 635 524 q 618 486 636 493 q 522 483 574 485 q 417 481 471 482 q 308 478 363 479 q 201 478 253 478 q 188 347 192 424 q 204 190 185 269 q 238 107 215 146 q 293 39 260 68 q 368 -7 325 11 q 467 -28 411 -25 q 573 -17 521 -31 q 674 18 625 -4 q 810 103 747 54 q 928 213 872 153 q 944 221 936 221 q 958 215 953 221 q 964 201 963 210 q 958 185 965 193 q 835 69 900 122 q 690 -19 769 17 q 582 -58 635 -44 q 468 -69 529 -72 q 363 -47 411 -67 q 275 7 314 -26 q 204 92 233 43 q 161 199 175 142 q 147 335 144 268 q 160 478 150 403 l 107 478 l 107 478 z "},"F":{"ha":594,"x_min":-139,"x_max":774,"o":"m 250 411 l 347 411 q 319 248 339 328 q 257 106 299 168 q 185 41 225 61 q 93 32 146 21 q 78 26 83 31 q 72 14 74 21 q 75 1 71 7 q 88 -10 79 -6 q 165 -8 129 -18 q 232 23 201 1 q 285 76 263 44 q 324 143 308 107 q 366 274 351 207 q 388 413 381 342 q 518 415 454 414 q 656 419 582 417 q 673 442 674 426 q 653 461 672 457 q 519 457 582 458 q 390 454 456 456 q 394 506 393 481 q 396 558 394 532 q 399 666 397 611 q 393 774 400 721 q 370 790 386 792 q 351 769 354 789 q 358 665 358 717 q 356 561 358 613 q 353 508 354 536 q 350 453 353 481 l 250 453 q 233 444 239 451 q 228 431 228 438 q 233 417 228 424 q 250 411 239 411 m -107 514 q -122 622 -139 574 q -62 711 -106 671 q 8 762 -32 739 q 89 802 47 785 q 171 832 131 819 q 242 853 211 844 q 382 884 318 871 q 506 905 446 897 q 627 915 567 913 q 758 914 688 917 q 774 893 774 908 q 757 875 774 878 q 619 875 683 878 q 494 865 556 872 q 372 846 433 858 q 244 817 311 833 q 181 798 219 810 q 101 769 143 786 q 21 728 60 751 q -46 678 -18 706 q -85 612 -75 647 q -74 535 -96 576 q -81 510 -68 518 q -107 514 -93 503 z "},"G":{"ha":882,"x_min":144,"x_max":1068,"o":"m 774 71 q 690 -19 746 19 q 583 -60 638 -49 q 468 -69 529 -72 q 367 -49 414 -67 q 281 1 319 -31 q 206 89 236 38 q 161 199 175 140 q 146 340 144 268 q 167 482 147 411 q 223 624 186 557 q 311 746 260 692 q 417 826 353 790 q 564 864 482 861 q 646 844 604 865 q 706 781 688 824 q 706 763 710 769 q 694 753 701 756 q 679 752 688 750 q 667 764 671 754 q 626 812 653 799 q 565 825 599 825 q 486 814 522 825 q 419 785 450 803 q 365 744 389 767 q 319 696 340 721 q 250 592 279 647 q 206 476 221 536 q 186 331 186 404 q 204 190 186 258 q 290 51 226 114 q 369 -3 325 18 q 467 -28 414 -25 q 539 -25 501 -29 q 612 -8 576 -21 q 678 26 647 4 q 729 79 708 47 q 651 113 689 90 q 612 142 632 124 q 575 181 592 161 q 555 221 563 197 q 547 269 547 244 q 553 317 546 294 q 578 356 560 340 q 639 381 607 381 q 699 367 671 382 q 755 319 731 350 q 790 256 779 289 q 792 115 814 182 q 913 132 854 111 q 1031 213 982 157 q 1046 221 1038 221 q 1060 216 1054 221 q 1067 202 1065 211 q 1061 185 1068 193 q 1002 133 1036 156 q 929 94 968 110 q 852 73 892 79 q 774 71 813 67 m 703 133 q 726 126 714 129 q 750 119 738 122 q 763 186 760 150 q 748 253 764 219 q 708 310 732 286 q 665 337 689 329 q 621 333 642 344 q 590 283 592 314 q 604 222 589 253 q 647 169 619 193 q 703 133 674 144 z "},"H":{"ha":1047,"x_min":139,"x_max":1231,"o":"m 161 347 q 144 353 150 347 q 139 367 139 360 q 144 381 139 374 q 161 389 150 388 l 196 389 q 218 633 208 513 q 235 892 228 753 q 258 910 242 911 q 276 889 274 908 q 258 632 267 751 q 238 389 249 513 q 346 390 289 389 q 459 392 403 390 q 569 394 515 393 q 669 397 624 394 q 690 378 689 393 q 672 356 690 363 q 572 352 626 353 q 459 350 517 351 q 343 348 401 349 q 233 347 285 347 q 218 192 226 272 q 201 18 210 111 q 193 2 200 7 q 179 -3 186 -3 q 166 3 172 -3 q 160 22 160 10 q 176 193 168 114 q 192 347 185 272 l 161 347 m 1196 213 q 1212 220 1204 221 q 1224 214 1219 219 q 1230 200 1229 208 q 1222 183 1231 192 q 1197 153 1213 171 q 1163 117 1182 136 q 1121 77 1143 97 q 1074 40 1099 57 q 1028 13 1051 25 q 981 -4 1004 1 q 934 -7 957 -10 q 889 10 911 -4 q 821 76 846 36 q 778 164 796 117 q 736 329 749 240 q 723 475 725 400 q 724 624 721 550 q 735 767 728 697 q 751 899 743 836 q 776 911 761 915 q 790 888 790 907 q 775 756 782 824 q 765 620 768 689 q 763 483 761 551 q 774 350 764 415 q 817 179 786 257 q 946 33 868 47 q 1002 42 974 29 q 1058 76 1031 54 q 1099 112 1079 93 q 1138 149 1119 131 q 1170 185 1156 168 q 1196 213 1185 201 z "},"I":{"ha":519,"x_min":24,"x_max":490,"o":"m 50 851 q 27 869 31 853 q 42 892 24 885 q 239 912 140 904 q 438 926 338 919 q 457 910 451 924 q 470 802 464 856 q 481 694 476 749 q 489 531 488 613 q 483 363 490 450 q 471 274 481 321 q 444 181 461 226 q 402 97 426 136 q 344 29 378 57 q 267 -11 310 1 q 169 -12 224 -24 q 111 8 138 -6 q 58 38 85 22 q 53 67 42 53 q 83 71 64 82 q 128 45 106 57 q 176 29 150 33 q 294 45 247 17 q 372 126 342 74 q 413 219 397 171 q 436 319 428 267 q 449 507 451 411 q 439 690 446 603 q 430 787 435 739 q 418 883 425 835 q 234 869 326 876 q 50 851 142 863 z "},"J":{"ha":539,"x_min":-40,"x_max":508,"o":"m 56 854 q 39 860 44 854 q 33 874 33 867 q 38 888 33 882 q 54 896 43 894 q 246 914 150 906 q 438 932 342 922 q 457 915 451 929 q 488 726 474 829 q 506 514 501 622 q 506 374 508 443 q 493 238 503 304 q 465 113 483 172 q 418 1 447 53 q 325 -119 379 -68 q 196 -197 271 -169 q 114 -212 157 -210 q 19 -190 53 -215 q -27 -124 -14 -164 q -37 -37 -40 -85 q -19 56 -33 11 q 11 133 -7 97 q 53 204 29 168 q 81 210 67 218 q 88 182 94 201 q 45 108 67 150 q 12 20 24 65 q 3 -69 0 -25 q 33 -149 6 -112 q 77 -171 53 -167 q 125 -174 101 -175 q 203 -151 164 -171 q 276 -103 242 -132 q 338 -42 311 -75 q 382 22 365 -8 q 427 130 410 72 q 454 251 444 188 q 465 380 464 314 q 464 513 467 446 q 446 708 458 613 q 419 888 433 804 q 327 879 371 883 q 240 871 283 875 q 151 863 196 867 q 56 854 107 858 z "},"K":{"ha":1247,"x_min":0,"x_max":1435,"o":"m 940 781 q 968 776 958 789 q 967 749 978 764 q 744 578 857 661 q 518 411 631 494 q 582 271 543 339 q 673 148 621 203 q 790 53 725 93 q 933 -1 854 14 q 1019 -10 976 -10 q 1106 1 1063 -10 q 1190 36 1150 14 q 1265 87 1229 58 q 1333 147 1300 115 q 1397 213 1365 179 q 1414 221 1406 221 q 1427 215 1422 221 q 1433 201 1432 210 q 1428 185 1435 193 q 1287 54 1358 111 q 1119 -37 1215 -3 q 1024 -53 1075 -53 q 926 -43 972 -53 q 769 18 840 -25 q 641 122 697 61 q 543 258 585 183 q 475 413 501 332 q 482 436 472 426 q 713 607 597 524 q 940 781 828 690 m 189 764 q 160 770 169 757 q 165 797 151 783 q 209 824 183 810 q 265 858 235 839 q 331 899 297 878 q 396 935 364 921 q 415 918 410 932 q 428 806 422 864 q 439 694 435 749 q 447 531 446 613 q 442 363 449 450 q 429 274 439 321 q 402 181 419 226 q 360 97 385 136 q 302 29 336 57 q 225 -11 268 1 q 128 -12 182 -24 q 69 8 96 -6 q 17 38 43 22 q 11 67 0 53 q 42 71 22 82 q 86 45 64 57 q 135 29 108 33 q 253 45 206 17 q 331 126 300 74 q 357 181 346 153 q 376 240 368 210 q 398 350 392 293 q 406 465 404 407 q 404 579 407 522 q 397 690 401 636 q 388 787 393 739 q 376 883 383 835 q 315 844 344 864 q 249 800 285 824 q 220 783 235 792 q 189 764 206 774 z "},"L":{"ha":847,"x_min":56,"x_max":1031,"o":"m 725 928 q 736 908 736 921 q 731 894 736 900 q 715 888 725 888 q 706 890 714 888 q 657 906 682 901 q 606 910 632 910 q 497 876 542 910 q 421 783 453 842 q 369 656 389 728 q 335 507 349 583 q 311 354 321 431 q 292 214 301 278 q 283 161 288 190 q 271 100 278 132 q 306 88 289 94 q 340 74 324 82 q 477 17 408 39 q 615 -4 546 -4 q 813 54 719 -4 q 994 213 907 113 q 1011 219 1001 219 q 1031 200 1031 219 q 1025 185 1031 192 q 935 94 983 136 q 835 20 888 51 q 724 -29 782 -11 q 601 -47 665 -47 q 501 -34 550 -47 q 407 -4 453 -21 q 337 26 375 7 q 258 60 299 46 q 213 -16 242 15 q 135 -47 183 -47 q 79 -26 103 -47 q 56 22 56 -6 q 69 63 56 46 q 103 90 83 79 q 147 107 124 101 q 190 113 171 113 q 231 108 210 113 q 243 170 239 140 q 251 222 247 200 q 272 363 261 286 q 297 517 282 439 q 333 671 311 596 q 388 806 354 746 q 480 915 425 874 q 614 956 535 956 q 725 928 667 956 m 129 -6 q 184 17 163 -6 q 218 71 206 39 q 203 73 211 72 q 188 74 194 74 q 160 71 175 74 q 133 61 146 68 q 111 44 121 54 q 100 17 101 33 q 107 1 104 7 q 129 -6 110 -6 z "},"M":{"ha":1228,"x_min":60,"x_max":1411,"o":"m 101 -17 q 91 -31 99 -28 q 76 -33 83 -35 q 65 -26 69 -32 q 61 -8 60 -19 q 127 265 89 131 q 208 535 165 400 q 261 694 233 614 q 331 846 289 774 q 354 852 342 857 q 368 831 367 847 q 376 668 368 749 q 394 545 383 606 q 425 422 406 485 q 444 365 432 397 q 473 302 457 333 q 510 244 489 271 q 556 203 531 217 q 610 191 581 189 q 672 219 639 193 q 707 251 692 235 q 738 286 722 267 q 776 340 758 311 q 811 396 794 368 q 873 514 844 454 q 925 636 901 574 q 949 652 933 654 q 965 631 964 650 q 960 590 963 611 q 956 542 958 568 q 949 459 953 508 q 948 355 946 410 q 958 246 950 300 q 988 149 967 192 q 1044 82 1008 107 q 1135 61 1079 57 q 1214 85 1179 65 q 1256 110 1233 94 q 1294 139 1279 125 q 1338 177 1318 158 q 1372 213 1357 196 q 1387 219 1379 219 q 1401 216 1394 219 q 1409 206 1407 213 q 1407 190 1411 199 q 1376 157 1390 171 q 1349 131 1363 143 q 1321 108 1336 119 q 1288 82 1306 96 q 1238 50 1268 67 q 1185 28 1208 33 q 1133 19 1160 22 q 1082 21 1107 15 q 1003 61 1035 32 q 952 131 972 90 q 922 219 932 171 q 908 317 911 267 q 906 413 904 367 q 911 499 908 460 q 880 435 896 467 q 846 374 864 403 q 810 315 829 344 q 768 258 790 286 q 736 222 753 239 q 699 188 719 204 q 610 147 651 149 q 535 165 569 144 q 474 226 501 186 q 424 310 446 265 q 388 400 403 356 q 365 478 374 444 q 341 610 350 543 q 328 747 332 676 q 197 371 253 564 q 101 -17 142 178 z "},"N":{"ha":1089,"x_min":107,"x_max":990,"o":"m 149 -3 q 138 -17 146 -14 q 124 -19 131 -21 q 112 -12 117 -18 q 108 6 107 -6 q 159 234 132 119 q 221 461 186 349 q 299 682 256 574 q 400 893 343 790 q 422 901 411 904 q 438 885 432 899 q 479 626 457 754 q 540 371 501 497 q 574 260 554 321 q 624 147 594 200 q 694 59 653 94 q 790 24 735 24 q 879 61 850 24 q 926 158 908 99 q 945 274 942 213 q 944 398 949 335 q 928 522 939 461 q 903 638 917 583 q 905 654 900 647 q 917 663 910 661 q 931 662 924 665 q 943 649 939 658 q 982 400 974 525 q 967 150 990 275 q 951 103 963 129 q 928 58 940 78 q 871 3 903 21 q 794 -17 839 -14 q 735 -10 769 -18 q 662 31 700 -3 q 584 135 624 65 q 508 328 544 204 q 483 410 496 367 q 458 512 471 454 q 433 643 446 569 q 406 815 419 717 q 332 651 363 736 q 274 482 301 567 q 204 241 235 361 q 149 -3 174 121 z "},"O":{"ha":903,"x_min":99,"x_max":946,"o":"m 919 753 q 942 737 939 753 q 929 713 946 721 q 842 699 881 701 q 761 707 803 697 q 822 596 796 658 q 863 467 849 533 q 874 338 876 401 q 850 226 872 275 q 833 189 840 206 q 817 156 825 172 q 798 125 808 140 q 771 93 788 110 q 683 22 732 50 q 579 -20 633 -7 q 468 -33 525 -33 q 358 -17 411 -32 q 317 1 339 -11 q 275 27 296 13 q 235 58 254 42 q 204 89 217 74 q 120 254 142 163 q 113 442 99 346 q 174 624 126 538 q 299 764 221 710 q 435 826 361 808 q 583 838 508 843 q 598 828 593 835 q 602 813 603 821 q 595 801 601 806 q 578 796 589 796 q 392 767 481 803 q 243 653 304 731 q 169 499 193 588 q 153 322 144 411 q 202 158 161 235 q 325 40 243 82 q 465 6 392 7 q 604 31 538 4 q 733 113 676 58 q 813 242 789 167 q 831 366 831 300 q 815 497 831 432 q 767 622 799 563 q 693 724 736 681 q 694 749 686 739 q 718 757 701 760 q 817 740 769 739 q 919 753 865 742 z "},"P":{"ha":636,"x_min":51,"x_max":744,"o":"m 93 22 q 70 5 86 4 q 51 25 54 6 q 105 444 74 236 q 189 858 136 651 q 210 874 194 872 q 356 884 282 882 q 501 872 429 886 q 560 856 531 867 q 614 828 589 846 q 719 700 693 774 q 729 551 744 626 q 699 467 721 507 q 647 393 678 426 q 576 337 615 360 q 490 304 536 314 q 346 311 418 289 q 263 353 301 326 q 192 413 225 379 q 184 440 176 425 q 211 450 192 454 q 238 429 226 443 q 263 404 250 415 q 338 360 297 376 q 422 342 378 343 q 531 362 481 339 q 619 424 582 385 q 675 516 656 464 q 693 625 694 568 q 638 758 690 703 q 576 803 610 786 q 506 831 543 821 q 364 844 438 847 q 225 833 290 840 q 147 430 181 631 q 93 22 114 229 z "},"Q":{"ha":903,"x_min":99,"x_max":1094,"o":"m 919 753 q 942 737 939 753 q 929 713 946 721 q 842 699 881 701 q 761 707 803 697 q 822 596 796 658 q 863 467 849 533 q 874 338 876 401 q 850 226 872 275 q 833 189 840 206 q 817 156 825 172 q 798 125 808 140 q 771 93 788 110 q 689 26 735 54 q 841 39 768 7 q 981 138 914 71 q 1016 175 1000 157 q 1053 215 1032 193 q 1081 221 1067 229 q 1088 193 1094 213 q 1036 135 1058 157 q 986 85 1014 113 q 932 39 961 61 q 871 3 903 17 q 749 -22 807 -24 q 639 1 692 -19 q 500 -31 572 -26 q 358 -17 428 -36 q 317 1 339 -11 q 275 27 296 13 q 235 58 254 42 q 204 89 217 74 q 120 254 142 163 q 113 442 99 346 q 174 624 126 538 q 299 764 221 710 q 435 826 361 808 q 583 838 508 843 q 598 828 593 835 q 602 813 603 821 q 595 801 601 806 q 578 796 589 796 q 392 767 481 803 q 243 653 304 731 q 169 499 193 588 q 153 322 144 411 q 202 158 161 235 q 325 40 243 82 q 457 6 388 8 q 590 25 526 3 q 459 144 515 69 q 367 297 403 218 q 377 323 363 317 q 404 314 392 329 q 477 184 435 247 q 581 78 519 121 q 638 44 611 56 q 744 125 699 75 q 813 242 790 175 q 831 366 831 300 q 815 497 831 432 q 767 622 799 563 q 693 724 736 681 q 694 749 686 739 q 718 757 701 760 q 817 740 769 739 q 919 753 865 742 z "},"R":{"ha":903,"x_min":218,"x_max":1094,"o":"m 260 22 q 237 5 253 4 q 218 25 221 6 q 272 444 240 236 q 356 858 303 651 q 376 874 361 872 q 522 884 449 882 q 668 872 596 886 q 726 856 697 867 q 781 828 756 846 q 885 700 860 774 q 896 551 911 626 q 866 467 888 507 q 813 393 844 426 q 742 337 782 360 q 657 304 703 314 q 513 311 585 289 q 459 336 486 319 q 410 368 432 353 q 429 317 418 344 q 454 261 440 289 q 505 171 474 221 q 581 85 536 121 q 653 40 617 56 q 725 22 689 25 q 858 47 794 15 q 981 138 922 79 q 1016 175 1000 157 q 1053 215 1032 193 q 1081 221 1067 229 q 1088 193 1094 213 q 1036 135 1058 157 q 986 85 1014 113 q 932 39 961 61 q 871 3 903 17 q 663 -8 763 -42 q 488 125 564 24 q 350 425 399 239 q 356 448 347 440 q 375 450 364 456 q 404 429 392 443 q 429 404 417 415 q 504 360 464 376 q 589 342 544 343 q 698 362 647 339 q 785 424 749 385 q 842 516 822 464 q 860 625 861 568 q 804 758 857 703 q 743 803 776 786 q 672 831 710 821 q 531 844 604 847 q 392 833 457 840 q 314 430 347 631 q 260 22 281 229 z "},"S":{"ha":783,"x_min":90,"x_max":842,"o":"m 831 671 q 820 656 828 660 q 806 654 813 653 q 794 662 799 656 q 790 679 789 668 q 771 783 806 742 q 675 835 736 825 q 588 839 639 842 q 483 821 536 836 q 383 773 428 806 q 325 701 339 740 q 320 652 317 676 q 335 606 324 628 q 362 565 346 585 q 394 528 378 544 q 469 471 424 499 q 561 413 514 443 q 624 369 593 392 q 677 319 654 346 q 715 263 700 293 q 729 197 729 232 q 724 135 729 164 q 700 79 719 107 q 669 45 688 60 q 632 17 651 31 q 578 -13 607 -1 q 521 -35 550 -25 q 356 -62 438 -61 q 230 -55 290 -65 q 107 -28 169 -44 q 93 -16 96 -24 q 92 -1 90 -8 q 101 11 94 7 q 119 13 108 15 q 235 -13 178 -3 q 354 -21 292 -24 q 507 4 432 -18 q 581 34 547 17 q 638 75 614 51 q 688 177 683 118 q 631 306 692 236 q 550 373 596 346 q 461 429 504 400 q 385 483 425 453 q 318 553 346 513 q 281 635 290 592 q 292 726 271 679 q 360 804 311 771 q 468 857 408 838 q 585 881 526 876 q 688 875 644 886 q 756 848 725 865 q 808 805 788 831 q 835 746 828 779 q 831 671 842 713 z "},"T":{"ha":507,"x_min":-139,"x_max":774,"o":"m -107 514 q -122 622 -139 574 q -62 711 -106 671 q 8 762 -32 739 q 89 802 47 785 q 171 832 131 819 q 242 853 211 844 q 382 884 318 871 q 506 905 446 897 q 627 915 567 913 q 758 914 688 917 q 774 893 774 908 q 757 875 774 878 q 619 875 683 878 q 494 865 556 872 q 372 846 433 858 q 244 817 311 833 q 181 798 219 810 q 101 769 143 786 q 21 728 60 751 q -46 678 -18 706 q -85 612 -75 647 q -74 535 -96 576 q -81 510 -68 518 q -107 514 -93 503 m 351 769 q 358 665 358 717 q 356 561 358 613 q 350 447 354 508 q 335 326 346 386 q 306 208 325 265 q 257 106 288 151 q 185 41 225 61 q 93 32 146 21 q 78 26 83 31 q 72 14 74 21 q 75 1 71 7 q 88 -10 79 -6 q 165 -8 129 -18 q 232 23 201 1 q 285 76 263 44 q 324 143 308 107 q 380 347 367 240 q 396 558 393 454 q 399 666 397 611 q 393 774 400 721 q 370 790 386 792 q 351 769 354 789 z "},"U":{"ha":1014,"x_min":126,"x_max":1197,"o":"m 175 853 q 199 867 183 871 q 215 844 214 864 q 169 482 175 665 q 169 397 168 440 q 174 309 169 353 q 191 223 179 265 q 224 143 203 181 q 306 51 257 81 q 408 19 354 21 q 513 46 461 18 q 607 126 565 74 q 665 222 642 172 q 702 325 688 272 q 725 433 717 378 q 740 543 733 488 q 752 647 747 589 q 760 761 757 704 q 767 776 761 771 q 781 781 774 782 q 795 775 789 781 q 801 758 801 769 q 801 742 801 750 q 800 726 801 735 q 797 661 799 696 q 796 597 796 626 q 798 380 794 489 q 831 165 801 271 q 842 129 835 149 q 859 92 849 110 q 884 61 869 74 q 918 46 899 49 q 976 57 946 42 q 1025 86 1006 72 q 1096 146 1061 113 q 1160 214 1131 179 q 1176 222 1168 222 q 1190 217 1185 222 q 1196 203 1194 211 q 1190 186 1197 194 q 1130 118 1165 151 q 1072 67 1094 85 q 1035 41 1057 54 q 996 19 1013 28 q 909 3 946 -4 q 847 39 872 11 q 806 110 822 67 q 781 199 790 153 q 768 288 772 244 q 763 361 764 331 q 761 389 761 379 q 761 408 761 399 q 712 226 744 314 q 611 68 679 138 q 513 -1 567 22 q 403 -22 458 -24 q 297 8 347 -19 q 207 90 246 36 q 142 253 157 164 q 126 431 126 343 q 139 643 126 538 q 175 853 151 749 z "},"V":{"ha":689,"x_min":-21,"x_max":792,"o":"m -15 708 q 38 782 13 750 q 99 850 63 814 q 121 870 108 861 q 142 874 133 879 q 154 833 154 867 q 215 422 161 617 q 360 29 269 226 q 544 371 446 204 q 750 701 643 538 q 778 707 764 715 q 785 679 792 699 q 570 332 672 507 q 376 -29 468 157 q 357 -40 368 -40 q 339 -26 346 -39 q 188 379 249 172 q 113 806 126 586 q 65 748 88 778 q 19 686 42 718 q 5 676 13 678 q -9 678 -3 675 q -18 690 -15 682 q -15 708 -21 699 z "},"W":{"ha":1174,"x_min":33,"x_max":1131,"o":"m 1071 719 q 1090 740 1074 739 q 1113 724 1106 742 q 1128 576 1125 654 q 1122 418 1131 497 q 1093 264 1114 339 q 1038 125 1072 189 q 993 60 1019 92 q 972 35 983 47 q 946 14 961 24 q 879 -9 910 -8 q 823 5 849 -10 q 776 46 797 19 q 739 103 756 72 q 710 168 722 135 q 690 229 699 201 q 670 316 676 276 q 658 399 664 356 q 578 222 628 307 q 457 71 529 138 q 433 50 443 58 q 413 35 422 42 q 391 23 403 29 q 363 8 379 17 q 272 4 313 -15 q 201 64 231 24 q 156 154 172 104 q 135 242 139 204 q 131 398 126 322 q 151 547 136 474 q 190 692 167 619 q 246 840 214 765 q 204 828 229 836 q 154 809 179 819 q 107 787 129 799 q 72 763 85 775 q 45 763 57 751 q 42 790 33 774 q 90 822 60 807 q 153 851 119 838 q 219 874 186 864 q 278 889 251 883 q 300 883 293 892 q 301 860 307 874 q 239 717 267 793 q 194 562 211 642 q 171 401 176 482 q 176 246 165 321 q 189 181 181 215 q 213 118 197 147 q 253 67 229 89 q 311 40 276 46 q 369 58 342 43 q 421 93 396 74 q 501 177 465 128 q 565 281 538 226 q 613 392 593 336 q 644 494 633 447 q 664 510 651 510 q 683 494 676 510 l 686 496 q 685 490 685 494 q 694 413 689 460 q 710 313 700 365 q 735 209 719 261 q 775 115 751 157 q 819 57 794 82 q 875 29 843 32 q 923 49 901 33 q 963 85 944 64 q 994 131 981 107 q 1018 176 1008 156 q 1083 444 1072 301 q 1071 719 1094 586 z "},"X":{"ha":1064,"x_min":-11,"x_max":1246,"o":"m 667 790 q 683 799 675 799 q 697 793 692 799 q 703 779 701 788 q 697 763 704 771 q 583 603 639 683 q 475 440 528 524 q 498 410 486 425 q 522 379 510 394 q 585 301 550 344 q 660 215 619 257 q 748 135 701 172 q 844 76 794 97 q 945 51 893 54 q 1050 76 997 49 q 1135 137 1097 101 q 1208 213 1174 172 q 1225 221 1217 221 q 1238 215 1233 221 q 1244 201 1243 210 q 1239 185 1246 193 q 1185 126 1213 154 q 1124 74 1158 97 q 1053 33 1090 51 q 975 10 1017 14 q 829 35 900 1 q 696 124 758 69 q 581 241 633 178 q 488 356 528 304 q 469 380 478 368 q 451 404 461 392 q 304 164 375 285 q 163 -79 233 43 q 148 -89 156 -87 q 134 -87 140 -90 q 125 -75 128 -83 q 128 -57 122 -67 q 272 192 199 68 q 424 439 344 317 q 417 448 421 443 q 410 458 413 453 q 355 535 382 497 q 300 613 328 574 q 228 722 263 667 q 154 831 194 778 q 88 778 119 806 q 28 718 57 750 q 1 718 13 707 q -3 746 -11 729 q 68 817 31 782 q 149 875 106 851 q 179 868 168 883 q 194 847 186 857 q 210 825 203 836 q 272 731 240 778 q 335 636 303 683 q 390 559 363 597 q 444 482 417 521 q 449 476 446 479 q 555 635 501 557 q 667 790 608 714 z "},"Y":{"ha":661,"x_min":78,"x_max":733,"o":"m 82 867 q 90 882 83 878 q 103 886 96 886 q 116 881 110 886 q 124 864 122 875 q 124 776 119 822 q 140 687 128 731 q 174 603 153 643 q 226 532 196 563 q 315 474 264 493 q 433 468 367 456 q 449 472 442 469 q 464 476 457 474 q 494 571 479 529 q 533 661 510 613 q 548 692 539 674 q 568 732 557 711 q 593 774 579 753 q 622 813 607 796 q 667 847 643 836 q 714 849 690 858 q 726 833 724 843 q 732 792 733 814 q 724 749 731 771 q 709 706 718 726 q 693 668 700 685 q 646 576 674 619 q 582 499 618 532 q 542 468 563 482 q 497 444 521 454 q 444 226 465 336 q 399 8 422 117 q 388 -6 396 -3 q 374 -8 381 -10 q 362 -1 367 -7 q 358 17 357 6 q 381 126 369 71 q 406 235 393 182 q 424 315 415 279 q 443 393 432 350 q 451 429 447 417 q 447 428 449 429 q 442 428 444 428 q 310 433 368 414 q 207 494 251 453 q 145 572 171 528 q 104 665 119 615 q 83 766 89 714 q 82 867 78 818 m 550 597 q 531 549 539 574 q 514 500 522 525 q 568 544 542 518 q 618 609 596 574 q 656 683 640 644 q 667 711 660 694 q 681 746 674 728 q 694 790 690 771 q 688 810 697 810 q 658 793 674 810 q 626 750 643 776 q 583 670 603 714 q 550 597 563 626 z "},"Z":{"ha":993,"x_min":193,"x_max":1176,"o":"m 250 686 q 232 688 239 683 q 223 699 225 692 q 224 713 221 706 q 236 725 226 721 q 474 792 351 775 q 621 800 547 803 q 696 792 657 799 q 768 763 735 785 q 812 723 799 743 q 825 682 825 703 q 808 628 825 654 q 767 578 792 603 q 647 469 708 519 q 518 365 585 418 q 403 272 460 321 q 293 172 346 222 q 256 130 274 153 q 236 88 238 107 q 253 51 239 67 q 289 24 267 35 q 343 3 313 11 q 406 -11 374 -6 q 467 -19 438 -17 q 521 -22 497 -21 q 659 -22 592 -26 q 792 -3 726 -18 q 988 76 899 21 q 1139 213 1072 129 q 1156 221 1147 221 q 1169 215 1164 221 q 1175 201 1174 210 q 1169 185 1176 193 q 1008 40 1096 94 q 913 -9 963 11 q 810 -42 863 -29 q 640 -65 726 -61 q 463 -60 554 -68 q 384 -50 429 -57 q 297 -26 339 -43 q 226 18 256 -10 q 194 90 197 46 q 207 130 193 108 q 240 173 221 151 q 278 213 258 194 q 308 240 297 231 q 518 417 408 333 q 732 597 628 501 q 767 637 753 617 q 781 676 781 657 q 768 708 781 693 q 724 739 756 724 q 621 758 678 758 q 551 758 586 760 q 482 751 517 756 q 363 727 419 744 q 250 686 307 710 z "},"@":{"ha":738,"x_min":74,"x_max":682,"o":"m 488 371 q 472 347 488 351 q 447 360 457 343 q 393 418 429 411 q 321 399 358 425 q 265 340 289 378 q 239 276 246 310 q 247 218 232 243 q 300 205 268 197 q 361 236 332 213 q 408 281 388 256 q 440 321 428 307 q 464 327 451 332 q 478 306 476 322 q 472 250 467 272 q 492 219 476 228 q 526 219 506 213 q 569 250 546 225 q 619 327 604 286 q 622 426 633 368 q 602 474 618 453 q 563 511 586 496 q 461 547 518 543 q 347 538 403 553 q 244 492 292 524 q 184 438 211 468 q 140 367 157 407 q 118 271 121 319 q 153 135 114 186 q 217 81 178 100 q 300 54 256 61 q 360 50 329 50 q 422 56 392 50 q 506 78 467 63 q 579 118 546 94 q 607 114 597 126 q 606 86 617 101 q 524 42 568 60 q 431 17 479 25 q 263 21 343 1 q 185 53 221 32 q 124 107 149 74 q 87 180 100 139 q 76 274 74 221 q 85 329 78 301 q 103 382 92 357 q 151 463 121 426 q 219 525 181 499 q 337 578 272 561 q 467 589 401 594 q 530 575 499 586 q 589 544 561 564 q 642 490 621 522 q 668 417 664 457 q 575 200 682 279 q 523 174 547 179 q 479 176 499 169 q 431 250 438 194 q 386 208 411 229 q 324 175 358 186 q 261 168 290 164 q 208 200 228 174 q 199 281 188 226 q 239 369 210 326 q 303 433 267 408 q 353 458 326 450 q 403 461 379 467 q 451 434 429 456 q 488 371 472 413 z "},".":{"ha":456,"x_min":204,"x_max":274,"o":"m 204 60 q 214 83 204 74 q 239 92 224 92 q 264 83 254 92 q 274 60 274 74 q 264 37 274 46 q 239 28 254 28 q 214 37 224 28 q 204 60 204 46 z "},":":{"ha":456,"x_min":204,"x_max":274,"o":"m 204 60 q 214 83 204 74 q 239 92 224 92 q 264 83 254 92 q 274 60 274 74 q 264 37 274 46 q 239 28 254 28 q 214 37 224 28 q 204 60 204 46 m 204 379 q 214 402 204 393 q 239 411 224 411 q 264 402 254 411 q 274 379 274 393 q 264 356 274 365 q 239 347 254 347 q 214 356 224 347 q 204 379 204 365 z "},"*":{"ha":800,"x_min":206,"x_max":544,"o":"m 236 603 q 219 601 226 599 q 208 610 211 604 q 207 625 206 617 q 217 639 208 633 q 290 678 253 658 q 365 717 328 697 q 335 753 350 736 q 304 790 319 771 q 299 807 297 799 q 306 820 300 815 q 319 825 311 825 q 336 818 328 825 q 360 788 347 803 q 385 758 372 774 l 408 878 q 419 891 413 888 q 433 893 426 894 q 445 885 440 892 q 449 867 450 878 l 425 749 q 460 768 443 758 q 496 788 478 778 q 523 778 515 792 q 515 751 531 764 q 472 728 493 740 q 429 704 450 715 q 482 639 456 672 q 536 574 508 606 q 533 546 544 557 q 506 546 521 535 q 456 605 481 575 q 408 664 432 635 l 379 518 q 354 506 369 503 q 339 529 339 510 l 367 671 q 301 637 335 654 q 236 603 268 619 z "},",":{"ha":456,"x_min":167,"x_max":329,"o":"m 225 35 q 208 41 214 35 q 203 55 203 47 q 208 69 203 63 q 224 76 213 75 l 310 76 q 329 53 329 72 q 292 -89 329 -22 q 200 -204 256 -156 q 183 -209 192 -211 q 171 -201 175 -207 q 167 -187 167 -196 q 174 -172 167 -179 q 286 35 267 -90 l 225 35 l 225 35 z "},";":{"ha":456,"x_min":167,"x_max":329,"o":"m 225 35 q 208 41 214 35 q 203 55 203 47 q 208 69 203 63 q 224 76 213 75 l 310 76 q 329 53 329 72 q 292 -89 329 -22 q 200 -204 256 -156 q 183 -209 192 -211 q 171 -201 175 -207 q 167 -187 167 -196 q 174 -172 167 -179 q 286 35 267 -90 l 225 35 m 204 379 q 214 402 204 393 q 239 411 224 411 q 264 402 254 411 q 274 379 274 393 q 264 356 274 365 q 239 347 254 347 q 214 356 224 347 q 204 379 204 365 z "},"'":{"ha":456,"x_min":167,"x_max":329,"o":"m 225 924 q 208 930 214 924 q 203 944 203 936 q 208 958 203 951 q 224 965 213 964 l 310 965 q 329 942 329 961 q 292 800 329 867 q 200 685 256 733 q 183 680 192 678 q 171 688 175 682 q 167 701 167 693 q 174 717 167 710 q 286 924 267 799 l 225 924 l 225 924 z "},"!":{"ha":456,"x_min":204,"x_max":299,"o":"m 257 903 q 265 918 258 913 q 278 923 271 924 q 292 917 286 922 q 299 900 299 911 q 282 564 290 732 q 265 228 274 396 q 242 210 258 210 q 224 231 226 211 q 240 566 232 399 q 257 903 249 733 m 204 60 q 214 83 204 74 q 239 92 224 92 q 264 83 254 92 q 274 60 274 74 q 264 37 274 46 q 239 28 254 28 q 214 37 224 28 q 204 60 204 46 z "},"\"":{"ha":592,"x_min":167,"x_max":510,"o":"m 225 924 q 208 930 214 924 q 203 944 203 936 q 208 958 203 951 q 224 965 213 964 l 310 965 q 329 942 329 961 q 292 800 329 867 q 200 685 256 733 q 183 680 192 678 q 171 688 175 682 q 167 701 167 693 q 174 717 167 710 q 286 924 267 799 l 225 924 m 406 924 q 389 930 394 924 q 383 944 383 936 q 388 958 383 951 q 404 965 393 964 l 490 965 q 510 942 510 961 q 473 800 510 867 q 381 685 436 733 q 364 680 372 678 q 351 688 356 682 q 347 701 347 693 q 354 717 347 710 q 467 924 447 799 l 406 924 z "},"#":{"ha":964,"x_min":217,"x_max":832,"o":"m 303 435 q 286 441 292 435 q 281 455 281 447 q 285 469 281 463 q 301 476 290 475 q 358 477 329 476 q 417 479 388 478 q 433 542 425 511 q 451 604 442 572 q 475 619 460 622 q 492 596 490 615 q 475 538 483 567 q 458 481 467 510 q 561 483 510 482 q 664 486 613 485 l 697 619 q 721 634 706 638 q 738 611 736 631 q 723 549 731 579 q 708 488 715 518 q 760 488 735 488 q 813 490 786 489 q 832 470 832 486 q 814 449 832 454 q 756 447 785 447 q 697 446 726 447 q 678 368 688 406 q 660 290 669 331 q 726 292 693 292 q 793 293 760 292 q 813 273 813 289 q 794 251 813 257 q 722 250 758 250 q 649 249 685 250 q 636 196 642 222 q 624 142 631 169 q 613 127 621 131 q 599 125 606 124 q 587 133 592 126 q 583 150 582 139 q 594 199 589 174 q 607 249 600 224 q 501 247 554 247 q 394 246 447 247 q 376 180 386 213 q 358 115 367 147 q 348 101 356 104 q 333 99 340 97 q 322 106 326 100 q 318 124 317 113 l 351 244 q 295 244 324 244 q 239 243 267 243 q 222 249 228 243 q 217 263 217 256 q 222 277 217 271 q 238 285 226 283 q 300 285 269 285 q 363 286 331 286 q 383 362 374 324 q 404 438 393 400 q 353 435 379 436 q 303 435 328 435 m 406 288 q 511 289 458 289 q 617 290 564 289 q 635 367 626 329 q 653 444 643 406 q 551 441 601 442 q 447 438 500 440 l 406 288 z "},"$":{"ha":783,"x_min":90,"x_max":842,"o":"m 831 671 q 820 656 828 660 q 806 654 813 653 q 794 662 799 656 q 790 679 789 668 q 771 783 806 742 q 675 835 736 825 q 612 839 647 839 q 538 832 576 839 q 507 649 522 740 q 476 465 492 557 q 517 439 496 451 q 561 413 539 426 q 624 369 593 392 q 677 319 654 346 q 715 263 700 293 q 729 197 729 232 q 724 135 729 164 q 700 79 719 107 q 669 45 688 60 q 632 17 651 31 q 578 -13 607 -1 q 521 -35 550 -25 q 455 -51 488 -44 q 389 -61 422 -58 l 376 -136 q 366 -151 374 -147 q 351 -153 358 -154 q 340 -145 344 -151 q 336 -128 335 -139 q 341 -94 339 -111 q 346 -62 343 -78 q 225 -53 283 -64 q 107 -28 167 -43 q 93 -16 96 -24 q 92 -1 90 -8 q 101 11 94 7 q 119 13 108 15 q 234 -13 178 -3 q 353 -21 290 -24 q 392 214 372 97 q 432 449 413 331 q 371 495 401 469 q 318 553 340 521 q 281 635 290 592 q 292 726 271 679 q 360 804 311 771 q 468 857 408 838 l 501 865 q 508 902 504 885 q 514 939 511 919 q 538 953 522 957 q 554 931 553 950 q 549 903 551 917 q 544 875 547 889 q 622 882 585 882 q 688 875 658 882 q 756 848 725 865 q 808 805 788 831 q 835 746 828 779 q 831 671 842 713 m 469 424 q 433 203 450 313 q 396 -18 415 93 q 451 -10 424 -15 q 507 4 479 -4 q 581 34 547 17 q 638 75 614 51 q 688 177 683 118 q 631 306 692 236 q 553 369 597 343 q 469 424 510 396 m 439 490 q 466 657 453 574 q 494 824 479 740 q 483 821 486 821 q 383 773 428 806 q 325 701 339 740 q 320 652 317 676 q 335 606 324 628 q 362 565 346 585 q 394 528 378 544 q 439 490 411 511 z "},"&":{"ha":750,"x_min":138,"x_max":1090,"o":"m 903 215 q 919 224 911 224 q 933 218 928 224 q 939 204 938 213 q 933 188 940 196 q 868 124 900 154 q 804 68 836 94 q 868 29 832 49 q 925 -4 901 8 q 970 -28 949 -17 q 1017 -51 992 -39 q 1078 -81 1042 -62 q 1089 -94 1088 -86 q 1087 -109 1090 -103 q 1076 -119 1083 -115 q 1058 -118 1068 -122 q 997 -88 1022 -100 q 950 -65 972 -76 q 904 -41 928 -54 q 846 -7 881 -28 q 807 17 826 4 q 768 42 788 29 q 621 -33 699 -7 q 440 -58 543 -60 q 322 -32 381 -58 q 221 38 264 -6 q 158 140 178 82 q 156 261 138 197 q 225 386 175 333 q 333 483 275 439 q 308 540 319 510 q 284 637 290 585 q 289 725 278 689 q 304 760 294 742 q 325 790 314 778 q 395 844 356 828 q 474 863 435 861 q 526 853 501 863 q 569 825 551 844 q 594 776 586 806 q 596 706 601 746 q 559 627 589 663 q 500 564 529 592 q 449 522 478 543 q 390 476 421 500 q 459 376 419 425 q 540 285 499 328 q 624 205 582 242 q 701 142 665 168 q 733 117 717 129 q 768 93 750 104 q 835 150 801 119 q 903 215 868 181 m 474 -17 q 615 8 553 -14 q 733 67 678 31 q 704 88 718 78 q 676 108 690 97 q 608 165 639 138 q 542 225 576 193 q 494 274 518 249 q 447 324 469 299 q 399 383 424 351 q 354 449 375 414 q 253 358 299 407 q 196 253 207 310 q 204 140 183 190 q 266 53 225 89 q 362 -1 307 18 q 474 -17 417 -19 m 349 567 q 358 539 353 553 q 371 511 364 525 q 400 533 386 522 q 428 556 414 544 q 470 592 447 572 q 512 633 493 611 q 544 681 531 656 q 557 733 557 706 q 534 802 558 782 q 475 822 510 822 q 394 797 435 822 q 358 761 371 782 q 332 717 344 740 q 328 646 321 688 q 349 567 335 604 z "},"":{"ha":760,"x_min":86,"x_max":738,"o":"m 128 -94 q 118 -110 125 -106 q 103 -112 111 -114 q 91 -103 96 -110 q 88 -86 86 -97 q 126 109 107 13 q 167 303 146 206 q 199 451 182 378 q 239 596 217 524 q 267 683 251 639 q 306 767 282 728 q 338 816 321 792 q 381 864 354 840 q 424 892 400 882 q 468 906 449 903 q 567 889 524 911 q 625 831 604 869 q 650 749 646 793 q 628 644 654 692 q 557 565 601 597 q 548 558 553 563 q 538 549 543 553 q 585 528 563 542 q 629 496 607 515 q 701 401 675 456 q 732 289 726 347 q 725 176 738 232 q 679 72 713 119 q 618 15 653 36 q 539 -17 583 -7 q 442 -18 490 -28 q 360 25 394 -8 q 354 40 353 32 q 361 53 356 47 q 375 59 367 58 q 390 54 383 60 q 456 21 418 26 q 532 25 493 15 q 597 51 567 33 q 644 94 626 69 q 681 172 669 129 q 692 261 693 215 q 669 371 689 318 q 611 461 649 424 q 550 503 585 488 q 474 518 515 518 l 471 518 q 458 520 464 518 q 449 533 451 522 q 465 558 444 550 q 515 584 492 569 q 557 618 538 599 q 592 669 579 642 q 608 731 606 697 q 591 811 611 778 q 538 860 571 844 q 474 867 508 872 q 407 832 440 861 q 371 791 388 814 q 340 744 354 768 q 306 668 321 708 q 279 588 292 628 q 240 442 257 514 q 207 294 222 369 q 167 100 186 197 q 128 -94 147 3 z "},"":{"ha":778,"x_min":85,"x_max":965,"o":"m 928 213 q 944 221 936 221 q 958 215 953 221 q 964 201 963 210 q 958 185 965 193 q 835 69 900 122 q 690 -19 769 17 q 582 -58 635 -44 q 468 -69 529 -72 q 359 -46 410 -68 q 269 13 308 -24 q 201 97 229 49 q 161 199 174 144 q 147 344 144 269 q 169 490 150 418 q 225 628 189 563 q 311 746 261 693 q 417 826 353 790 q 564 864 482 861 q 646 844 604 865 q 706 781 688 824 q 706 763 710 769 q 694 753 701 756 q 679 752 688 750 q 667 764 671 754 q 626 812 653 799 q 565 825 599 825 q 486 814 522 825 q 419 785 450 803 q 365 744 389 767 q 319 696 340 721 q 245 581 275 643 q 201 453 215 519 q 187 320 186 388 q 204 190 188 253 q 237 108 215 146 q 290 40 258 69 q 366 -7 322 11 q 467 -28 410 -25 q 573 -17 521 -31 q 674 18 625 -4 q 810 103 747 54 q 928 213 872 153 m 119 483 q 103 490 108 483 q 97 503 97 496 q 103 517 97 510 q 119 525 108 524 q 240 526 174 525 q 374 528 306 526 q 508 530 442 529 q 628 533 574 531 q 648 514 647 529 q 631 492 649 499 q 510 488 576 489 q 375 486 443 488 q 240 484 307 485 q 119 483 174 483 m 107 336 q 90 342 96 336 q 85 356 85 349 q 90 369 85 363 q 107 378 96 376 q 227 378 161 378 q 361 381 293 379 q 495 383 429 382 q 615 386 561 383 q 635 367 635 382 q 618 344 636 351 q 497 341 564 342 q 363 339 431 340 q 228 337 294 338 q 107 336 161 336 z "},"?":{"ha":664,"x_min":32,"x_max":654,"o":"m 74 714 q 51 697 67 696 q 32 717 35 697 q 44 793 32 757 q 79 860 57 829 q 138 918 104 893 q 213 960 172 943 q 338 985 272 983 q 461 965 403 988 q 521 933 493 953 q 572 888 549 913 q 603 848 589 869 q 626 803 618 826 q 649 705 644 750 q 636 611 654 660 q 599 547 625 581 q 550 489 574 513 q 490 433 522 461 q 426 372 457 404 q 374 302 394 340 q 357 218 354 264 q 351 201 357 207 q 338 194 346 194 q 324 198 331 193 q 315 214 317 203 q 331 306 313 267 q 381 382 349 346 q 433 435 404 410 q 490 488 463 461 q 549 548 522 517 q 590 617 575 579 q 606 687 604 649 q 593 771 607 725 q 565 832 582 806 q 525 879 549 858 q 458 922 494 906 q 381 944 421 939 q 306 943 343 949 q 233 925 269 938 q 167 892 197 913 q 115 842 138 871 q 74 714 74 788 m 315 60 q 325 83 315 74 q 350 92 335 92 q 375 83 365 92 q 385 60 385 74 q 375 37 385 46 q 350 28 365 28 q 325 37 335 28 q 315 60 315 46 z "},"-":{"ha":953,"x_min":292,"x_max":843,"o":"m 314 296 q 297 302 303 296 q 292 315 292 308 q 297 329 292 322 q 314 338 303 336 q 434 338 368 338 q 568 340 500 339 q 702 342 636 342 q 822 346 768 343 q 842 326 842 342 q 825 304 843 311 q 704 301 771 301 q 569 299 638 300 q 435 297 501 297 q 314 296 368 296 z "},"=":{"ha":1011,"x_min":292,"x_max":844,"o":"m 315 376 q 299 383 304 376 q 293 396 293 389 q 299 410 293 403 q 315 418 304 417 q 435 419 369 418 q 569 421 501 419 q 703 423 638 422 q 824 426 769 424 q 844 407 843 422 q 826 385 844 392 q 706 381 772 382 q 571 379 639 381 q 436 377 503 378 q 315 376 369 376 m 314 213 q 297 219 303 213 q 292 232 292 225 q 297 246 292 239 q 314 254 303 253 q 434 255 368 254 q 568 257 500 256 q 702 259 636 258 q 822 263 768 260 q 842 243 842 258 q 825 221 843 228 q 704 217 771 218 q 569 215 638 217 q 435 213 501 214 q 314 213 368 213 z "},"+":{"ha":936,"x_min":292,"x_max":843,"o":"m 592 68 q 585 51 592 57 q 572 46 579 46 q 558 51 565 46 q 550 68 551 57 q 549 176 549 117 q 547 297 549 235 q 424 296 485 296 q 314 296 364 296 q 297 302 303 296 q 292 315 292 308 q 297 329 292 322 q 314 338 303 336 q 424 338 364 338 q 547 339 483 338 q 545 464 546 403 q 542 576 544 525 q 561 597 546 596 q 583 579 576 597 q 587 465 586 526 q 589 340 588 404 q 712 342 651 342 q 822 346 772 343 q 842 326 842 342 q 825 304 843 311 q 713 301 774 301 q 589 299 653 300 q 590 176 590 236 q 592 68 590 117 z "},"":{"ha":456,"x_min":154,"x_max":317,"o":"m 258 710 q 275 703 269 710 q 281 690 281 697 q 276 676 281 682 q 260 668 271 669 l 174 668 q 154 692 154 672 q 191 833 154 767 q 283 949 228 900 q 300 953 292 954 q 313 946 308 951 q 317 932 317 940 q 310 917 317 924 q 197 710 217 835 l 258 710 l 258 710 z "},"":{"ha":456,"x_min":167,"x_max":329,"o":"m 225 924 q 208 930 214 924 q 203 944 203 936 q 208 958 203 951 q 224 965 213 964 l 310 965 q 329 942 329 961 q 292 800 329 867 q 200 685 256 733 q 183 680 192 678 q 171 688 175 682 q 167 701 167 693 q 174 717 167 710 q 286 924 267 799 l 225 924 l 225 924 z "},"":{"ha":561,"x_min":154,"x_max":497,"o":"m 258 710 q 275 703 269 710 q 281 690 281 697 q 276 676 281 682 q 260 668 271 669 l 174 668 q 154 692 154 672 q 191 833 154 767 q 283 949 228 900 q 300 953 292 954 q 313 946 308 951 q 317 932 317 940 q 310 917 317 924 q 197 710 217 835 l 258 710 m 439 710 q 456 703 450 710 q 461 690 461 697 q 456 676 461 682 q 440 668 451 669 l 354 668 q 335 692 335 672 q 372 833 335 767 q 464 949 408 900 q 481 953 472 954 q 493 946 489 951 q 497 932 497 940 q 490 917 497 924 q 378 710 397 835 l 439 710 z "},"":{"ha":592,"x_min":167,"x_max":510,"o":"m 225 924 q 208 930 214 924 q 203 944 203 936 q 208 958 203 951 q 224 965 213 964 l 310 965 q 329 942 329 961 q 292 800 329 867 q 200 685 256 733 q 183 680 192 678 q 171 688 175 682 q 167 701 167 693 q 174 717 167 710 q 286 924 267 799 l 225 924 m 406 924 q 389 930 394 924 q 383 944 383 936 q 388 958 383 951 q 404 965 393 964 l 490 965 q 510 942 510 961 q 473 800 510 867 q 381 685 436 733 q 364 680 372 678 q 351 688 356 682 q 347 701 347 693 q 354 717 347 710 q 467 924 447 799 l 406 924 z "},"/":{"ha":689,"x_min":164,"x_max":719,"o":"m 678 954 q 706 960 692 968 q 713 932 719 951 q 458 443 585 686 q 204 -46 332 200 q 190 -56 197 -54 q 176 -53 182 -57 q 167 -42 169 -50 q 169 -24 164 -33 q 424 465 297 222 q 678 954 550 708 z "},"(":{"ha":672,"x_min":282,"x_max":622,"o":"m 585 908 q 613 904 603 917 q 611 876 622 892 q 426 634 496 774 q 340 343 356 494 q 365 53 325 196 q 508 -207 404 -90 q 515 -224 515 -215 q 508 -237 514 -232 q 494 -242 503 -242 q 478 -236 486 -243 q 324 44 365 -110 q 300 354 282 197 q 390 656 318 511 q 585 908 463 800 z "},")":{"ha":672,"x_min":183,"x_max":524,"o":"m 221 908 q 415 656 343 800 q 506 354 488 511 q 482 44 524 197 q 328 -236 440 -110 q 311 -242 319 -243 q 297 -237 303 -242 q 291 -224 292 -232 q 297 -207 290 -215 q 441 53 401 -90 q 465 343 481 196 q 380 634 450 494 q 194 876 310 774 q 193 904 183 892 q 221 908 203 917 z "},"<":{"ha":825,"x_min":336,"x_max":760,"o":"m 726 600 q 744 601 736 604 q 756 592 753 599 q 758 578 760 586 q 747 564 757 569 q 574 481 663 522 q 401 392 485 440 q 452 355 425 372 q 504 321 479 338 q 572 274 544 293 q 624 239 600 256 q 674 206 649 222 q 733 165 699 189 q 735 138 744 150 q 708 132 726 125 q 649 172 674 156 q 599 206 624 189 q 547 241 575 222 q 479 288 519 260 q 417 331 450 308 q 356 376 383 353 q 354 411 336 393 q 538 510 442 465 q 726 600 635 556 z "},">":{"ha":825,"x_min":286,"x_max":710,"o":"m 319 600 q 508 510 411 556 q 692 411 604 465 q 690 376 710 393 q 629 331 663 353 q 567 288 596 308 q 499 241 526 260 q 447 206 471 222 q 397 172 422 189 q 338 132 372 156 q 310 138 319 125 q 313 165 301 150 q 372 206 347 189 q 422 239 397 222 q 474 274 446 256 q 542 321 501 293 q 594 355 567 338 q 644 392 621 372 q 472 481 561 440 q 299 564 383 522 q 288 578 289 569 q 290 592 286 586 q 301 601 293 599 q 319 600 310 604 z "},"":{"ha":1014,"x_min":201,"x_max":840,"o":"m 800 828 q 828 827 815 838 q 831 800 840 817 q 674 604 744 692 q 534 433 603 517 q 394 261 465 349 q 238 65 324 174 q 222 58 229 57 q 208 63 214 58 q 202 76 203 68 q 208 93 201 85 q 365 290 294 201 q 504 461 436 378 q 643 632 572 544 q 800 828 714 719 z "},"\\":{"ha":689,"x_min":46,"x_max":601,"o":"m 88 954 q 342 465 215 708 q 596 -24 468 222 q 599 -42 601 -33 q 590 -53 596 -50 q 575 -56 583 -57 q 561 -46 567 -54 q 307 443 433 200 q 53 932 181 686 q 60 960 46 951 q 88 954 74 968 z "},"[":{"ha":675,"x_min":271,"x_max":590,"o":"m 571 1010 q 590 990 590 1006 q 572 968 590 974 q 489 966 531 967 q 406 963 447 965 l 314 -125 q 412 -120 363 -122 q 510 -115 461 -118 q 529 -135 529 -119 q 511 -157 529 -151 q 403 -162 457 -160 q 294 -168 349 -165 q 271 -147 275 -167 q 318 417 294 136 q 365 983 342 699 q 388 1004 368 1003 q 479 1007 433 1006 q 571 1010 525 1008 z "},"]":{"ha":675,"x_min":165,"x_max":485,"o":"m 185 -168 q 165 -148 165 -164 q 183 -126 165 -132 q 267 -124 225 -125 q 350 -121 308 -124 l 442 967 q 344 962 393 964 q 246 957 294 960 q 226 977 226 961 q 244 999 226 993 q 353 1004 299 1001 q 461 1010 407 1007 q 485 989 481 1008 q 438 424 461 706 q 390 -142 414 143 q 368 -162 388 -161 q 276 -165 322 -164 q 185 -168 231 -167 z "},"_":{"ha":892,"x_min":167,"x_max":893,"o":"m 189 -54 q 172 -48 178 -54 q 167 -35 167 -42 q 172 -21 167 -28 q 189 -12 178 -14 q 280 -12 225 -12 q 399 -10 335 -11 q 531 -9 463 -10 q 663 -8 599 -8 q 781 -6 726 -7 q 872 -3 836 -4 q 892 -22 892 -7 q 875 -44 893 -37 q 784 -47 839 -46 q 665 -49 729 -49 q 532 -51 600 -50 q 399 -52 464 -51 q 280 -53 335 -53 q 189 -54 225 -54 z "},"|":{"ha":731,"x_min":354,"x_max":432,"o":"m 390 1017 q 398 1032 392 1026 q 412 1037 404 1038 q 426 1031 419 1036 q 432 1014 432 1025 q 414 404 422 707 q 396 -206 406 101 q 373 -223 389 -224 q 354 -203 357 -222 q 372 406 364 103 q 390 1017 381 710 z "},"{":{"ha":725,"x_min":256,"x_max":665,"o":"m 658 868 q 665 851 665 860 q 658 838 664 843 q 644 833 653 833 q 628 839 636 832 q 570 888 601 871 q 508 901 539 904 q 456 878 481 899 q 417 817 432 857 q 398 702 397 767 q 398 573 399 638 q 383 452 397 508 q 319 363 368 396 l 321 363 q 365 293 351 332 q 382 213 379 254 q 379 128 385 171 q 365 47 374 86 q 340 -41 354 1 q 328 -132 326 -83 q 367 -251 329 -219 q 436 -267 394 -276 q 526 -214 478 -258 q 554 -218 544 -206 q 553 -246 564 -231 q 515 -275 535 -261 q 472 -299 496 -289 q 447 -306 463 -301 q 419 -311 431 -310 q 372 -306 392 -314 q 338 -285 353 -299 q 304 -233 315 -264 q 289 -168 293 -203 q 287 -100 285 -133 q 296 -40 289 -67 q 310 8 301 -15 q 325 56 318 32 q 335 113 332 83 q 340 172 339 143 q 333 256 342 217 q 293 331 325 296 q 280 339 286 335 q 267 346 274 343 q 258 367 256 356 q 272 383 260 378 q 329 434 313 400 q 351 510 346 468 q 356 591 357 550 q 356 672 356 632 q 359 752 356 713 q 378 831 363 792 q 423 903 394 876 q 485 938 451 929 q 574 931 528 949 q 658 868 621 913 z "},"}":{"ha":725,"x_min":138,"x_max":547,"o":"m 144 -229 q 138 -212 138 -221 q 144 -199 139 -204 q 158 -194 150 -194 q 175 -200 167 -193 q 233 -249 201 -232 q 294 -262 264 -265 q 347 -239 322 -260 q 386 -178 371 -218 q 405 -63 406 -128 q 405 66 404 1 q 420 187 406 131 q 483 276 435 243 l 482 276 q 438 345 451 307 q 421 425 424 383 q 424 510 418 467 q 438 592 429 553 q 463 680 449 638 q 475 771 476 722 q 436 890 474 858 q 367 906 408 915 q 276 853 325 897 q 249 857 258 844 q 250 885 239 869 q 288 914 268 900 q 331 938 307 928 q 356 944 340 940 q 383 950 372 949 q 431 945 411 953 q 465 924 450 938 q 499 872 488 903 q 514 807 510 842 q 515 739 518 772 q 507 679 513 706 q 493 631 501 654 q 478 583 485 607 q 467 526 471 556 q 463 467 464 496 q 469 383 461 422 q 510 308 478 343 q 523 300 517 304 q 536 293 529 296 q 545 272 547 283 q 531 256 543 261 q 474 205 490 239 q 451 129 457 171 q 447 48 446 89 q 447 -33 447 7 q 443 -113 447 -74 q 425 -192 439 -153 q 380 -264 408 -237 q 318 -299 351 -290 q 228 -292 275 -310 q 144 -229 182 -274 z "},"e":{"ha":664,"x_min":126,"x_max":849,"o":"m 500 222 q 431 182 471 196 q 346 164 390 168 q 257 163 301 160 q 175 175 213 167 q 172 160 172 168 q 169 146 171 153 q 174 82 164 113 q 207 28 185 51 q 261 -9 229 6 q 331 -26 293 -24 q 533 4 432 -36 q 673 85 604 32 q 811 213 742 138 q 826 221 818 221 q 840 216 835 221 q 847 202 846 211 q 842 185 849 193 q 738 86 789 131 q 633 10 686 42 q 494 -52 565 -32 q 338 -67 422 -72 q 233 -41 275 -62 q 167 13 192 -19 q 135 79 143 43 q 131 151 126 115 q 179 278 139 219 q 274 379 219 336 q 299 398 286 389 q 325 414 311 407 q 376 437 347 426 q 433 451 404 447 q 490 448 463 454 q 539 421 517 442 q 569 370 564 397 q 565 316 574 343 q 539 265 557 289 q 500 222 521 240 m 346 378 q 256 308 297 350 q 190 215 214 267 q 263 204 225 207 q 338 206 300 201 q 410 222 375 210 q 474 254 444 233 q 501 281 488 264 q 522 317 515 299 q 528 356 529 336 q 510 390 526 375 q 472 409 493 406 q 428 409 450 413 q 384 397 406 406 q 346 378 363 388 z "},"t":{"ha":444,"x_min":63,"x_max":633,"o":"m 244 822 q 254 835 247 832 q 269 836 261 838 q 281 828 276 835 q 285 814 286 822 q 255 700 271 761 q 224 572 239 639 q 210 503 217 538 l 267 525 q 456 597 360 561 q 480 585 475 600 q 469 558 485 569 q 281 486 375 522 q 200 454 240 471 q 199 439 200 447 q 185 308 188 372 q 185 224 182 264 q 197 147 188 183 q 244 63 213 89 q 313 35 275 36 q 379 47 344 33 q 449 83 414 61 q 527 146 490 111 q 589 210 564 181 q 618 215 603 225 q 622 186 633 206 q 556 115 593 150 q 478 53 519 81 q 394 8 439 26 q 283 -6 336 -14 q 211 30 242 1 q 165 104 181 58 q 143 300 139 190 q 156 436 144 367 l 156 438 l 92 414 q 74 415 81 411 q 65 426 67 419 q 65 441 63 433 q 78 453 68 449 q 163 485 121 468 q 182 575 172 531 q 214 706 197 643 q 244 822 231 769 z "},"":{"ha":754,"x_min":144,"x_max":940,"o":"m 564 339 q 558 323 564 328 q 543 319 551 318 q 528 325 535 319 q 522 342 522 331 q 501 400 522 381 q 449 422 481 419 q 408 201 428 311 q 368 -18 388 92 q 463 -24 415 -26 q 554 -15 511 -22 q 658 19 610 -4 q 749 74 707 43 q 829 140 792 104 q 903 213 867 176 q 919 221 911 221 q 933 216 928 221 q 940 202 939 211 q 933 185 940 193 q 855 110 896 147 q 768 40 814 72 q 670 -17 722 7 q 558 -53 618 -42 q 463 -62 514 -61 q 361 -56 411 -64 q 353 -96 357 -75 q 346 -136 349 -117 q 335 -151 343 -147 q 321 -153 328 -154 q 309 -145 314 -151 q 306 -128 304 -139 q 313 -87 308 -107 q 319 -47 317 -67 q 213 9 258 -29 q 151 118 167 47 q 146 191 144 154 q 161 263 147 228 q 244 384 188 332 q 371 456 300 436 q 414 464 390 461 q 426 529 421 496 q 439 594 432 563 q 463 609 447 613 q 479 586 478 606 q 467 524 472 554 q 456 464 463 494 q 533 428 503 458 q 564 339 564 397 m 326 -10 q 367 206 346 99 q 407 421 388 313 l 382 417 q 272 353 319 399 q 200 249 224 308 q 188 185 189 218 q 193 122 186 153 q 242 35 207 67 q 326 -10 278 4 z "},"":{"ha":847,"x_min":56,"x_max":1031,"o":"m 122 418 q 106 424 111 418 q 100 438 100 431 q 106 451 100 444 q 122 460 111 458 l 256 460 q 252 556 253 508 q 253 651 251 604 q 265 781 256 719 q 300 886 275 842 q 356 944 321 925 q 431 967 390 964 q 561 942 496 971 q 651 872 610 921 q 653 850 658 861 q 642 838 650 842 q 626 839 635 835 q 618 846 624 840 q 580 879 601 865 q 535 904 558 893 q 481 922 507 915 q 431 925 454 928 q 342 861 374 918 q 310 772 321 824 q 297 661 300 721 q 294 562 294 613 q 296 461 294 511 q 472 464 383 463 q 631 468 560 465 q 651 449 650 464 q 633 426 651 433 q 474 422 563 424 q 299 419 386 421 q 299 308 300 361 q 292 214 299 256 q 283 161 288 190 q 271 100 278 132 q 306 88 289 94 q 340 74 324 82 q 477 17 408 39 q 615 -4 546 -4 q 813 54 719 -4 q 994 213 907 113 q 1011 219 1001 219 q 1031 200 1031 219 q 1025 185 1031 192 q 935 94 983 136 q 835 20 888 51 q 724 -29 782 -11 q 601 -47 665 -47 q 501 -34 550 -47 q 407 -4 453 -21 q 337 26 375 7 q 258 60 299 46 q 213 -16 242 15 q 135 -47 183 -47 q 79 -26 103 -47 q 56 22 56 -6 q 69 63 56 46 q 103 90 83 79 q 147 107 124 101 q 190 113 171 113 q 231 108 210 113 q 243 170 239 140 q 251 222 247 200 q 258 312 258 263 q 257 418 258 361 l 122 418 m 129 -6 q 184 17 163 -6 q 218 71 206 39 q 203 73 211 72 q 188 74 194 74 q 160 71 175 74 q 133 61 146 68 q 111 44 121 54 q 100 17 101 33 q 107 1 104 7 q 129 -6 110 -6 z "},"":{"ha":842,"x_min":164,"x_max":783,"o":"m 226 371 q 264 497 229 443 q 222 527 243 513 q 181 557 201 542 q 175 587 164 572 q 206 590 186 601 q 249 560 228 575 q 292 531 269 546 q 382 586 329 568 q 477 596 429 601 q 565 567 525 590 q 596 546 581 557 q 624 519 611 535 l 746 619 q 774 615 764 628 q 772 588 783 603 l 649 488 q 673 431 664 461 q 679 368 682 400 q 655 274 675 315 q 603 203 635 233 q 658 160 631 182 q 714 115 686 138 q 716 88 725 100 q 689 82 707 75 q 629 129 658 106 q 569 176 600 153 l 568 176 q 554 169 561 172 q 540 163 547 165 q 428 142 488 139 q 319 183 369 146 q 282 141 300 163 q 244 99 264 119 q 217 99 229 88 q 214 126 206 110 q 251 168 232 147 q 289 211 269 189 q 269 235 278 222 q 238 300 247 265 q 226 371 229 335 m 268 368 q 288 288 272 326 q 344 219 304 249 q 421 186 381 192 q 499 192 461 181 q 597 256 557 208 q 638 371 638 304 q 606 473 638 429 q 528 539 575 517 q 436 556 485 558 q 343 521 388 553 q 288 453 304 493 q 268 368 272 414 z "},"":{"ha":731,"x_min":78,"x_max":733,"o":"m 228 271 q 211 277 217 271 q 206 290 206 283 q 211 304 206 297 q 228 313 217 311 q 326 313 278 313 q 424 315 375 314 q 432 353 428 335 q 443 393 436 372 q 451 429 447 417 q 447 428 449 429 q 442 428 444 428 q 310 433 368 414 q 207 494 251 453 q 145 572 171 528 q 104 665 119 615 q 83 766 89 714 q 82 867 78 818 q 90 882 83 878 q 103 886 96 886 q 116 881 110 886 q 124 864 122 875 q 124 776 119 822 q 140 687 128 731 q 174 603 153 643 q 226 532 196 563 q 315 474 264 493 q 433 468 367 456 q 449 472 442 469 q 464 476 457 474 q 494 571 479 529 q 533 661 510 613 q 548 692 539 674 q 568 732 557 711 q 593 774 579 753 q 622 813 607 796 q 667 847 643 836 q 714 849 690 858 q 726 833 724 843 q 732 792 733 814 q 724 749 731 771 q 709 706 718 726 q 693 668 700 685 q 646 576 674 619 q 582 499 618 532 q 542 468 563 482 q 497 444 521 454 q 464 317 479 385 q 556 319 510 318 q 651 324 603 321 q 672 304 671 319 q 654 282 672 289 q 553 278 603 279 q 454 275 503 276 q 446 240 450 257 q 439 204 442 222 q 542 207 490 206 q 649 211 594 208 q 669 192 668 207 q 651 169 669 176 q 539 165 593 167 q 429 161 485 164 q 415 84 422 122 q 399 8 407 46 q 388 -6 396 -3 q 374 -8 381 -10 q 362 -1 367 -7 q 358 17 357 6 q 373 89 365 53 q 389 161 381 125 q 308 159 349 160 q 225 158 267 158 q 208 165 214 158 q 203 178 203 171 q 208 192 203 185 q 225 200 214 199 q 312 201 269 200 q 397 203 354 201 q 401 219 400 211 q 406 235 403 226 q 410 255 408 246 q 414 274 411 264 q 322 272 368 272 q 228 271 276 271 m 550 597 q 531 549 539 574 q 514 500 522 525 q 568 544 542 518 q 618 609 596 574 q 656 683 640 644 q 667 711 660 694 q 681 746 674 728 q 694 790 690 771 q 688 810 697 810 q 658 793 674 810 q 626 750 643 776 q 583 670 603 714 q 550 597 563 626 z "},"":{"ha":664,"x_min":38,"x_max":660,"o":"m 618 -247 q 641 -230 625 -229 q 660 -250 657 -231 q 647 -326 660 -290 q 613 -393 635 -362 q 553 -451 588 -426 q 479 -493 519 -476 q 354 -519 419 -517 q 231 -499 289 -521 q 171 -466 199 -486 q 119 -421 143 -446 q 88 -381 103 -403 q 65 -336 74 -360 q 42 -238 47 -283 q 56 -144 38 -193 q 92 -80 67 -114 q 142 -22 118 -46 q 202 34 169 6 q 265 94 235 63 q 317 165 297 126 q 335 249 338 203 q 340 266 335 260 q 353 273 346 272 q 367 269 361 274 q 376 253 374 264 q 361 160 379 200 q 311 85 343 121 q 258 31 288 57 q 201 -21 229 6 q 143 -81 169 -50 q 101 -150 117 -112 q 86 -220 88 -182 q 99 -304 85 -258 q 126 -365 110 -339 q 167 -412 143 -392 q 234 -456 197 -439 q 311 -478 271 -472 q 385 -476 349 -482 q 458 -458 422 -471 q 524 -425 494 -446 q 576 -375 554 -404 q 618 -247 618 -321 m 376 407 q 367 384 376 393 q 342 375 357 375 q 317 384 326 375 q 307 407 307 393 q 317 430 307 421 q 342 439 326 439 q 367 430 357 439 q 376 407 376 421 z "},"":{"ha":456,"x_min":204,"x_max":299,"o":"m 246 -418 q 238 -434 244 -429 q 224 -438 231 -439 q 210 -432 217 -437 q 204 -415 204 -426 q 221 -79 213 -247 q 238 257 229 89 q 260 274 244 275 q 279 254 276 274 q 263 -81 271 86 q 246 -418 254 -249 m 299 425 q 289 402 299 411 q 264 393 279 393 q 239 402 249 393 q 229 425 229 411 q 239 448 229 439 q 264 457 249 457 q 289 448 279 457 q 299 425 299 439 z "},"":{"ha":610,"x_min":243,"x_max":479,"o":"m 243 614 q 253 637 243 628 q 278 646 263 646 q 303 637 293 646 q 313 614 313 628 q 303 591 313 600 q 278 582 293 582 q 253 591 263 582 q 243 614 243 600 m 410 614 q 419 637 410 628 q 444 646 429 646 q 469 637 460 646 q 479 614 479 628 q 469 591 479 600 q 444 582 460 582 q 419 591 429 582 q 410 614 410 600 z "},"":{"ha":775,"x_min":331,"x_max":610,"o":"m 364 503 q 338 512 346 497 q 343 539 331 526 q 407 583 379 564 q 460 619 435 601 q 513 656 486 638 q 576 699 540 675 q 594 700 586 703 q 606 691 603 697 q 608 676 610 685 q 597 663 607 668 q 534 620 561 639 q 481 583 507 601 q 428 547 456 565 q 364 503 400 528 z "},"":{"ha":783,"x_min":121,"x_max":971,"o":"m 364 503 q 338 512 346 497 q 343 539 331 526 q 407 583 379 564 q 460 619 435 601 q 513 656 486 638 q 576 699 540 675 q 594 700 586 703 q 606 691 603 697 q 608 676 610 685 q 597 663 607 668 q 534 620 561 639 q 481 583 507 601 q 428 547 456 565 q 364 503 400 528 m 597 306 q 594 286 600 293 q 582 278 589 279 q 567 283 575 278 q 558 299 560 288 q 517 377 547 350 q 442 407 486 404 q 339 378 393 410 q 238 282 285 346 q 185 193 207 242 q 163 93 163 144 q 199 15 163 39 q 285 6 235 -8 q 360 40 324 17 q 428 93 396 64 q 488 155 460 122 q 540 218 515 188 q 565 226 550 231 q 578 203 579 222 q 572 165 575 188 q 567 124 568 143 q 571 63 564 90 q 593 20 578 36 q 633 1 608 4 q 692 15 657 -1 q 754 53 721 29 q 819 106 788 78 q 881 161 851 133 q 933 213 910 189 q 950 221 942 221 q 963 215 958 221 q 969 201 968 210 q 964 185 971 193 q 902 126 936 157 q 831 65 868 94 q 753 9 793 35 q 676 -31 714 -17 q 609 -36 638 -44 q 562 -6 581 -28 q 534 49 543 17 q 525 113 525 81 l 525 135 q 474 79 501 107 q 416 28 446 51 q 355 -12 386 4 q 293 -35 324 -29 q 257 -41 271 -39 q 224 -40 243 -43 q 143 6 165 -32 q 122 94 121 44 q 142 195 124 144 q 182 278 160 246 q 234 342 204 311 q 297 397 264 374 q 367 435 331 421 q 440 449 404 449 q 506 434 478 449 q 554 398 535 419 q 584 351 574 376 q 597 306 594 326 z "},"":{"ha":610,"x_min":143,"x_max":796,"o":"m 176 183 q 160 178 168 176 q 147 187 151 181 q 143 201 143 193 q 150 217 143 210 q 199 272 176 244 q 243 322 222 299 q 274 332 258 338 q 285 320 281 329 q 290 299 290 311 q 364 63 297 128 q 488 29 411 17 q 571 56 533 38 q 640 99 608 74 q 701 153 672 124 q 758 213 731 182 q 774 221 765 221 q 788 216 782 221 q 794 202 793 211 q 789 185 796 193 q 724 117 756 149 q 657 59 692 85 q 584 15 622 33 q 501 -10 546 -3 q 403 -8 451 -18 q 319 46 356 3 q 275 129 293 78 q 250 261 257 181 l 176 183 m 200 431 q 174 440 182 425 q 179 467 167 454 q 243 510 215 492 q 297 547 271 529 q 349 584 322 565 q 413 626 376 603 q 431 628 422 631 q 442 619 439 625 q 444 604 446 613 q 433 590 443 596 q 370 548 397 567 q 317 511 343 529 q 264 474 292 493 q 200 431 236 456 z "},"":{"ha":664,"x_min":126,"x_max":849,"o":"m 500 222 q 431 182 471 196 q 346 164 390 168 q 257 163 301 160 q 175 175 213 167 q 172 160 172 168 q 169 146 171 153 q 174 82 164 113 q 207 28 185 51 q 261 -9 229 6 q 331 -26 293 -24 q 576 24 460 -37 q 811 213 693 86 q 826 221 818 221 q 840 216 835 221 q 847 202 846 211 q 842 185 849 193 q 723 74 781 122 q 604 -8 665 25 q 478 -56 543 -40 q 338 -67 413 -71 q 236 -42 278 -62 q 169 9 194 -22 q 135 77 144 40 q 131 151 126 114 q 153 232 136 193 q 197 304 171 271 q 256 365 224 338 q 325 414 289 393 q 376 437 347 426 q 433 451 404 447 q 490 448 463 454 q 539 421 517 442 q 569 370 564 397 q 565 316 574 343 q 539 265 557 289 q 500 222 521 240 m 346 378 q 256 308 297 350 q 190 215 214 267 q 263 204 225 207 q 338 206 300 201 q 410 222 375 210 q 474 254 444 233 q 501 281 488 264 q 522 317 515 299 q 528 356 529 336 q 510 390 526 375 q 472 409 493 406 q 428 409 450 413 q 384 397 406 406 q 346 378 363 388 m 361 503 q 335 512 343 497 q 340 539 328 526 q 404 583 376 564 q 458 619 432 601 q 510 656 483 638 q 574 699 538 675 q 592 700 583 703 q 603 691 600 697 q 606 676 607 685 q 594 663 604 668 q 531 620 558 639 q 478 583 504 601 q 425 547 453 565 q 361 503 397 528 z "},"":{"ha":839,"x_min":149,"x_max":1022,"o":"m 338 503 q 312 512 319 497 q 317 539 304 526 q 381 583 353 564 q 434 619 408 601 q 487 656 460 638 q 550 699 514 675 q 568 700 560 703 q 580 691 576 697 q 582 676 583 685 q 571 663 581 668 q 508 620 535 639 q 455 583 481 601 q 401 547 429 565 q 338 503 374 528 m 990 215 q 1004 221 996 222 q 1017 214 1013 219 q 1022 199 1022 208 q 1013 181 1022 190 q 867 81 953 113 q 783 60 826 65 q 693 60 739 54 q 577 87 635 67 q 454 156 519 107 q 407 203 431 174 q 368 267 383 232 q 351 324 356 294 q 353 379 346 353 q 376 428 360 410 q 413 454 392 447 q 499 453 451 468 q 571 413 539 440 q 650 307 625 367 q 669 144 685 228 q 626 40 658 88 q 536 -39 594 -8 q 470 -62 504 -56 q 403 -67 436 -69 q 274 -28 331 -62 q 184 61 219 6 q 149 189 149 117 q 171 290 149 243 q 231 376 193 336 q 247 385 239 385 q 260 379 256 385 q 267 365 265 374 q 261 349 268 357 q 210 276 229 315 q 190 189 190 238 q 214 92 190 135 q 275 21 238 49 q 352 -17 310 -6 q 438 -25 394 -29 q 507 -7 474 -22 q 569 36 540 8 q 610 90 596 61 q 631 151 625 119 q 624 250 638 200 q 579 342 611 300 q 543 380 565 361 q 497 411 521 399 q 440 424 468 426 q 397 386 413 421 q 395 328 390 358 q 415 271 400 299 q 456 213 432 239 q 507 169 481 186 q 591 126 547 143 q 682 103 635 110 q 750 100 715 99 q 821 110 785 101 q 908 147 861 119 q 990 215 954 175 z "},"":{"ha":1044,"x_min":139,"x_max":1228,"o":"m 414 475 q 388 484 396 469 q 393 511 381 499 q 457 555 429 536 q 510 592 485 574 q 563 628 536 610 q 626 671 590 647 q 644 672 636 675 q 656 663 653 669 q 658 649 660 657 q 647 635 657 640 q 584 592 611 611 q 531 556 557 574 q 478 519 506 538 q 414 475 450 500 m 178 182 q 151 182 163 171 q 147 210 139 193 q 201 272 175 242 q 257 332 228 303 q 281 338 268 343 q 294 317 293 333 q 301 220 294 267 q 325 131 307 174 q 352 77 336 103 q 396 31 368 51 q 447 6 419 13 q 496 0 474 0 q 560 21 532 0 q 608 69 588 42 q 653 155 636 107 q 679 244 669 203 q 685 289 682 264 q 693 333 689 314 q 701 347 694 343 q 715 348 708 350 q 728 340 722 346 q 733 325 733 335 q 737 265 733 297 q 749 199 740 232 q 770 134 757 165 q 803 78 783 103 q 849 36 822 53 q 908 17 875 19 q 960 23 933 14 q 1013 47 986 32 q 1065 85 1039 64 q 1115 130 1092 107 q 1157 175 1138 153 q 1192 214 1176 197 q 1208 222 1200 222 q 1221 217 1215 222 q 1227 203 1226 211 q 1221 186 1228 194 q 1156 112 1192 150 q 1078 43 1119 74 q 994 -7 1038 13 q 907 -24 951 -26 q 832 -1 871 -21 q 771 49 793 18 q 738 103 750 76 q 719 153 726 129 q 714 170 717 161 q 708 189 711 179 q 678 99 697 143 q 625 22 658 56 q 553 -24 593 -10 q 471 -36 513 -39 q 394 -16 431 -33 q 331 33 358 1 q 282 121 300 71 q 263 194 268 157 q 254 268 257 232 q 216 226 235 247 q 178 182 197 204 z "},"":{"ha":947,"x_min":144,"x_max":1133,"o":"m 433 503 q 408 512 415 497 q 413 539 400 526 q 476 583 449 564 q 530 619 504 601 q 583 656 556 638 q 646 699 610 675 q 664 700 656 703 q 676 691 672 697 q 678 676 679 685 q 667 663 676 668 q 603 620 631 639 q 551 583 576 601 q 497 547 525 565 q 433 503 469 528 m 178 183 q 161 178 169 176 q 149 187 153 181 q 144 201 144 193 q 151 217 144 210 q 205 274 181 244 q 250 326 229 303 q 276 335 263 342 q 292 299 290 328 q 354 74 299 140 q 489 29 404 15 q 572 55 535 38 q 638 96 608 72 q 692 147 668 119 q 736 201 717 174 q 766 216 747 218 q 788 194 785 214 q 790 70 796 132 q 771 -53 783 8 q 858 -5 818 -31 q 931 49 897 21 q 1022 133 982 90 q 1096 213 1061 176 q 1113 221 1104 221 q 1126 216 1121 221 q 1132 203 1131 211 q 1126 186 1133 194 q 1044 100 1089 143 q 950 17 1000 57 q 817 -71 888 -33 q 788 -85 801 -78 q 760 -100 774 -93 q 757 -115 758 -107 q 754 -129 756 -122 q 709 -272 736 -204 q 638 -403 682 -340 q 602 -448 621 -426 q 560 -490 583 -469 q 504 -523 532 -518 q 457 -515 476 -528 q 419 -435 424 -493 q 446 -307 415 -367 q 482 -254 461 -278 q 528 -210 503 -231 q 623 -137 572 -171 q 725 -76 674 -104 q 744 38 738 -18 q 750 144 750 93 l 742 136 q 726 119 733 128 q 707 101 718 110 q 615 30 663 58 q 503 -10 568 1 q 408 -9 454 -18 q 326 40 363 0 q 278 126 299 72 q 251 264 258 179 l 178 183 m 510 -476 q 548 -446 529 -462 q 582 -410 567 -429 q 662 -279 631 -351 q 714 -126 693 -207 q 650 -167 681 -146 q 586 -215 619 -187 q 515 -276 547 -247 q 468 -346 483 -306 q 457 -386 461 -364 q 456 -431 453 -408 q 510 -476 467 -503 z "},"":{"ha":836,"x_min":331,"x_max":774,"o":"m 364 503 q 338 512 346 497 q 343 539 331 526 q 407 583 379 564 q 460 619 435 601 q 513 656 486 638 q 576 699 540 675 q 594 700 586 703 q 606 691 603 697 q 608 676 610 685 q 597 663 607 668 q 534 620 561 639 q 481 583 507 601 q 428 547 456 565 q 364 503 400 528 m 528 503 q 502 512 510 497 q 507 539 494 526 q 571 583 543 564 q 624 619 599 601 q 677 656 650 638 q 740 699 704 675 q 758 700 750 703 q 770 691 767 697 q 772 676 774 685 q 761 663 771 668 q 698 620 725 639 q 645 583 671 601 q 592 547 619 565 q 528 503 564 528 z "},"":{"ha":747,"x_min":308,"x_max":549,"o":"m 308 581 q 326 644 311 615 q 369 692 340 672 q 442 707 403 714 q 479 693 461 704 q 513 667 497 682 q 539 624 529 647 q 547 578 549 601 q 525 506 546 535 q 453 458 499 465 q 368 474 407 450 q 328 515 344 489 q 308 581 311 542 m 350 578 q 362 538 353 556 q 393 504 371 521 q 428 497 413 497 q 463 504 443 497 q 501 561 492 526 q 499 612 508 586 q 463 657 489 638 q 427 664 443 664 q 392 657 411 664 q 362 622 371 640 q 350 578 353 604 z "},"":{"ha":783,"x_min":119,"x_max":971,"o":"m 597 306 q 594 286 600 293 q 582 278 589 279 q 567 283 575 278 q 558 299 560 288 q 517 377 547 350 q 442 407 486 404 q 339 378 393 410 q 238 282 285 346 q 185 193 207 242 q 163 93 163 144 q 199 15 163 39 q 285 6 235 -8 q 360 40 324 17 q 428 93 396 64 q 488 155 460 122 q 540 218 515 188 q 565 226 550 231 q 578 203 579 222 q 572 165 575 188 q 567 124 568 143 q 571 63 564 90 q 593 20 578 36 q 633 1 608 4 q 692 15 657 -1 q 765 61 726 32 q 839 122 803 90 q 890 169 867 146 q 933 213 914 193 q 950 221 942 221 q 963 215 958 221 q 969 201 968 210 q 964 185 971 193 q 912 134 940 161 q 851 81 883 107 q 765 16 810 46 q 676 -31 721 -14 q 609 -36 638 -44 q 562 -6 581 -28 q 534 49 543 17 q 525 113 525 81 l 525 135 q 474 79 501 107 q 416 28 446 51 q 355 -12 386 4 q 293 -35 324 -29 q 257 -41 271 -39 q 224 -40 243 -43 q 163 -17 186 -35 q 130 25 140 0 q 119 80 119 50 q 126 142 119 110 q 171 252 140 197 q 231 339 201 307 q 329 418 275 386 q 440 449 383 450 q 506 434 478 449 q 554 398 535 419 q 584 351 574 376 q 597 306 594 326 m 322 574 q 340 637 325 608 q 383 685 354 665 q 456 700 417 707 q 493 686 475 697 q 526 660 511 675 q 553 617 543 640 q 561 571 563 594 q 539 499 560 528 q 467 451 513 458 q 382 467 421 443 q 342 508 358 482 q 322 574 325 535 m 364 571 q 376 531 367 549 q 407 497 385 514 q 442 490 426 490 q 476 497 457 490 q 515 554 506 519 q 513 605 522 579 q 476 650 503 631 q 441 657 457 657 q 406 650 425 657 q 376 615 385 633 q 364 571 367 597 z "},"":{"ha":1157,"x_min":347,"x_max":618,"o":"m 406 49 q 422 57 414 57 q 435 51 431 57 q 442 38 440 46 q 436 21 443 29 q 412 -15 421 6 q 397 -60 403 -36 q 400 -158 386 -114 q 446 -199 419 -187 q 513 -203 478 -214 q 585 -169 549 -192 q 603 -168 594 -165 q 615 -177 611 -171 q 617 -192 618 -183 q 606 -206 615 -200 q 526 -241 565 -229 q 439 -242 488 -253 q 372 -194 394 -232 q 351 -131 354 -167 q 354 -58 347 -94 q 374 1 361 -26 q 406 49 386 29 z "},"":{"ha":783,"x_min":269,"x_max":657,"o":"m 279 663 q 281 691 269 679 q 310 692 293 703 q 382 616 346 654 q 454 540 418 578 q 538 601 496 571 q 619 663 579 632 q 647 658 638 671 q 646 631 657 646 q 556 564 601 597 q 465 497 511 531 q 435 499 450 488 q 279 663 357 582 z "},"":{"ha":839,"x_min":242,"x_max":603,"o":"m 244 665 q 247 682 242 675 q 258 691 251 689 q 273 690 265 693 q 285 676 281 686 q 319 620 296 643 q 372 586 343 597 q 445 579 407 574 q 515 611 483 585 q 541 633 528 621 q 561 658 554 644 q 574 671 565 668 q 588 671 582 674 q 599 660 594 668 q 599 643 603 653 q 574 608 589 624 q 542 579 558 593 q 457 540 501 547 q 371 543 413 532 q 295 585 329 554 q 244 665 261 617 z "},"":{"ha":610,"x_min":243,"x_max":313,"o":"m 243 503 q 253 526 243 517 q 278 535 263 535 q 303 526 293 535 q 313 503 313 517 q 303 480 313 489 q 278 471 293 471 q 253 480 263 471 q 243 503 243 489 z "},"":{"ha":610,"x_min":143,"x_max":796,"o":"m 176 183 q 160 178 168 176 q 147 187 151 181 q 143 201 143 193 q 150 217 143 210 q 199 272 176 244 q 243 322 222 299 q 274 332 258 338 q 285 320 281 329 q 290 299 290 311 q 364 63 297 128 q 488 29 411 17 q 571 56 533 38 q 640 99 608 74 q 701 153 672 124 q 758 213 731 182 q 774 221 765 221 q 788 216 782 221 q 794 202 793 211 q 789 185 796 193 q 724 117 756 149 q 657 59 692 85 q 584 15 622 33 q 501 -10 546 -3 q 403 -8 451 -18 q 319 46 356 3 q 275 129 293 78 q 250 261 257 181 l 176 183 l 176 183 z "},"":{"ha":847,"x_min":56,"x_max":1031,"o":"m 725 928 q 736 908 736 921 q 731 894 736 900 q 715 888 725 888 q 706 890 714 888 q 657 906 682 901 q 606 910 632 910 q 497 876 542 910 q 421 783 453 842 q 362 628 383 717 q 325 447 340 539 q 407 465 365 456 q 497 488 449 475 q 520 472 517 488 q 508 447 524 457 q 408 423 453 433 q 318 403 363 413 q 305 305 311 353 q 292 214 299 257 q 283 161 288 190 q 271 100 278 132 q 306 88 289 94 q 340 74 324 82 q 477 17 408 39 q 615 -4 546 -4 q 813 54 719 -4 q 994 213 907 113 q 1011 219 1001 219 q 1031 200 1031 219 q 1025 185 1031 192 q 935 94 983 136 q 835 20 888 51 q 724 -29 782 -11 q 601 -47 665 -47 q 501 -34 550 -47 q 407 -4 453 -21 q 337 26 375 7 q 258 60 299 46 q 213 -16 242 15 q 135 -47 183 -47 q 79 -26 103 -47 q 56 22 56 -6 q 69 63 56 46 q 103 90 83 79 q 147 107 124 101 q 190 113 171 113 q 231 108 210 113 q 243 170 239 140 q 251 222 247 200 q 263 305 257 261 q 275 394 268 349 q 209 381 243 388 q 136 367 175 374 q 119 369 125 364 q 111 381 113 374 q 113 396 110 389 q 128 407 117 403 q 209 424 172 415 q 282 439 246 432 q 322 633 297 536 q 388 806 346 731 q 480 915 425 874 q 614 956 535 956 q 725 928 667 956 m 129 -6 q 184 17 163 -6 q 218 71 206 39 q 203 73 211 72 q 188 74 194 74 q 160 71 175 74 q 133 61 146 68 q 111 44 121 54 q 100 17 101 33 q 107 1 104 7 q 129 -6 110 -6 z "},"":{"ha":688,"x_min":110,"x_max":869,"o":"m 136 367 q 133 366 133 367 q 131 365 132 365 q 115 372 119 365 q 110 385 110 378 q 119 401 110 394 q 141 410 128 407 q 169 416 154 414 q 193 421 183 418 q 218 601 199 506 q 272 776 238 696 q 358 910 306 857 q 464 963 411 963 q 516 932 501 963 q 531 858 531 901 q 518 740 531 796 q 486 635 506 683 q 442 544 467 586 q 396 464 418 501 q 444 475 419 469 q 497 488 469 481 q 515 481 508 488 q 521 467 521 475 q 501 447 521 456 q 455 432 481 439 q 403 420 429 425 q 364 413 376 415 q 308 338 338 374 q 247 263 278 301 q 343 78 272 136 q 508 19 414 19 q 599 34 554 19 q 683 75 643 49 q 762 136 724 101 q 833 213 800 171 q 851 221 842 221 q 869 201 869 221 q 857 174 869 190 q 826 138 844 157 q 789 102 808 119 q 756 74 769 85 q 638 3 700 29 q 508 -22 575 -22 q 417 -8 461 -22 q 336 35 374 6 q 267 110 299 64 q 214 224 236 157 q 187 192 203 210 q 158 175 171 175 q 146 181 151 175 q 140 196 140 188 q 147 212 140 201 q 165 233 154 222 q 185 255 175 244 q 203 274 196 265 q 197 325 197 300 q 193 378 196 350 q 165 372 179 375 q 136 367 151 369 m 413 581 q 444 651 431 615 q 468 724 458 688 q 483 783 475 746 q 490 854 490 819 q 483 901 490 878 q 457 924 476 924 q 413 904 442 924 q 347 832 383 885 q 288 716 311 779 q 253 585 265 653 q 235 428 240 517 q 288 440 263 435 q 339 450 313 444 q 378 514 360 482 q 413 581 397 546 m 244 322 q 275 362 260 342 q 306 401 290 382 q 270 393 288 397 q 235 386 253 389 q 239 322 235 353 l 239 315 q 244 322 240 318 z "},"":{"ha":853,"x_min":276,"x_max":651,"o":"m 336 168 q 319 163 328 161 q 307 171 311 165 q 303 185 303 176 q 310 200 303 193 q 374 259 342 229 q 438 319 406 289 q 361 388 399 354 q 286 456 324 421 q 288 484 276 472 q 317 485 300 496 q 392 417 354 450 q 468 349 431 383 q 538 413 503 381 q 607 478 572 446 q 635 474 625 486 q 633 446 644 461 q 566 383 600 414 q 499 321 532 353 l 644 188 q 651 171 651 179 q 644 158 650 163 q 631 152 639 153 q 614 158 622 151 l 468 292 q 402 229 435 260 q 336 168 369 199 z "},"":{"ha":772,"x_min":128,"x_max":576,"o":"m 167 510 q 140 510 151 499 q 136 538 128 521 q 180 576 157 561 q 228 596 203 592 q 318 574 272 604 q 353 543 338 561 q 389 514 368 525 q 471 507 426 494 q 510 528 493 514 q 535 563 528 542 q 547 575 539 572 q 562 575 556 578 q 572 565 568 572 q 572 547 576 557 q 536 496 561 517 q 479 467 511 475 q 396 467 436 454 q 353 488 372 474 q 317 518 335 503 q 280 546 297 533 q 243 558 263 558 q 208 547 226 558 q 167 510 190 536 z "},"":{"ha":783,"x_min":250,"x_max":635,"o":"m 256 563 q 342 635 300 599 q 426 711 383 672 q 457 710 443 719 q 541 634 500 671 q 624 560 582 597 q 623 531 635 543 q 594 529 611 519 q 519 599 557 564 q 442 667 481 633 q 362 599 401 633 q 283 531 322 565 q 267 528 275 526 q 256 535 260 529 q 251 547 251 540 q 256 563 250 554 z "},"":{"ha":456,"x_min":167,"x_max":329,"o":"m 225 35 q 208 41 214 35 q 203 55 203 47 q 208 69 203 63 q 224 76 213 75 l 310 76 q 329 53 329 72 q 292 -89 329 -22 q 200 -204 256 -156 q 183 -209 192 -211 q 171 -201 175 -207 q 167 -187 167 -196 q 174 -172 167 -179 q 286 35 267 -90 l 225 35 l 225 35 z "},"":{"ha":608,"x_min":167,"x_max":496,"o":"m 225 35 q 208 41 214 35 q 203 55 203 47 q 208 69 203 63 q 224 76 213 75 l 310 76 q 329 53 329 72 q 292 -89 329 -22 q 200 -204 256 -156 q 183 -209 192 -211 q 171 -201 175 -207 q 167 -187 167 -196 q 174 -172 167 -179 q 286 35 267 -90 l 225 35 m 392 35 q 375 41 381 35 q 369 55 369 47 q 374 69 369 63 q 390 76 379 75 l 476 76 q 496 53 496 72 q 459 -89 496 -22 q 367 -204 422 -156 q 350 -209 358 -211 q 338 -201 342 -207 q 333 -187 333 -196 q 340 -172 333 -179 q 453 35 433 -90 l 392 35 z "},"%":{"ha":1157,"x_min":182,"x_max":914,"o":"m 303 18 q 276 18 288 7 q 272 46 264 29 q 381 188 332 124 q 474 311 429 253 q 561 426 518 369 q 651 546 604 483 l 650 544 q 590 505 626 525 q 517 472 554 485 q 401 452 463 454 q 293 464 339 450 q 210 523 238 481 q 185 613 182 565 q 201 672 186 643 q 246 725 217 701 q 388 768 311 775 q 485 726 444 764 q 528 618 526 689 q 525 572 528 594 q 511 528 522 550 q 485 518 500 513 q 474 543 471 524 q 485 581 483 563 q 486 621 486 600 q 455 696 485 669 q 385 726 425 722 q 326 721 356 729 q 272 693 296 713 q 238 644 249 674 q 231 585 226 614 q 246 545 233 564 q 282 514 258 526 q 377 492 331 489 q 467 501 424 494 q 526 519 497 506 q 583 551 556 533 q 633 587 610 568 q 675 621 656 606 q 747 690 715 654 q 814 763 778 725 q 831 771 822 771 q 844 765 839 771 q 850 751 849 760 q 844 735 851 743 l 303 18 m 800 311 q 869 275 844 299 q 903 222 893 251 q 908 155 914 190 q 885 88 903 119 q 850 42 871 63 q 804 9 829 22 q 750 -9 779 -4 q 690 -6 721 -14 q 601 42 632 10 q 566 132 564 81 q 597 228 568 183 q 633 269 613 250 q 679 299 654 288 q 737 315 707 311 q 800 311 767 319 m 788 271 q 699 263 740 282 q 633 210 657 244 q 606 140 610 178 q 631 72 603 101 q 658 51 642 61 q 699 36 675 42 q 786 47 746 24 q 849 107 826 69 q 869 174 868 139 q 846 238 869 210 q 788 271 825 261 z "},"`":{"ha":775,"x_min":339,"x_max":618,"o":"m 585 503 q 521 547 549 528 q 467 583 493 565 q 414 620 442 601 q 351 663 386 639 q 340 676 342 668 q 342 691 339 685 q 354 700 346 697 q 372 699 363 703 q 435 656 407 675 q 488 619 463 638 q 542 583 514 601 q 606 539 569 564 q 610 512 618 526 q 585 503 603 497 z "},"":{"ha":1044,"x_min":139,"x_max":1228,"o":"m 178 182 q 151 182 163 171 q 147 210 139 193 q 201 272 175 242 q 257 332 228 303 q 281 338 268 343 q 294 317 293 333 q 301 220 294 267 q 325 131 307 174 q 352 77 336 103 q 396 31 368 51 q 447 6 419 13 q 496 0 474 0 q 560 21 532 0 q 608 69 588 42 q 653 155 636 107 q 679 244 669 203 q 685 289 682 264 q 693 333 689 314 q 701 347 694 343 q 715 348 708 350 q 728 340 722 346 q 733 325 733 335 q 737 265 733 297 q 749 199 740 232 q 770 134 757 165 q 803 78 783 103 q 849 36 822 53 q 908 17 875 19 q 960 23 933 14 q 1013 47 986 32 q 1061 82 1038 63 q 1107 122 1085 101 q 1154 171 1132 147 q 1192 214 1176 194 q 1208 222 1200 222 q 1221 217 1215 222 q 1227 203 1226 211 q 1221 186 1228 194 q 1153 112 1190 150 q 1076 42 1117 74 q 994 -8 1036 11 q 907 -24 951 -26 q 832 -1 871 -21 q 771 49 793 18 q 738 103 750 76 q 719 153 726 129 q 714 170 717 161 q 708 189 711 179 q 678 99 697 143 q 625 22 658 56 q 553 -24 593 -10 q 471 -36 513 -39 q 394 -16 431 -33 q 331 33 358 1 q 282 121 300 71 q 263 194 268 157 q 254 268 257 232 q 216 226 235 247 q 178 182 197 204 m 343 449 q 317 458 325 443 q 322 485 310 472 q 386 528 358 510 q 440 565 414 547 q 492 602 465 583 q 556 644 519 621 q 574 646 565 649 q 585 637 582 643 q 588 622 589 631 q 576 608 586 614 q 513 566 540 585 q 460 529 486 547 q 407 492 435 511 q 343 449 379 474 m 507 449 q 481 458 489 443 q 486 485 474 472 q 550 528 522 510 q 603 565 578 547 q 656 602 629 583 q 719 644 683 621 q 738 646 729 649 q 749 637 746 643 q 751 622 753 631 q 740 608 750 614 q 677 566 704 585 q 624 529 650 547 q 571 492 599 511 q 507 449 543 474 z "},"":{"ha":1044,"x_min":139,"x_max":1228,"o":"m 178 182 q 151 182 163 171 q 147 210 139 193 q 201 272 175 242 q 257 332 228 303 q 281 338 268 343 q 294 317 293 333 q 301 220 294 267 q 325 131 307 174 q 352 77 336 103 q 396 31 368 51 q 447 6 419 13 q 496 0 474 0 q 560 21 532 0 q 608 69 588 42 q 653 155 636 107 q 679 244 669 203 q 685 289 682 264 q 693 333 689 314 q 701 347 694 343 q 715 348 708 350 q 728 340 722 346 q 733 325 733 335 q 737 265 733 297 q 749 199 740 232 q 770 134 757 165 q 803 78 783 103 q 849 36 822 53 q 908 17 875 19 q 960 23 933 14 q 1013 47 986 32 q 1061 82 1038 63 q 1107 122 1085 101 q 1154 171 1132 147 q 1192 214 1176 194 q 1208 222 1200 222 q 1221 217 1215 222 q 1227 203 1226 211 q 1221 186 1228 194 q 1153 112 1190 150 q 1076 42 1117 74 q 994 -8 1036 11 q 907 -24 951 -26 q 832 -1 871 -21 q 771 49 793 18 q 738 103 750 76 q 719 153 726 129 q 714 170 717 161 q 708 189 711 179 q 678 99 697 143 q 625 22 658 56 q 553 -24 593 -10 q 471 -36 513 -39 q 394 -16 431 -33 q 331 33 358 1 q 282 121 300 71 q 263 194 268 157 q 254 268 257 232 q 216 226 235 247 q 178 182 197 204 m 379 543 q 389 566 379 557 q 414 575 399 575 q 439 566 429 575 q 449 543 449 557 q 439 520 449 529 q 414 511 429 511 q 389 520 399 511 q 379 543 379 529 m 546 543 q 556 566 546 557 q 581 575 565 575 q 606 566 596 575 q 615 543 615 557 q 606 520 615 529 q 581 511 596 511 q 556 520 565 511 q 546 543 546 529 z "},"":{"ha":839,"x_min":149,"x_max":1022,"o":"m 990 215 q 1004 221 996 222 q 1017 214 1013 219 q 1022 199 1022 208 q 1013 181 1022 190 q 867 81 953 113 q 783 60 826 65 q 693 60 739 54 q 668 63 681 61 q 643 67 656 64 q 599 8 625 35 q 536 -39 572 -19 q 470 -62 504 -56 q 403 -67 436 -69 q 274 -28 331 -62 q 184 61 219 6 q 149 189 149 117 q 171 290 149 243 q 231 376 193 336 q 247 385 239 385 q 260 379 256 385 q 267 365 265 374 q 261 349 268 357 q 210 276 229 315 q 190 189 190 238 q 214 92 190 135 q 275 21 238 49 q 352 -17 310 -6 q 438 -25 394 -29 q 507 -7 474 -22 q 569 36 540 8 q 588 56 579 46 q 603 78 596 67 q 531 107 567 89 q 454 156 494 125 q 407 203 431 174 q 368 267 383 232 q 351 324 356 294 q 353 379 346 353 q 376 428 360 410 q 413 454 392 447 q 499 453 451 468 q 571 413 539 440 q 650 307 625 367 q 669 144 685 228 q 665 124 667 133 q 660 106 663 115 q 670 103 665 104 q 682 103 675 103 q 750 100 715 99 q 821 110 785 101 q 908 147 861 119 q 990 215 954 175 m 507 169 q 563 138 535 151 q 621 115 590 124 q 626 133 624 124 q 631 151 628 142 q 624 250 638 200 q 579 342 611 300 q 543 380 565 361 q 497 411 521 399 q 440 424 468 426 q 397 386 413 421 q 395 328 390 358 q 415 271 400 299 q 456 213 432 239 q 507 169 481 186 m 299 596 q 308 619 299 610 q 333 628 318 628 q 358 619 349 628 q 368 596 368 610 q 358 573 368 582 q 333 564 349 564 q 308 573 318 564 q 299 596 299 582 m 465 596 q 475 619 465 610 q 500 628 485 628 q 525 619 515 628 q 535 596 535 610 q 525 573 535 582 q 500 564 515 564 q 475 573 485 564 q 465 596 465 582 z "},"":{"ha":839,"x_min":149,"x_max":1022,"o":"m 990 215 q 1004 221 996 222 q 1017 214 1013 219 q 1022 199 1022 208 q 1013 181 1022 190 q 867 81 953 113 q 783 60 826 65 q 693 60 739 54 q 668 63 681 61 q 643 67 656 64 q 599 8 625 35 q 536 -39 572 -19 q 470 -62 504 -56 q 403 -67 436 -69 q 274 -28 331 -62 q 184 61 219 6 q 149 189 149 117 q 171 290 149 243 q 231 376 193 336 q 247 385 239 385 q 260 379 256 385 q 267 365 265 374 q 261 349 268 357 q 210 276 229 315 q 190 189 190 238 q 214 92 190 135 q 275 21 238 49 q 352 -17 310 -6 q 438 -25 394 -29 q 507 -7 474 -22 q 569 36 540 8 q 588 56 579 46 q 603 78 596 67 q 531 107 567 89 q 454 156 494 125 q 407 203 431 174 q 368 267 383 232 q 351 324 356 294 q 353 379 346 353 q 376 428 360 410 q 413 454 392 447 q 499 453 451 468 q 571 413 539 440 q 650 307 625 367 q 669 144 685 228 q 665 124 667 133 q 660 106 663 115 q 670 103 665 104 q 682 103 675 103 q 750 100 715 99 q 821 110 785 101 q 908 147 861 119 q 990 215 954 175 m 507 169 q 563 138 535 151 q 621 115 590 124 q 626 133 624 124 q 631 151 628 142 q 624 250 638 200 q 579 342 611 300 q 543 380 565 361 q 497 411 521 399 q 440 424 468 426 q 397 386 413 421 q 395 328 390 358 q 415 271 400 299 q 456 213 432 239 q 507 169 481 186 m 274 539 q 248 548 256 533 q 253 575 240 563 q 317 619 289 600 q 370 656 344 638 q 423 692 396 674 q 486 735 450 711 q 504 736 496 739 q 516 727 513 733 q 518 713 519 721 q 507 699 517 704 q 444 656 471 675 q 391 619 417 638 q 338 583 365 601 q 274 539 310 564 m 438 539 q 412 548 419 533 q 417 575 404 563 q 481 619 453 600 q 534 656 508 638 q 587 692 560 674 q 650 735 614 711 q 668 736 660 739 q 680 727 676 733 q 682 713 683 721 q 671 699 681 704 q 608 656 635 675 q 555 619 581 638 q 501 583 529 601 q 438 539 474 564 z "},"":{"ha":976,"x_min":139,"x_max":1163,"o":"m 475 554 q 458 560 464 554 q 453 574 453 567 q 458 588 453 581 q 475 596 464 594 q 552 596 511 596 q 638 597 593 596 q 662 693 649 646 q 693 785 675 740 q 723 856 704 813 q 769 936 742 899 q 818 988 792 967 q 876 1007 844 1008 q 921 992 904 1006 q 946 956 938 979 q 953 876 957 924 q 938 776 950 829 q 911 685 926 731 q 881 600 896 640 q 934 602 908 601 q 983 604 960 603 q 1003 585 1003 600 q 986 563 1004 569 q 927 560 958 561 q 863 558 896 560 q 846 520 853 536 q 835 494 839 504 q 817 461 828 481 q 796 421 807 442 q 774 381 785 400 q 754 349 763 363 q 711 284 736 319 q 654 211 686 249 q 701 92 660 142 q 763 40 728 60 q 835 19 799 21 q 915 37 875 18 q 992 85 956 56 q 1064 150 1031 115 q 1125 214 1097 185 q 1142 222 1133 222 q 1156 216 1150 221 q 1162 203 1161 211 q 1156 186 1163 194 q 1081 108 1122 149 q 1003 40 1039 67 q 974 19 989 31 q 938 -1 958 8 q 892 -16 918 -10 q 833 -22 867 -22 q 753 -3 793 -24 q 683 49 714 17 q 643 106 660 75 q 622 172 626 138 q 542 92 585 131 q 453 28 499 54 q 360 -10 407 1 q 267 -10 313 -21 q 194 27 222 1 q 151 89 165 53 q 139 158 139 121 q 154 233 139 196 q 211 325 179 286 q 279 392 243 364 q 439 449 360 451 q 505 434 476 449 q 553 398 533 419 q 583 351 572 376 q 596 306 593 326 q 593 286 599 293 q 581 278 588 279 q 566 283 574 278 q 557 299 558 288 q 515 377 546 350 q 440 407 485 404 q 378 398 411 410 q 314 363 346 386 q 274 328 293 347 q 235 288 254 310 q 188 199 203 249 q 189 106 172 149 q 219 63 199 82 q 276 32 240 43 q 339 29 307 24 q 401 48 371 35 q 458 80 431 61 q 507 118 485 99 q 563 169 536 142 q 615 226 590 197 q 631 556 600 388 q 549 554 588 554 q 475 554 510 554 m 731 769 q 701 685 714 728 q 679 597 689 642 q 759 598 719 597 q 838 600 799 599 q 848 627 843 614 q 858 656 853 640 q 870 691 865 674 q 881 725 875 708 q 895 778 886 742 q 910 853 904 814 q 910 919 914 889 q 886 963 907 950 q 874 966 882 965 q 854 960 865 967 q 778 874 806 925 q 731 769 751 822 m 653 271 q 744 410 703 338 q 819 558 786 482 q 746 556 783 557 q 672 556 708 556 q 655 414 660 485 q 653 272 650 343 l 653 271 z "},"":{"ha":783,"x_min":119,"x_max":971,"o":"m 597 306 q 594 286 600 293 q 582 278 589 279 q 567 283 575 278 q 558 299 560 288 q 517 377 547 350 q 442 407 486 404 q 339 378 393 410 q 238 282 285 346 q 185 193 207 242 q 163 93 163 144 q 199 15 163 39 q 285 6 235 -8 q 360 40 324 17 q 428 93 396 64 q 488 155 460 122 q 540 218 515 188 q 565 226 550 231 q 578 203 579 222 q 572 165 575 188 q 567 124 568 143 q 571 63 564 90 q 593 20 578 36 q 633 1 608 4 q 692 15 657 -1 q 765 61 726 32 q 839 122 803 90 q 890 169 867 146 q 933 213 914 193 q 950 221 942 221 q 963 215 958 221 q 969 201 968 210 q 964 185 971 193 q 912 134 940 161 q 851 81 883 107 q 765 16 810 46 q 676 -31 721 -14 q 609 -36 638 -44 q 562 -6 581 -28 q 534 49 543 17 q 525 113 525 81 l 525 135 q 474 79 501 107 q 416 28 446 51 q 355 -12 386 4 q 293 -35 324 -29 q 257 -41 271 -39 q 224 -40 243 -43 q 163 -17 186 -35 q 130 25 140 0 q 119 80 119 50 q 126 142 119 110 q 171 252 140 197 q 231 339 201 307 q 329 418 275 386 q 440 449 383 450 q 506 434 478 449 q 554 398 535 419 q 584 351 574 376 q 597 306 594 326 m 299 568 q 308 591 299 582 q 333 600 318 600 q 358 591 349 600 q 368 568 368 582 q 358 545 368 554 q 333 536 349 536 q 308 545 318 536 q 299 568 299 554 m 465 568 q 475 591 465 582 q 500 600 485 600 q 525 591 515 600 q 535 568 535 582 q 525 545 535 554 q 500 536 515 536 q 475 545 485 536 q 465 568 465 554 z "},"":{"ha":1014,"x_min":126,"x_max":1197,"o":"m 175 853 q 199 867 183 871 q 215 844 214 864 q 169 482 175 665 q 169 397 168 440 q 174 309 169 353 q 191 223 179 265 q 224 143 203 181 q 306 51 257 81 q 408 19 354 21 q 513 46 461 18 q 607 126 565 74 q 665 222 642 172 q 702 325 688 272 q 725 433 717 378 q 740 543 733 488 q 752 647 747 589 q 760 761 757 704 q 767 776 761 771 q 781 781 774 782 q 795 775 789 781 q 801 758 801 769 q 801 742 801 750 q 800 726 801 735 q 797 661 799 696 q 796 597 796 626 q 798 380 794 489 q 831 165 801 271 q 842 129 835 149 q 859 92 849 110 q 884 61 869 74 q 918 46 899 49 q 976 57 946 42 q 1025 86 1006 72 q 1096 146 1061 113 q 1160 214 1131 179 q 1176 222 1168 222 q 1190 217 1185 222 q 1196 203 1194 211 q 1190 186 1197 194 q 1130 118 1165 151 q 1072 67 1094 85 q 1035 41 1057 54 q 996 19 1013 28 q 909 3 946 -4 q 847 39 872 11 q 806 110 822 67 q 781 199 790 153 q 768 288 772 244 q 763 361 764 331 q 761 389 761 379 q 761 408 761 399 q 712 226 744 314 q 611 68 679 138 q 513 -1 567 22 q 403 -22 458 -24 q 297 8 347 -19 q 207 90 246 36 q 142 253 157 164 q 126 431 126 343 q 139 643 126 538 q 175 853 151 749 m 382 919 q 356 928 364 914 q 361 956 349 943 q 425 999 397 981 q 478 1036 453 1018 q 531 1073 504 1054 q 594 1115 558 1092 q 613 1117 604 1119 q 624 1108 621 1114 q 626 1093 628 1101 q 615 1079 625 1085 q 552 1037 579 1056 q 499 1000 525 1018 q 446 963 474 982 q 382 919 418 944 m 546 919 q 520 928 528 914 q 525 956 513 943 q 589 999 561 981 q 642 1036 617 1018 q 695 1073 668 1054 q 758 1115 722 1092 q 776 1117 768 1119 q 788 1108 785 1114 q 790 1093 792 1101 q 779 1079 789 1085 q 716 1037 743 1056 q 663 1000 689 1018 q 610 963 638 982 q 546 919 582 944 z "},"":{"ha":903,"x_min":99,"x_max":946,"o":"m 919 753 q 942 737 939 753 q 929 713 946 721 q 842 699 881 701 q 761 707 803 697 q 822 596 796 658 q 863 467 849 533 q 874 338 876 401 q 850 226 872 275 q 833 189 840 206 q 817 156 825 172 q 798 125 808 140 q 771 93 788 110 q 683 22 732 50 q 579 -20 633 -7 q 468 -33 525 -33 q 358 -17 411 -32 q 317 1 339 -11 q 275 27 296 13 q 235 58 254 42 q 204 89 217 74 q 120 254 142 163 q 113 442 99 346 q 174 624 126 538 q 299 764 221 710 q 435 826 361 808 q 583 838 508 843 q 598 828 593 835 q 602 813 603 821 q 595 801 601 806 q 578 796 589 796 q 392 767 481 803 q 243 653 304 731 q 169 499 193 588 q 153 322 144 411 q 202 158 161 235 q 325 40 243 82 q 465 6 392 7 q 604 31 538 4 q 733 113 676 58 q 813 242 789 167 q 831 366 831 300 q 815 497 831 432 q 767 622 799 563 q 693 724 736 681 q 694 749 686 739 q 718 757 701 760 q 817 740 769 739 q 919 753 865 742 m 407 908 q 381 917 389 903 q 386 944 374 932 q 450 988 422 969 q 503 1025 478 1007 q 556 1062 529 1043 q 619 1104 583 1081 q 638 1106 629 1108 q 649 1097 646 1103 q 651 1082 653 1090 q 640 1068 650 1074 q 577 1026 604 1044 q 524 989 550 1007 q 471 952 499 971 q 407 908 443 933 m 571 908 q 545 917 553 903 q 550 944 538 932 q 614 988 586 969 q 667 1025 642 1007 q 720 1062 693 1043 q 783 1104 747 1081 q 801 1106 793 1108 q 813 1097 810 1103 q 815 1082 817 1090 q 804 1068 814 1074 q 741 1026 768 1044 q 688 989 714 1007 q 635 952 663 971 q 571 908 607 933 z "},"":{"ha":1047,"x_min":131,"x_max":1231,"o":"m 161 347 q 144 353 150 347 q 139 367 139 360 q 144 381 139 374 q 161 389 150 388 q 264 390 208 389 q 379 390 319 390 l 708 882 q 717 892 711 889 q 729 896 724 896 q 744 887 740 896 q 747 867 749 878 q 742 693 743 782 q 747 517 740 604 q 769 344 753 429 q 817 179 785 258 q 946 33 868 47 q 1005 42 974 28 q 1067 81 1036 57 q 1141 151 1107 113 q 1196 213 1175 190 q 1212 220 1204 221 q 1224 214 1219 219 q 1230 200 1229 208 q 1222 183 1231 192 q 1197 154 1213 172 q 1163 115 1182 136 q 1123 74 1144 94 q 1076 36 1101 53 q 983 -7 1032 4 q 889 10 933 -18 q 821 76 846 36 q 778 164 796 117 q 733 316 750 236 q 710 478 717 396 q 702 643 703 561 q 704 801 701 725 q 567 597 635 699 q 429 392 499 494 q 556 394 494 393 q 669 397 617 394 q 683 392 678 397 q 689 381 688 388 q 686 365 690 372 q 672 356 682 357 q 544 351 614 353 q 400 349 474 350 l 171 7 q 156 -3 164 -1 q 142 -1 149 -4 q 133 11 136 3 q 136 29 131 19 q 243 189 189 110 q 350 349 297 268 q 251 347 299 347 q 161 347 203 347 m 618 964 q 592 973 600 958 q 597 1000 585 988 q 661 1044 633 1025 q 715 1081 689 1063 q 767 1117 740 1099 q 831 1160 794 1136 q 849 1161 840 1164 q 860 1152 857 1158 q 863 1138 864 1146 q 851 1124 861 1129 q 788 1081 815 1100 q 735 1044 761 1063 q 682 1008 710 1026 q 618 964 654 989 z "},"":{"ha":778,"x_min":85,"x_max":965,"o":"m 107 478 q 90 484 96 478 q 85 497 85 490 q 90 511 85 504 q 107 519 96 518 l 167 519 q 174 554 169 538 q 182 589 178 571 q 194 638 186 610 q 211 696 203 667 q 228 753 219 725 q 242 801 236 781 q 260 816 243 810 q 300 826 278 822 q 345 834 322 831 q 382 839 368 838 q 547 851 457 846 q 724 854 638 857 q 743 834 743 850 q 725 813 743 818 q 585 813 654 815 q 446 804 517 810 q 406 801 429 803 q 358 796 382 799 q 314 788 335 793 q 281 778 293 783 q 239 652 257 718 q 208 519 221 586 q 312 520 258 519 q 419 522 365 521 q 522 525 472 524 q 615 528 572 526 q 635 508 635 524 q 618 486 636 493 q 522 483 574 485 q 417 481 471 482 q 308 478 363 479 q 201 478 253 478 q 188 347 192 424 q 204 190 185 269 q 238 107 215 146 q 293 39 260 68 q 368 -7 325 11 q 467 -28 411 -25 q 573 -17 521 -31 q 674 18 625 -4 q 810 103 747 54 q 928 213 872 153 q 944 221 936 221 q 958 215 953 221 q 964 201 963 210 q 958 185 965 193 q 835 69 900 122 q 690 -19 769 17 q 582 -58 635 -44 q 468 -69 529 -72 q 363 -47 411 -67 q 275 7 314 -26 q 204 92 233 43 q 161 199 175 142 q 147 335 144 268 q 160 478 150 403 l 107 478 l 107 478 m 361 897 q 335 906 343 892 q 340 933 328 921 q 404 977 376 958 q 458 1014 432 996 q 510 1051 483 1032 q 574 1093 538 1069 q 592 1094 583 1097 q 603 1085 600 1092 q 606 1071 607 1079 q 594 1057 604 1063 q 531 1015 558 1033 q 478 978 504 996 q 425 941 453 960 q 361 897 397 922 z "},"":{"ha":519,"x_min":24,"x_max":490,"o":"m 50 851 q 27 869 31 853 q 42 892 24 885 q 239 912 140 904 q 438 926 338 919 q 457 910 451 924 q 470 802 464 856 q 481 694 476 749 q 489 531 488 613 q 483 363 490 450 q 471 274 481 321 q 444 181 461 226 q 402 97 426 136 q 344 29 378 57 q 267 -11 310 1 q 169 -12 224 -24 q 111 8 138 -6 q 58 38 85 22 q 53 67 42 53 q 83 71 64 82 q 128 45 106 57 q 176 29 150 33 q 294 45 247 17 q 372 126 342 74 q 413 219 397 171 q 436 319 428 267 q 449 507 451 411 q 439 690 446 603 q 430 787 435 739 q 418 883 425 835 q 234 869 326 876 q 50 851 142 863 m 204 975 q 178 984 186 969 q 183 1011 171 999 q 247 1055 219 1036 q 301 1092 275 1074 q 353 1128 326 1110 q 417 1171 381 1147 q 435 1172 426 1175 q 447 1163 443 1169 q 449 1149 450 1157 q 438 1135 447 1140 q 374 1092 401 1111 q 322 1056 347 1074 q 268 1019 296 1038 q 204 975 240 1000 z "},"":{"ha":767,"x_min":17,"x_max":847,"o":"m 33 96 q 28 126 17 111 q 58 129 39 140 q 184 58 121 89 q 319 7 247 26 q 432 -12 374 -7 q 546 -6 490 -17 q 687 61 633 14 q 769 172 740 108 q 802 310 797 235 q 796 464 807 386 q 772 582 788 522 q 722 690 756 642 q 631 778 682 750 q 521 810 579 807 q 419 794 469 813 q 319 742 368 776 q 303 588 310 664 q 289 433 296 511 q 442 436 367 435 q 581 440 518 438 q 601 421 600 436 q 583 399 601 406 q 442 394 519 396 q 285 392 364 393 q 269 248 278 319 q 249 103 260 176 q 226 85 242 85 q 207 106 210 86 q 226 247 217 176 q 243 392 236 318 q 153 390 197 390 q 72 390 110 390 q 56 397 61 390 q 50 410 50 403 q 56 424 50 417 q 72 432 61 431 q 156 432 111 432 q 247 433 200 432 q 249 447 249 440 q 250 460 249 453 q 265 605 257 533 q 279 751 274 676 q 291 769 279 760 q 318 789 303 779 q 351 808 333 799 q 381 821 368 817 q 540 847 464 854 q 624 828 583 844 q 706 775 665 811 q 781 674 751 733 q 826 547 810 614 q 844 410 842 479 q 842 283 847 342 q 818 173 836 229 q 760 76 800 117 q 574 -37 676 -11 q 353 -43 471 -64 q 186 10 264 -26 q 33 96 108 47 z "},"":{"ha":1047,"x_min":131,"x_max":1231,"o":"m 161 347 q 144 353 150 347 q 139 367 139 360 q 144 381 139 374 q 161 389 150 388 q 264 390 208 389 q 379 390 319 390 l 708 882 l 708 883 q 726 897 715 897 q 745 892 738 900 q 749 868 753 883 l 747 867 q 742 693 743 782 q 747 517 740 604 q 769 344 753 429 q 817 179 785 258 q 946 33 868 47 q 1005 42 974 28 q 1067 81 1036 57 q 1141 151 1107 113 q 1196 213 1175 190 q 1212 220 1204 221 q 1224 214 1219 219 q 1230 200 1229 208 q 1222 183 1231 192 q 1197 154 1213 172 q 1163 115 1182 136 q 1123 74 1144 94 q 1076 36 1101 53 q 983 -7 1032 4 q 889 10 933 -18 q 867 24 876 17 q 836 -47 846 -4 q 839 -146 825 -101 q 885 -186 858 -175 q 952 -190 917 -201 q 1024 -157 988 -179 q 1042 -156 1033 -153 q 1053 -165 1050 -158 q 1056 -179 1057 -171 q 1044 -193 1054 -187 q 965 -228 1004 -217 q 878 -229 926 -240 q 811 -182 833 -219 q 790 -118 793 -154 q 793 -46 786 -82 q 810 8 799 -18 q 838 54 821 35 q 803 106 818 78 q 778 164 789 133 q 733 316 750 236 q 710 478 717 396 q 702 643 703 561 q 704 801 701 725 q 567 597 635 699 q 429 392 499 494 q 556 394 494 393 q 669 397 617 394 q 683 392 678 397 q 689 381 688 388 q 686 365 690 372 q 672 356 682 357 q 544 351 614 353 q 400 349 474 350 l 171 7 q 156 -3 164 -1 q 142 -1 149 -4 q 133 11 136 3 q 136 29 131 19 q 243 189 189 110 q 350 349 297 268 q 251 347 299 347 q 161 347 203 347 z "},"":{"ha":847,"x_min":56,"x_max":1031,"o":"m 843 935 q 826 941 832 935 q 821 955 821 947 q 826 969 821 963 q 842 976 831 975 l 928 976 q 947 953 947 972 q 910 811 947 878 q 818 696 874 744 q 801 691 810 689 q 789 699 793 693 q 785 713 785 704 q 792 728 785 721 q 904 935 885 810 l 843 935 m 725 928 q 736 908 736 921 q 731 894 736 900 q 715 888 725 888 q 706 890 714 888 q 657 906 682 901 q 606 910 632 910 q 497 876 542 910 q 421 783 453 842 q 369 656 389 728 q 335 507 349 583 q 311 354 321 431 q 292 214 301 278 q 283 161 288 190 q 271 100 278 132 q 306 88 289 94 q 340 74 324 82 q 477 17 408 39 q 615 -4 546 -4 q 813 54 719 -4 q 994 213 907 113 q 1011 219 1001 219 q 1031 200 1031 219 q 1025 185 1031 192 q 935 94 983 136 q 835 20 888 51 q 724 -29 782 -11 q 601 -47 665 -47 q 501 -34 550 -47 q 407 -4 453 -21 q 337 26 375 7 q 258 60 299 46 q 213 -16 242 15 q 135 -47 183 -47 q 79 -26 103 -47 q 56 22 56 -6 q 69 63 56 46 q 103 90 83 79 q 147 107 124 101 q 190 113 171 113 q 231 108 210 113 q 243 170 239 140 q 251 222 247 200 q 272 363 261 286 q 297 517 282 439 q 333 671 311 596 q 388 806 354 746 q 480 915 425 874 q 614 956 535 956 q 725 928 667 956 m 129 -6 q 184 17 163 -6 q 218 71 206 39 q 203 73 211 72 q 188 74 194 74 q 160 71 175 74 q 133 61 146 68 q 111 44 121 54 q 100 17 101 33 q 107 1 104 7 q 129 -6 110 -6 z "},"":{"ha":783,"x_min":90,"x_max":842,"o":"m 831 671 q 820 656 828 660 q 806 654 813 653 q 794 662 799 656 q 790 679 789 668 q 771 783 806 742 q 675 835 736 825 q 588 839 639 842 q 483 821 536 836 q 383 773 428 806 q 325 701 339 740 q 320 652 317 676 q 335 606 324 628 q 362 565 346 585 q 394 528 378 544 q 469 471 424 499 q 561 413 514 443 q 624 369 593 392 q 677 319 654 346 q 715 263 700 293 q 729 197 729 232 q 724 135 729 164 q 700 79 719 107 q 669 45 688 60 q 632 17 651 31 q 578 -13 607 -1 q 521 -35 550 -25 q 356 -62 438 -61 q 230 -55 290 -65 q 107 -28 169 -44 q 93 -16 96 -24 q 92 -1 90 -8 q 101 11 94 7 q 119 13 108 15 q 235 -13 178 -3 q 354 -21 292 -24 q 507 4 432 -18 q 581 34 547 17 q 638 75 614 51 q 688 177 683 118 q 631 306 692 236 q 550 373 596 346 q 461 429 504 400 q 385 483 425 453 q 318 553 346 513 q 281 635 290 592 q 292 726 271 679 q 360 804 311 771 q 468 857 408 838 q 585 881 526 876 q 688 875 644 886 q 756 848 725 865 q 808 805 788 831 q 835 746 828 779 q 831 671 842 713 m 435 911 q 409 920 417 906 q 414 947 401 935 q 478 991 450 972 q 531 1028 506 1010 q 584 1065 557 1046 q 647 1107 611 1083 q 665 1108 657 1111 q 677 1099 674 1106 q 679 1085 681 1093 q 668 1071 678 1076 q 605 1028 632 1047 q 552 992 578 1010 q 499 955 526 974 q 435 911 471 936 z "},"":{"ha":783,"x_min":90,"x_max":842,"o":"m 831 671 q 820 656 828 660 q 806 654 813 653 q 794 662 799 656 q 790 679 789 668 q 771 783 806 742 q 675 835 736 825 q 588 839 639 842 q 483 821 536 836 q 383 773 428 806 q 325 701 339 740 q 320 652 317 676 q 335 606 324 628 q 362 565 346 585 q 394 528 378 544 q 469 471 424 499 q 561 413 514 443 q 624 369 593 392 q 677 319 654 346 q 715 263 700 293 q 729 197 729 232 q 724 135 729 164 q 700 79 719 107 q 669 45 688 60 q 632 17 651 31 q 578 -13 607 -1 q 521 -35 550 -25 q 356 -62 438 -61 q 230 -55 290 -65 q 107 -28 169 -44 q 93 -16 96 -24 q 92 -1 90 -8 q 101 11 94 7 q 119 13 108 15 q 235 -13 178 -3 q 354 -21 292 -24 q 507 4 432 -18 q 581 34 547 17 q 638 75 614 51 q 688 177 683 118 q 631 306 692 236 q 550 373 596 346 q 461 429 504 400 q 385 483 425 453 q 318 553 346 513 q 281 635 290 592 q 292 726 271 679 q 360 804 311 771 q 468 857 408 838 q 585 881 526 876 q 688 875 644 886 q 756 848 725 865 q 808 805 788 831 q 835 746 828 779 q 831 671 842 713 m 357 1085 q 359 1113 347 1101 q 388 1114 371 1125 q 460 1038 424 1076 q 532 963 496 1000 q 615 1024 574 993 q 697 1085 657 1054 q 725 1081 715 1093 q 724 1053 735 1068 q 634 986 679 1019 q 543 919 589 953 q 513 921 528 910 q 357 1085 435 1004 z "},"":{"ha":783,"x_min":90,"x_max":842,"o":"m 831 671 q 820 656 828 660 q 806 654 813 653 q 794 662 799 656 q 790 679 789 668 q 771 783 806 742 q 675 835 736 825 q 588 839 639 842 q 483 821 536 836 q 383 773 428 806 q 325 701 339 740 q 320 652 317 676 q 335 606 324 628 q 362 565 346 585 q 394 528 378 544 q 469 471 424 499 q 561 413 514 443 q 624 369 593 392 q 677 319 654 346 q 715 263 700 293 q 729 197 729 232 q 724 135 729 164 q 700 79 719 107 q 669 45 688 60 q 632 17 651 31 q 578 -13 607 -1 q 521 -35 550 -25 q 356 -62 438 -61 q 230 -55 290 -65 q 107 -28 169 -44 q 93 -16 96 -24 q 92 -1 90 -8 q 101 11 94 7 q 119 13 108 15 q 235 -13 178 -3 q 354 -21 292 -24 q 507 4 432 -18 q 581 34 547 17 q 638 75 614 51 q 688 177 683 118 q 631 306 692 236 q 550 373 596 346 q 461 429 504 400 q 385 483 425 453 q 318 553 346 513 q 281 635 290 592 q 292 726 271 679 q 360 804 311 771 q 468 857 408 838 q 585 881 526 876 q 688 875 644 886 q 756 848 725 865 q 808 805 788 831 q 835 746 828 779 q 831 671 842 713 m 378 -142 q 361 -135 367 -142 q 356 -122 356 -129 q 360 -108 356 -114 q 376 -100 365 -101 l 463 -100 q 482 -124 482 -104 q 445 -265 482 -199 q 353 -381 408 -332 q 336 -385 344 -387 q 324 -378 328 -383 q 319 -364 319 -372 q 326 -349 319 -356 q 439 -142 419 -267 l 378 -142 l 378 -142 z "},"":{"ha":507,"x_min":-139,"x_max":774,"o":"m -107 514 q -122 622 -139 574 q -62 711 -106 671 q 8 762 -32 739 q 89 802 47 785 q 171 832 131 819 q 242 853 211 844 q 382 884 318 871 q 506 905 446 897 q 627 915 567 913 q 758 914 688 917 q 774 893 774 908 q 757 875 774 878 q 619 875 683 878 q 494 865 556 872 q 372 846 433 858 q 244 817 311 833 q 181 798 219 810 q 101 769 143 786 q 21 728 60 751 q -46 678 -18 706 q -85 612 -75 647 q -74 535 -96 576 q -81 510 -68 518 q -107 514 -93 503 m 351 769 q 358 665 358 717 q 356 561 358 613 q 350 447 354 508 q 335 326 346 386 q 306 208 325 265 q 257 106 288 151 q 185 41 225 61 q 93 32 146 21 q 78 26 83 31 q 72 14 74 21 q 75 1 71 7 q 88 -10 79 -6 q 165 -8 129 -18 q 232 23 201 1 q 285 76 263 44 q 324 143 308 107 q 380 347 367 240 q 396 558 393 454 q 399 666 397 611 q 393 774 400 721 q 370 790 386 792 q 351 769 354 789 m 171 1113 q 173 1141 161 1129 q 201 1142 185 1153 q 274 1066 238 1104 q 346 990 310 1028 q 429 1051 388 1021 q 511 1113 471 1082 q 539 1108 529 1121 q 538 1081 549 1096 q 448 1014 493 1047 q 357 947 403 981 q 326 949 342 938 q 171 1113 249 1032 z "},"":{"ha":993,"x_min":193,"x_max":1176,"o":"m 250 686 q 232 688 239 683 q 223 699 225 692 q 224 713 221 706 q 236 725 226 721 q 474 792 351 775 q 621 800 547 803 q 696 792 657 799 q 768 763 735 785 q 812 723 799 743 q 825 682 825 703 q 808 628 825 654 q 767 578 792 603 q 647 469 708 519 q 518 365 585 418 q 403 272 460 321 q 293 172 346 222 q 256 130 274 153 q 236 88 238 107 q 253 51 239 67 q 289 24 267 35 q 343 3 313 11 q 406 -11 374 -6 q 467 -19 438 -17 q 521 -22 497 -21 q 659 -22 592 -26 q 792 -3 726 -18 q 988 76 899 21 q 1139 213 1072 129 q 1156 221 1147 221 q 1169 215 1164 221 q 1175 201 1174 210 q 1169 185 1176 193 q 1008 40 1096 94 q 913 -9 963 11 q 810 -42 863 -29 q 640 -65 726 -61 q 463 -60 554 -68 q 384 -50 429 -57 q 297 -26 339 -43 q 226 18 256 -10 q 194 90 197 46 q 207 130 193 108 q 240 173 221 151 q 278 213 258 194 q 308 240 297 231 q 518 417 408 333 q 732 597 628 501 q 767 637 753 617 q 781 676 781 657 q 768 708 781 693 q 724 739 756 724 q 621 758 678 758 q 551 758 586 760 q 482 751 517 756 q 363 727 419 744 q 250 686 307 710 m 425 856 q 399 865 407 850 q 404 892 392 879 q 468 935 440 917 q 522 972 496 954 q 574 1009 547 990 q 638 1051 601 1028 q 656 1053 647 1056 q 667 1044 664 1050 q 669 1029 671 1038 q 658 1015 668 1021 q 595 973 622 992 q 542 936 568 954 q 489 899 517 918 q 425 856 461 881 z "},"":{"ha":993,"x_min":193,"x_max":1176,"o":"m 250 686 q 232 688 239 683 q 223 699 225 692 q 224 713 221 706 q 236 725 226 721 q 474 792 351 775 q 621 800 547 803 q 696 792 657 799 q 768 763 735 785 q 812 723 799 743 q 825 682 825 703 q 808 628 825 654 q 767 578 792 603 q 647 469 708 519 q 518 365 585 418 q 403 272 460 321 q 293 172 346 222 q 256 130 274 153 q 236 88 238 107 q 253 51 239 67 q 289 24 267 35 q 343 3 313 11 q 406 -11 374 -6 q 467 -19 438 -17 q 521 -22 497 -21 q 659 -22 592 -26 q 792 -3 726 -18 q 988 76 899 21 q 1139 213 1072 129 q 1156 221 1147 221 q 1169 215 1164 221 q 1175 201 1174 210 q 1169 185 1176 193 q 1008 40 1096 94 q 913 -9 963 11 q 810 -42 863 -29 q 640 -65 726 -61 q 463 -60 554 -68 q 384 -50 429 -57 q 297 -26 339 -43 q 226 18 256 -10 q 194 90 197 46 q 207 130 193 108 q 240 173 221 151 q 278 213 258 194 q 308 240 297 231 q 518 417 408 333 q 732 597 628 501 q 767 637 753 617 q 781 676 781 657 q 768 708 781 693 q 724 739 756 724 q 621 758 678 758 q 551 758 586 760 q 482 751 517 756 q 363 727 419 744 q 250 686 307 710 m 364 1035 q 366 1063 354 1051 q 394 1064 378 1075 q 467 988 431 1026 q 539 913 503 950 q 622 974 581 943 q 704 1035 664 1004 q 732 1031 722 1043 q 731 1003 742 1018 q 641 936 686 969 q 550 869 596 903 q 519 871 535 860 q 364 1035 442 954 z "},"":{"ha":993,"x_min":193,"x_max":1176,"o":"m 250 686 q 232 688 239 683 q 223 699 225 692 q 224 713 221 706 q 236 725 226 721 q 474 792 351 775 q 621 800 547 803 q 696 792 657 799 q 768 763 735 785 q 812 723 799 743 q 825 682 825 703 q 808 628 825 654 q 767 578 792 603 q 647 469 708 519 q 518 365 585 418 q 403 272 460 321 q 293 172 346 222 q 256 130 274 153 q 236 88 238 107 q 253 51 239 67 q 289 24 267 35 q 343 3 313 11 q 406 -11 374 -6 q 467 -19 438 -17 q 521 -22 497 -21 q 659 -22 592 -26 q 792 -3 726 -18 q 988 76 899 21 q 1139 213 1072 129 q 1156 221 1147 221 q 1169 215 1164 221 q 1175 201 1174 210 q 1169 185 1176 193 q 1008 40 1096 94 q 913 -9 963 11 q 810 -42 863 -29 q 640 -65 726 -61 q 463 -60 554 -68 q 384 -50 429 -57 q 297 -26 339 -43 q 226 18 256 -10 q 194 90 197 46 q 207 130 193 108 q 240 173 221 151 q 278 213 258 194 q 308 240 297 231 q 518 417 408 333 q 732 597 628 501 q 767 637 753 617 q 781 676 781 657 q 768 708 781 693 q 724 739 756 724 q 621 758 678 758 q 551 758 586 760 q 482 751 517 756 q 363 727 419 744 q 250 686 307 710 m 483 897 q 493 920 483 911 q 518 929 503 929 q 543 920 533 929 q 553 897 553 911 q 543 874 553 883 q 518 865 533 865 q 493 874 503 865 q 483 897 483 883 z "},"":{"ha":783,"x_min":119,"x_max":971,"o":"m 597 306 q 594 286 600 293 q 582 278 589 279 q 567 283 575 278 q 558 299 560 288 q 517 377 547 350 q 442 407 486 404 q 339 378 393 410 q 238 282 285 346 q 185 193 207 242 q 163 93 163 144 q 199 15 163 39 q 285 6 235 -8 q 360 40 324 17 q 428 93 396 64 q 488 155 460 122 q 540 218 515 188 q 565 226 550 231 q 578 203 579 222 q 572 165 575 188 q 567 124 568 143 q 571 60 564 89 q 596 17 578 32 q 599 14 599 17 q 637 1 614 3 q 692 15 660 0 q 765 61 726 32 q 839 122 803 90 q 890 169 867 146 q 933 213 914 193 q 950 221 942 221 q 963 215 958 221 q 969 201 968 210 q 964 185 971 193 q 912 134 940 161 q 851 81 883 107 q 765 16 810 46 q 676 -31 721 -14 q 627 -39 649 -40 q 588 -28 606 -37 q 570 -60 576 -43 q 560 -96 564 -76 q 563 -194 549 -150 q 608 -235 582 -224 q 676 -239 640 -250 q 747 -206 711 -228 q 765 -204 757 -201 q 777 -213 774 -207 q 779 -228 781 -219 q 768 -242 778 -236 q 689 -277 728 -265 q 601 -278 650 -289 q 535 -231 557 -268 q 513 -167 517 -203 q 517 -94 510 -131 q 532 -42 522 -67 q 557 0 542 -18 q 533 53 540 24 q 525 113 525 82 l 525 135 q 474 79 501 107 q 416 28 446 51 q 355 -12 386 4 q 293 -35 324 -29 q 257 -41 271 -39 q 224 -40 243 -43 q 163 -17 186 -35 q 130 25 140 0 q 119 80 119 50 q 126 142 119 110 q 171 252 140 197 q 231 339 201 307 q 329 418 275 386 q 440 449 383 450 q 506 434 478 449 q 554 398 535 419 q 584 351 574 376 q 597 306 594 326 z "},"":{"ha":1143,"x_min":140,"x_max":869,"o":"m 657 926 q 640 933 646 926 q 635 947 635 939 q 640 960 635 954 q 656 968 644 967 l 742 968 q 761 944 761 964 q 724 803 761 869 q 632 688 688 736 q 615 683 624 681 q 603 690 607 685 q 599 704 599 696 q 606 719 599 713 q 718 926 699 801 l 657 926 m 174 181 q 158 175 167 175 q 146 181 151 175 q 140 196 140 188 q 147 212 140 201 q 165 233 154 222 q 185 255 175 244 q 203 274 196 265 q 195 331 197 301 q 193 390 193 361 q 213 583 193 482 q 269 768 233 683 q 359 908 306 853 q 468 963 413 963 q 517 931 504 963 q 531 858 531 900 q 510 708 531 783 q 453 562 489 633 q 372 424 418 490 q 278 299 326 357 q 263 281 271 289 q 247 263 254 272 q 346 76 274 132 q 515 19 418 19 q 608 36 564 19 q 692 81 653 53 q 767 142 732 108 q 833 213 801 176 q 851 221 842 221 q 869 201 869 221 q 857 174 869 190 q 826 138 844 157 q 789 102 808 119 q 756 74 769 85 q 638 3 700 29 q 508 -22 575 -22 q 417 -8 461 -22 q 336 35 374 6 q 267 110 299 64 q 214 224 236 157 q 194 202 204 213 q 174 181 185 192 m 240 318 q 378 512 319 411 q 468 724 438 613 q 483 783 475 746 q 490 854 490 819 q 485 899 490 876 q 460 922 479 922 q 403 889 440 922 q 328 790 365 856 q 263 629 290 725 q 235 410 235 533 q 236 364 235 386 q 240 318 238 342 z "},"":{"ha":594,"x_min":129,"x_max":597,"o":"m 168 175 q 141 175 153 164 q 138 203 129 186 q 188 256 161 226 q 242 317 214 285 q 313 396 279 360 q 363 443 346 432 q 390 450 375 453 q 419 436 404 447 q 469 389 446 418 q 505 341 489 365 q 528 304 521 317 q 564 233 549 269 q 586 160 579 197 q 592 57 597 107 q 561 -36 588 7 q 478 -117 533 -85 q 385 -143 433 -140 q 293 -126 336 -146 q 249 -99 269 -115 q 214 -58 229 -82 q 210 -40 208 -49 q 219 -28 213 -32 q 233 -25 225 -24 q 249 -35 242 -26 q 285 -71 265 -57 q 328 -92 306 -85 q 436 -90 381 -110 q 514 -34 482 -75 q 549 65 546 7 q 531 193 550 129 q 490 285 515 240 q 437 360 465 329 q 385 407 408 390 q 353 379 367 393 q 324 346 340 365 q 248 259 286 303 q 168 175 210 215 m 267 460 q 241 469 249 454 q 246 496 233 483 q 310 540 282 521 q 363 576 338 558 q 416 613 389 594 q 479 656 443 632 q 497 657 489 660 q 509 648 506 654 q 511 633 513 642 q 500 619 510 625 q 437 577 464 596 q 384 540 410 558 q 331 503 358 522 q 267 460 303 485 z "},"":{"ha":1157,"x_min":261,"x_max":611,"o":"m 413 -6 q 425 7 417 4 q 440 7 433 10 q 450 -3 446 4 q 450 -21 454 -11 q 435 -60 443 -36 q 424 -103 428 -85 q 490 -94 457 -93 q 551 -109 524 -96 q 594 -149 578 -122 q 610 -217 611 -176 q 601 -262 608 -239 q 579 -301 594 -285 q 515 -348 551 -332 q 438 -369 478 -364 q 356 -369 397 -374 q 278 -354 315 -365 q 264 -342 267 -350 q 263 -327 261 -335 q 272 -315 265 -319 q 290 -314 279 -311 q 357 -328 324 -324 q 426 -328 390 -333 q 459 -323 442 -326 q 493 -313 476 -319 q 524 -297 510 -307 q 549 -274 539 -287 q 567 -197 574 -240 q 544 -153 563 -167 q 502 -137 526 -139 q 451 -140 478 -135 q 404 -156 425 -146 q 375 -136 379 -162 q 388 -69 375 -108 q 413 -6 401 -29 z "},"":{"ha":594,"x_min":129,"x_max":600,"o":"m 168 175 q 141 175 153 164 q 138 203 129 186 q 188 256 161 226 q 242 317 214 285 q 313 396 279 360 q 363 443 346 432 q 390 450 375 453 q 419 436 404 447 q 469 389 446 418 q 505 341 489 365 q 528 304 521 317 q 564 233 549 269 q 586 160 579 197 q 592 57 597 107 q 561 -36 588 7 q 478 -117 533 -85 q 385 -143 433 -140 q 293 -126 336 -146 q 249 -99 269 -115 q 214 -58 229 -82 q 210 -40 208 -49 q 219 -28 213 -32 q 233 -25 225 -24 q 249 -35 242 -26 q 285 -71 265 -57 q 328 -92 306 -85 q 436 -90 381 -110 q 514 -34 482 -75 q 549 65 546 7 q 531 193 550 129 q 490 285 515 240 q 437 360 465 329 q 385 407 408 390 q 353 379 367 393 q 324 346 340 365 q 248 259 286 303 q 168 175 210 215 m 222 693 q 224 722 213 710 q 253 722 236 733 q 325 647 289 685 q 397 571 361 608 q 481 632 439 601 q 563 693 522 663 q 590 689 581 701 q 589 661 600 676 q 499 594 544 628 q 408 528 454 561 q 378 529 393 518 q 222 693 300 613 z "},"":{"ha":594,"x_min":129,"x_max":597,"o":"m 168 175 q 141 175 153 164 q 138 203 129 186 q 188 256 161 226 q 242 317 214 285 q 313 396 279 360 q 363 443 346 432 q 390 450 375 453 q 419 436 404 447 q 469 389 446 418 q 505 341 489 365 q 528 304 521 317 q 564 233 549 269 q 586 160 579 197 q 592 57 597 107 q 561 -36 588 7 q 478 -117 533 -85 q 385 -143 433 -140 q 293 -126 336 -146 q 249 -99 269 -115 q 214 -58 229 -82 q 210 -40 208 -49 q 219 -28 213 -32 q 233 -25 225 -24 q 249 -35 242 -26 q 285 -71 265 -57 q 328 -92 306 -85 q 436 -90 381 -110 q 514 -34 482 -75 q 549 65 546 7 q 531 193 550 129 q 490 285 515 240 q 437 360 465 329 q 385 407 408 390 q 353 379 367 393 q 324 346 340 365 q 248 259 286 303 q 168 175 210 215 m 328 -222 q 311 -216 317 -222 q 306 -202 306 -210 q 310 -188 306 -194 q 326 -181 315 -182 l 413 -181 q 432 -204 432 -185 q 395 -346 432 -279 q 303 -461 358 -412 q 286 -466 294 -468 q 274 -458 278 -464 q 269 -444 269 -453 q 276 -429 269 -436 q 389 -222 369 -347 l 328 -222 l 328 -222 z "},"":{"ha":703,"x_min":63,"x_max":633,"o":"m 528 924 q 511 930 517 924 q 506 944 506 936 q 510 958 506 951 q 526 965 515 964 l 613 965 q 632 942 632 961 q 595 800 632 867 q 503 685 558 733 q 486 680 494 678 q 474 688 478 682 q 469 701 469 693 q 476 717 469 710 q 589 924 569 799 l 528 924 m 244 822 q 254 835 247 832 q 269 836 261 838 q 281 828 276 835 q 285 814 286 822 q 255 700 271 761 q 224 572 239 639 q 210 503 217 538 l 267 525 q 456 597 360 561 q 480 585 475 600 q 469 558 485 569 q 281 486 375 522 q 200 454 240 471 q 199 439 200 447 q 185 308 188 372 q 185 224 182 264 q 197 147 188 183 q 244 63 213 89 q 313 35 275 36 q 379 47 344 33 q 449 83 414 61 q 527 146 490 111 q 589 210 564 181 q 618 215 603 225 q 622 186 633 206 q 556 115 593 150 q 478 53 519 81 q 394 8 439 26 q 283 -6 336 -14 q 211 30 242 1 q 165 104 181 58 q 143 300 139 190 q 156 436 144 367 l 156 438 l 92 414 q 74 415 81 411 q 65 426 67 419 q 65 441 63 433 q 78 453 68 449 q 163 485 121 468 q 182 575 172 531 q 214 706 197 643 q 244 822 231 769 z "},"":{"ha":610,"x_min":125,"x_max":796,"o":"m 260 47 q 247 57 250 50 q 244 71 243 64 q 250 83 244 78 q 265 89 256 89 q 303 85 283 86 q 344 83 324 83 q 385 135 364 110 q 426 186 407 160 q 455 230 442 207 q 475 276 468 253 q 477 324 483 306 q 456 351 471 343 q 374 349 424 368 q 317 317 342 336 q 268 275 292 299 q 218 224 243 251 q 164 169 193 197 q 137 169 149 158 q 133 197 125 181 q 204 269 176 240 q 268 329 232 299 q 308 360 288 346 q 353 385 329 374 q 415 402 385 400 q 468 393 444 404 q 512 347 497 379 q 515 268 526 315 q 467 171 501 215 q 399 83 433 126 q 420 84 410 83 q 442 86 431 85 q 508 93 476 89 q 568 104 540 97 q 613 117 590 110 q 660 138 636 125 q 710 171 685 151 q 763 218 736 190 q 778 224 771 225 q 790 218 786 224 q 795 203 794 213 q 789 186 796 194 q 675 103 739 133 q 574 65 626 78 q 503 53 542 58 q 424 44 464 47 q 394 42 408 43 q 367 42 381 42 q 360 32 363 38 q 333 -17 344 8 q 321 -71 321 -43 q 327 -89 321 -83 q 340 -97 333 -94 q 369 -99 353 -101 q 401 -92 386 -96 q 485 -56 444 -78 q 561 -10 525 -33 q 579 -8 571 -6 q 591 -17 588 -11 q 593 -32 594 -24 q 582 -46 592 -40 q 529 -78 557 -62 q 474 -107 501 -93 q 442 -121 458 -114 q 410 -132 425 -128 q 337 -138 369 -143 q 289 -110 304 -133 q 286 -26 269 -82 q 299 10 292 -7 q 317 42 307 26 q 288 44 301 43 q 260 47 274 44 m 332 501 q 306 510 314 496 q 311 538 299 525 q 375 581 347 563 q 428 618 403 600 q 481 655 454 636 q 544 697 508 674 q 563 699 554 701 q 574 690 571 696 q 576 675 578 683 q 565 661 575 667 q 502 619 529 638 q 449 582 475 600 q 396 545 424 564 q 332 501 368 526 z "},"":{"ha":610,"x_min":125,"x_max":796,"o":"m 260 47 q 247 57 250 50 q 244 71 243 64 q 250 83 244 78 q 265 89 256 89 q 303 85 283 86 q 344 83 324 83 q 385 135 364 110 q 426 186 407 160 q 455 230 442 207 q 475 276 468 253 q 477 324 483 306 q 456 351 471 343 q 374 349 424 368 q 317 317 342 336 q 268 275 292 299 q 218 224 243 251 q 164 169 193 197 q 137 169 149 158 q 133 197 125 181 q 204 269 176 240 q 268 329 232 299 q 308 360 288 346 q 353 385 329 374 q 415 402 385 400 q 468 393 444 404 q 512 347 497 379 q 515 268 526 315 q 467 171 501 215 q 399 83 433 126 q 420 84 410 83 q 442 86 431 85 q 508 93 476 89 q 568 104 540 97 q 613 117 590 110 q 660 138 636 125 q 710 171 685 151 q 763 218 736 190 q 778 224 771 225 q 790 218 786 224 q 795 203 794 213 q 789 186 796 194 q 675 103 739 133 q 574 65 626 78 q 503 53 542 58 q 424 44 464 47 q 394 42 408 43 q 367 42 381 42 q 360 32 363 38 q 333 -17 344 8 q 321 -71 321 -43 q 327 -89 321 -83 q 340 -97 333 -94 q 369 -99 353 -101 q 401 -92 386 -96 q 485 -56 444 -78 q 561 -10 525 -33 q 579 -8 571 -6 q 591 -17 588 -11 q 593 -32 594 -24 q 582 -46 592 -40 q 529 -78 557 -62 q 474 -107 501 -93 q 442 -121 458 -114 q 410 -132 425 -128 q 337 -138 369 -143 q 289 -110 304 -133 q 286 -26 269 -82 q 299 10 292 -7 q 317 42 307 26 q 288 44 301 43 q 260 47 274 44 m 272 656 q 274 684 263 672 q 303 685 286 696 q 375 609 339 647 q 447 533 411 571 q 531 594 489 564 q 613 656 572 625 q 640 651 631 664 q 639 624 650 639 q 549 557 594 590 q 458 490 504 524 q 428 492 443 481 q 272 656 350 575 z "},"":{"ha":610,"x_min":125,"x_max":796,"o":"m 260 47 q 247 57 250 50 q 244 71 243 64 q 250 83 244 78 q 265 89 256 89 q 303 85 283 86 q 344 83 324 83 q 385 135 364 110 q 426 186 407 160 q 455 230 442 207 q 475 276 468 253 q 477 324 483 306 q 456 351 471 343 q 374 349 424 368 q 317 317 342 336 q 268 275 292 299 q 218 224 243 251 q 164 169 193 197 q 137 169 149 158 q 133 197 125 181 q 204 269 176 240 q 268 329 232 299 q 308 360 288 346 q 353 385 329 374 q 415 402 385 400 q 468 393 444 404 q 512 347 497 379 q 515 268 526 315 q 467 171 501 215 q 399 83 433 126 q 420 84 410 83 q 442 86 431 85 q 508 93 476 89 q 568 104 540 97 q 613 117 590 110 q 660 138 636 125 q 710 171 685 151 q 763 218 736 190 q 778 224 771 225 q 790 218 786 224 q 795 203 794 213 q 789 186 796 194 q 675 103 739 133 q 574 65 626 78 q 503 53 542 58 q 424 44 464 47 q 394 42 408 43 q 367 42 381 42 q 360 32 363 38 q 333 -17 344 8 q 321 -71 321 -43 q 327 -89 321 -83 q 340 -97 333 -94 q 369 -99 353 -101 q 401 -92 386 -96 q 485 -56 444 -78 q 561 -10 525 -33 q 579 -8 571 -6 q 591 -17 588 -11 q 593 -32 594 -24 q 582 -46 592 -40 q 529 -78 557 -62 q 474 -107 501 -93 q 442 -121 458 -114 q 410 -132 425 -128 q 337 -138 369 -143 q 289 -110 304 -133 q 286 -26 269 -82 q 299 10 292 -7 q 317 42 307 26 q 288 44 301 43 q 260 47 274 44 m 408 525 q 418 548 408 539 q 443 557 428 557 q 468 548 458 557 q 478 525 478 539 q 468 502 478 511 q 443 493 458 493 q 418 502 428 493 q 408 525 408 511 z "},"":{"ha":903,"x_min":218,"x_max":1094,"o":"m 260 22 q 237 5 253 4 q 218 25 221 6 q 272 444 240 236 q 356 858 303 651 q 376 874 361 872 q 522 884 449 882 q 668 872 596 886 q 726 856 697 867 q 781 828 756 846 q 885 700 860 774 q 896 551 911 626 q 866 467 888 507 q 813 393 844 426 q 742 337 782 360 q 657 304 703 314 q 513 311 585 289 q 459 336 486 319 q 410 368 432 353 q 429 317 418 344 q 454 261 440 289 q 505 171 474 221 q 581 85 536 121 q 653 40 617 56 q 725 22 689 25 q 858 47 794 15 q 981 138 922 79 q 1016 175 1000 157 q 1053 215 1032 193 q 1081 221 1067 229 q 1088 193 1094 213 q 1036 135 1058 157 q 986 85 1014 113 q 932 39 961 61 q 871 3 903 17 q 663 -8 763 -42 q 488 125 564 24 q 350 425 399 239 q 356 448 347 440 q 375 450 364 456 q 404 429 392 443 q 429 404 417 415 q 504 360 464 376 q 589 342 544 343 q 698 362 647 339 q 785 424 749 385 q 842 516 822 464 q 860 625 861 568 q 804 758 857 703 q 743 803 776 786 q 672 831 710 821 q 531 844 604 847 q 392 833 457 840 q 314 430 347 631 q 260 22 281 229 m 503 978 q 477 987 485 972 q 482 1014 469 1001 q 546 1058 518 1039 q 599 1094 574 1076 q 652 1131 625 1113 q 715 1174 679 1150 q 733 1175 725 1178 q 745 1166 742 1172 q 747 1151 749 1160 q 736 1138 746 1143 q 673 1095 700 1114 q 620 1058 646 1076 q 567 1022 594 1040 q 503 978 539 1003 z "},"":{"ha":1047,"x_min":131,"x_max":1231,"o":"m 161 347 q 144 353 150 347 q 139 367 139 360 q 144 381 139 374 q 161 389 150 388 q 264 390 208 389 q 379 390 319 390 l 708 882 q 717 892 711 889 q 729 896 724 896 q 744 887 740 896 q 747 867 749 878 q 742 693 743 782 q 747 517 740 604 q 769 344 753 429 q 817 179 785 258 q 946 33 868 47 q 1005 42 974 28 q 1067 81 1036 57 q 1141 151 1107 113 q 1196 213 1175 190 q 1212 220 1204 221 q 1224 214 1219 219 q 1230 200 1229 208 q 1222 183 1231 192 q 1197 154 1213 172 q 1163 115 1182 136 q 1123 74 1144 94 q 1076 36 1101 53 q 983 -7 1032 4 q 889 10 933 -18 q 821 76 846 36 q 778 164 796 117 q 733 316 750 236 q 710 478 717 396 q 702 643 703 561 q 704 801 701 725 q 567 597 635 699 q 429 392 499 494 q 556 394 494 393 q 669 397 617 394 q 683 392 678 397 q 689 381 688 388 q 686 365 690 372 q 672 356 682 357 q 544 351 614 353 q 400 349 474 350 l 171 7 q 156 -3 164 -1 q 142 -1 149 -4 q 133 11 136 3 q 136 29 131 19 q 243 189 189 110 q 350 349 297 268 q 251 347 299 347 q 161 347 203 347 m 539 957 q 625 1030 583 993 q 710 1106 667 1067 q 740 1104 726 1114 q 824 1028 783 1065 q 907 954 865 992 q 906 926 918 938 q 878 924 894 914 q 802 993 840 958 q 725 1061 764 1028 q 645 994 685 1028 q 567 925 606 960 q 551 922 558 921 q 539 929 543 924 q 534 942 535 935 q 539 957 533 949 z "},"":{"ha":1047,"x_min":131,"x_max":1231,"o":"m 161 347 q 144 353 150 347 q 139 367 139 360 q 144 381 139 374 q 161 389 150 388 q 264 390 208 389 q 379 390 319 390 l 708 882 q 717 892 711 889 q 729 896 724 896 q 744 887 740 896 q 747 867 749 878 q 742 693 743 782 q 747 517 740 604 q 769 344 753 429 q 817 179 785 258 q 946 33 868 47 q 1005 42 974 28 q 1067 81 1036 57 q 1141 151 1107 113 q 1196 213 1175 190 q 1212 220 1204 221 q 1224 214 1219 219 q 1230 200 1229 208 q 1222 183 1231 192 q 1197 154 1213 172 q 1163 115 1182 136 q 1123 74 1144 94 q 1076 36 1101 53 q 983 -7 1032 4 q 889 10 933 -18 q 821 76 846 36 q 778 164 796 117 q 733 316 750 236 q 710 478 717 396 q 702 643 703 561 q 704 801 701 725 q 567 597 635 699 q 429 392 499 494 q 556 394 494 393 q 669 397 617 394 q 683 392 678 397 q 689 381 688 388 q 686 365 690 372 q 672 356 682 357 q 544 351 614 353 q 400 349 474 350 l 171 7 q 156 -3 164 -1 q 142 -1 149 -4 q 133 11 136 3 q 136 29 131 19 q 243 189 189 110 q 350 349 297 268 q 251 347 299 347 q 161 347 203 347 m 553 1088 q 555 1104 550 1097 q 567 1113 560 1111 q 581 1112 574 1115 q 593 1099 589 1108 q 628 1042 604 1065 q 681 1008 651 1019 q 753 1001 715 996 q 824 1033 792 1007 q 849 1055 836 1043 q 869 1081 863 1067 q 882 1093 874 1090 q 897 1093 890 1096 q 907 1083 903 1090 q 907 1065 911 1075 q 882 1031 897 1046 q 850 1001 867 1015 q 765 962 810 969 q 679 965 721 954 q 603 1008 638 976 q 553 1088 569 1039 z "},"":{"ha":1047,"x_min":131,"x_max":1231,"o":"m 161 347 q 144 353 150 347 q 139 367 139 360 q 144 381 139 374 q 161 389 150 388 q 264 390 208 389 q 379 390 319 390 l 708 882 q 717 892 711 889 q 729 896 724 896 q 744 887 740 896 q 747 867 749 878 q 742 693 743 782 q 747 517 740 604 q 769 344 753 429 q 817 179 785 258 q 946 33 868 47 q 1005 42 974 28 q 1067 81 1036 57 q 1141 151 1107 113 q 1196 213 1175 190 q 1212 220 1204 221 q 1224 214 1219 219 q 1230 200 1229 208 q 1222 183 1231 192 q 1197 154 1213 172 q 1163 115 1182 136 q 1123 74 1144 94 q 1076 36 1101 53 q 983 -7 1032 4 q 889 10 933 -18 q 821 76 846 36 q 778 164 796 117 q 733 316 750 236 q 710 478 717 396 q 702 643 703 561 q 704 801 701 725 q 567 597 635 699 q 429 392 499 494 q 556 394 494 393 q 669 397 617 394 q 683 392 678 397 q 689 381 688 388 q 686 365 690 372 q 672 356 682 357 q 544 351 614 353 q 400 349 474 350 l 171 7 q 156 -3 164 -1 q 142 -1 149 -4 q 133 11 136 3 q 136 29 131 19 q 243 189 189 110 q 350 349 297 268 q 251 347 299 347 q 161 347 203 347 m 614 983 q 624 1006 614 997 q 649 1015 633 1015 q 674 1006 664 1015 q 683 983 683 997 q 674 960 683 969 q 649 951 664 951 q 624 960 633 951 q 614 983 614 969 m 781 983 q 790 1006 781 997 q 815 1015 800 1015 q 840 1006 831 1015 q 850 983 850 997 q 840 960 850 969 q 815 951 831 951 q 790 960 800 951 q 781 983 781 969 z "},"":{"ha":847,"x_min":56,"x_max":1031,"o":"m 725 928 q 736 908 736 921 q 731 894 736 900 q 715 888 725 888 q 706 890 714 888 q 657 906 682 901 q 606 910 632 910 q 497 876 542 910 q 421 783 453 842 q 369 656 389 728 q 335 507 349 583 q 311 354 321 431 q 292 214 301 278 q 283 161 288 190 q 271 100 278 132 q 306 88 289 94 q 340 74 324 82 q 477 17 408 39 q 615 -4 546 -4 q 813 54 719 -4 q 994 213 907 113 q 1011 219 1001 219 q 1031 200 1031 219 q 1025 185 1031 192 q 935 94 983 136 q 835 20 888 51 q 724 -29 782 -11 q 601 -47 665 -47 q 501 -34 550 -47 q 407 -4 453 -21 q 337 26 375 7 q 258 60 299 46 q 213 -16 242 15 q 135 -47 183 -47 q 79 -26 103 -47 q 56 22 56 -6 q 69 63 56 46 q 103 90 83 79 q 147 107 124 101 q 190 113 171 113 q 231 108 210 113 q 243 170 239 140 q 251 222 247 200 q 272 363 261 286 q 297 517 282 439 q 333 671 311 596 q 388 806 354 746 q 480 915 425 874 q 614 956 535 956 q 725 928 667 956 m 129 -6 q 184 17 163 -6 q 218 71 206 39 q 203 73 211 72 q 188 74 194 74 q 160 71 175 74 q 133 61 146 68 q 111 44 121 54 q 100 17 101 33 q 107 1 104 7 q 129 -6 110 -6 m 453 983 q 427 992 435 978 q 432 1019 419 1007 q 496 1063 468 1044 q 549 1100 524 1082 q 602 1137 575 1118 q 665 1179 629 1156 q 683 1181 675 1183 q 695 1172 692 1178 q 697 1157 699 1165 q 686 1143 696 1149 q 623 1101 650 1119 q 570 1064 596 1082 q 517 1027 544 1046 q 453 983 489 1008 z "},"":{"ha":778,"x_min":144,"x_max":965,"o":"m 928 213 q 944 221 936 221 q 958 215 953 221 q 964 201 963 210 q 958 185 965 193 q 835 69 900 122 q 690 -19 769 17 q 582 -58 635 -44 q 468 -69 529 -72 q 359 -46 410 -68 q 269 13 308 -24 q 201 97 229 49 q 161 199 174 144 q 147 344 144 269 q 169 490 150 418 q 225 628 189 563 q 311 746 261 693 q 417 826 353 790 q 564 864 482 861 q 646 844 604 865 q 706 781 688 824 q 706 763 710 769 q 694 753 701 756 q 679 752 688 750 q 667 764 671 754 q 626 812 653 799 q 565 825 599 825 q 486 814 522 825 q 419 785 450 803 q 365 744 389 767 q 319 696 340 721 q 245 581 275 643 q 201 453 215 519 q 187 320 186 388 q 204 190 188 253 q 237 108 215 146 q 290 40 258 69 q 366 -7 322 11 q 467 -28 410 -25 q 573 -17 521 -31 q 674 18 625 -4 q 810 103 747 54 q 928 213 872 153 m 415 908 q 390 917 397 903 q 394 944 382 932 q 458 988 431 969 q 512 1025 486 1007 q 565 1062 538 1043 q 628 1104 592 1081 q 646 1106 638 1108 q 658 1097 654 1103 q 660 1082 661 1090 q 649 1068 658 1074 q 585 1026 613 1044 q 533 989 558 1007 q 479 952 507 971 q 415 908 451 933 z "},"":{"ha":778,"x_min":144,"x_max":965,"o":"m 928 213 q 944 221 936 221 q 958 215 953 221 q 964 201 963 210 q 958 185 965 193 q 835 69 900 122 q 690 -19 769 17 q 582 -58 635 -44 q 468 -69 529 -72 q 458 -69 463 -69 q 449 -68 453 -68 q 435 -106 442 -83 q 425 -144 428 -128 q 492 -136 458 -135 q 552 -151 525 -137 q 596 -191 579 -164 q 611 -258 613 -218 q 603 -303 610 -281 q 581 -343 596 -326 q 516 -390 553 -374 q 439 -410 479 -406 q 358 -411 399 -415 q 279 -396 317 -407 q 265 -384 268 -392 q 265 -369 263 -376 q 274 -357 267 -361 q 292 -356 281 -353 q 358 -370 325 -365 q 428 -369 392 -375 q 460 -365 443 -368 q 494 -355 478 -361 q 526 -339 511 -349 q 550 -315 540 -329 q 568 -239 575 -282 q 546 -194 564 -208 q 503 -178 528 -181 q 453 -182 479 -176 q 406 -197 426 -187 q 376 -178 381 -204 q 386 -120 376 -154 q 407 -61 396 -86 q 247 32 311 -39 q 161 199 183 103 q 147 344 144 269 q 169 490 150 418 q 225 628 189 563 q 311 746 261 693 q 417 826 353 790 q 564 864 482 861 q 646 844 604 865 q 706 781 688 824 q 706 763 710 769 q 694 753 701 756 q 679 752 688 750 q 667 764 671 754 q 626 812 653 799 q 565 825 599 825 q 486 814 522 825 q 419 785 450 803 q 365 744 389 767 q 319 696 340 721 q 245 581 275 643 q 201 453 215 519 q 187 320 186 388 q 204 190 188 253 q 237 108 215 146 q 290 40 258 69 q 366 -7 322 11 q 467 -28 410 -25 q 573 -17 521 -31 q 674 18 625 -4 q 810 103 747 54 q 928 213 872 153 z "},"":{"ha":778,"x_min":144,"x_max":965,"o":"m 928 213 q 944 221 936 221 q 958 215 953 221 q 964 201 963 210 q 958 185 965 193 q 835 69 900 122 q 690 -19 769 17 q 582 -58 635 -44 q 468 -69 529 -72 q 359 -46 410 -68 q 269 13 308 -24 q 201 97 229 49 q 161 199 174 144 q 147 344 144 269 q 169 490 150 418 q 225 628 189 563 q 311 746 261 693 q 417 826 353 790 q 564 864 482 861 q 646 844 604 865 q 706 781 688 824 q 706 763 710 769 q 694 753 701 756 q 679 752 688 750 q 667 764 671 754 q 626 812 653 799 q 565 825 599 825 q 486 814 522 825 q 419 785 450 803 q 365 744 389 767 q 319 696 340 721 q 245 581 275 643 q 201 453 215 519 q 187 320 186 388 q 204 190 188 253 q 237 108 215 146 q 290 40 258 69 q 366 -7 322 11 q 467 -28 410 -25 q 573 -17 521 -31 q 674 18 625 -4 q 810 103 747 54 q 928 213 872 153 m 374 1101 q 376 1130 364 1118 q 404 1131 388 1142 q 476 1055 440 1093 q 549 979 513 1017 q 632 1040 590 1010 q 714 1101 674 1071 q 742 1097 732 1110 q 740 1069 751 1085 q 651 1003 696 1036 q 560 936 606 969 q 529 938 544 926 q 374 1101 451 1021 z "},"":{"ha":778,"x_min":85,"x_max":965,"o":"m 107 478 q 90 484 96 478 q 85 497 85 490 q 90 511 85 504 q 107 519 96 518 l 167 519 q 174 554 169 538 q 182 589 178 571 q 194 638 186 610 q 211 696 203 667 q 228 753 219 725 q 242 801 236 781 q 260 816 243 810 q 300 826 278 822 q 345 834 322 831 q 382 839 368 838 q 547 851 457 846 q 724 854 638 857 q 743 834 743 850 q 725 813 743 818 q 585 813 654 815 q 446 804 517 810 q 406 801 429 803 q 358 796 382 799 q 314 788 335 793 q 281 778 293 783 q 239 652 257 718 q 208 519 221 586 q 312 520 258 519 q 419 522 365 521 q 522 525 472 524 q 615 528 572 526 q 635 508 635 524 q 618 486 636 493 q 522 483 574 485 q 417 481 471 482 q 308 478 363 479 q 201 478 253 478 q 188 347 192 424 q 204 190 185 269 q 238 107 215 146 q 293 39 260 68 q 368 -7 325 11 q 467 -28 411 -25 q 573 -17 521 -31 q 674 18 625 -4 q 810 103 747 54 q 928 213 872 153 q 944 221 936 221 q 958 215 953 221 q 964 201 963 210 q 958 185 965 193 q 835 69 900 122 q 690 -19 769 17 q 594 -54 642 -42 q 496 -69 547 -67 q 490 -79 493 -75 q 466 -115 475 -94 q 451 -160 457 -136 q 454 -258 440 -214 q 500 -299 474 -287 q 567 -303 532 -314 q 639 -269 603 -292 q 657 -268 649 -265 q 669 -277 665 -271 q 671 -292 672 -283 q 660 -306 669 -300 q 581 -341 619 -329 q 493 -342 542 -353 q 426 -294 449 -332 q 405 -231 408 -267 q 408 -158 401 -194 q 423 -110 414 -133 q 444 -68 432 -86 q 353 -42 396 -62 q 275 7 310 -22 q 204 92 233 43 q 161 199 175 142 q 147 335 144 268 q 160 478 150 403 l 107 478 l 107 478 z "},"":{"ha":778,"x_min":85,"x_max":965,"o":"m 107 478 q 90 484 96 478 q 85 497 85 490 q 90 511 85 504 q 107 519 96 518 l 167 519 q 174 554 169 538 q 182 589 178 571 q 194 638 186 610 q 211 696 203 667 q 228 753 219 725 q 242 801 236 781 q 260 816 243 810 q 300 826 278 822 q 345 834 322 831 q 382 839 368 838 q 547 851 457 846 q 724 854 638 857 q 743 834 743 850 q 725 813 743 818 q 585 813 654 815 q 446 804 517 810 q 406 801 429 803 q 358 796 382 799 q 314 788 335 793 q 281 778 293 783 q 239 652 257 718 q 208 519 221 586 q 312 520 258 519 q 419 522 365 521 q 522 525 472 524 q 615 528 572 526 q 635 508 635 524 q 618 486 636 493 q 522 483 574 485 q 417 481 471 482 q 308 478 363 479 q 201 478 253 478 q 188 347 192 424 q 204 190 185 269 q 238 107 215 146 q 293 39 260 68 q 368 -7 325 11 q 467 -28 411 -25 q 573 -17 521 -31 q 674 18 625 -4 q 810 103 747 54 q 928 213 872 153 q 944 221 936 221 q 958 215 953 221 q 964 201 963 210 q 958 185 965 193 q 835 69 900 122 q 690 -19 769 17 q 582 -58 635 -44 q 468 -69 529 -72 q 363 -47 411 -67 q 275 7 314 -26 q 204 92 233 43 q 161 199 175 142 q 147 335 144 268 q 160 478 150 403 l 107 478 l 107 478 m 349 972 q 358 995 349 986 q 383 1004 368 1004 q 408 995 399 1004 q 418 972 418 986 q 408 949 418 958 q 383 940 399 940 q 358 949 368 940 q 349 972 349 958 m 515 972 q 525 995 515 986 q 550 1004 535 1004 q 575 995 565 1004 q 585 972 585 986 q 575 949 585 958 q 550 940 565 940 q 525 949 535 940 q 515 972 515 958 z "},"":{"ha":778,"x_min":85,"x_max":965,"o":"m 107 478 q 90 484 96 478 q 85 497 85 490 q 90 511 85 504 q 107 519 96 518 l 167 519 q 174 554 169 538 q 182 589 178 571 q 194 638 186 610 q 211 696 203 667 q 228 753 219 725 q 242 801 236 781 q 260 816 243 810 q 300 826 278 822 q 345 834 322 831 q 382 839 368 838 q 547 851 457 846 q 724 854 638 857 q 743 834 743 850 q 725 813 743 818 q 585 813 654 815 q 446 804 517 810 q 406 801 429 803 q 358 796 382 799 q 314 788 335 793 q 281 778 293 783 q 239 652 257 718 q 208 519 221 586 q 312 520 258 519 q 419 522 365 521 q 522 525 472 524 q 615 528 572 526 q 635 508 635 524 q 618 486 636 493 q 522 483 574 485 q 417 481 471 482 q 308 478 363 479 q 201 478 253 478 q 188 347 192 424 q 204 190 185 269 q 238 107 215 146 q 293 39 260 68 q 368 -7 325 11 q 467 -28 411 -25 q 573 -17 521 -31 q 674 18 625 -4 q 810 103 747 54 q 928 213 872 153 q 944 221 936 221 q 958 215 953 221 q 964 201 963 210 q 958 185 965 193 q 835 69 900 122 q 690 -19 769 17 q 582 -58 635 -44 q 468 -69 529 -72 q 363 -47 411 -67 q 275 7 314 -26 q 204 92 233 43 q 161 199 175 142 q 147 335 144 268 q 160 478 150 403 l 107 478 l 107 478 m 329 1093 q 331 1122 319 1110 q 360 1122 343 1133 q 432 1047 396 1085 q 504 971 468 1008 q 588 1032 546 1001 q 669 1093 629 1063 q 697 1089 688 1101 q 696 1061 707 1076 q 606 994 651 1028 q 515 928 561 961 q 485 929 500 918 q 329 1093 407 1013 z "},"":{"ha":519,"x_min":24,"x_max":490,"o":"m 50 851 q 27 869 31 853 q 42 892 24 885 q 239 912 140 904 q 438 926 338 919 q 457 910 451 924 q 470 802 464 856 q 481 694 476 749 q 489 531 488 613 q 483 363 490 450 q 471 274 481 321 q 444 181 461 226 q 402 97 426 136 q 344 29 378 57 q 267 -11 310 1 q 169 -12 224 -24 q 111 8 138 -6 q 58 38 85 22 q 53 67 42 53 q 83 71 64 82 q 128 45 106 57 q 176 29 150 33 q 294 45 247 17 q 372 126 342 74 q 413 219 397 171 q 436 319 428 267 q 449 507 451 411 q 439 690 446 603 q 430 787 435 739 q 418 883 425 835 q 234 869 326 876 q 50 851 142 863 m 108 1032 q 194 1105 153 1068 q 279 1181 236 1142 q 310 1179 296 1189 q 394 1103 353 1140 q 476 1029 435 1067 q 476 1001 488 1013 q 447 999 464 989 q 372 1068 410 1033 q 294 1136 333 1103 q 215 1069 254 1103 q 136 1000 175 1035 q 120 997 128 996 q 108 1004 113 999 q 103 1017 104 1010 q 108 1032 103 1024 z "},"":{"ha":767,"x_min":17,"x_max":847,"o":"m 33 96 q 28 126 17 111 q 58 129 39 140 q 184 58 121 89 q 319 7 247 26 q 432 -12 374 -7 q 546 -6 490 -17 q 687 61 633 14 q 769 172 740 108 q 802 310 797 235 q 796 464 807 386 q 772 582 788 522 q 722 690 756 642 q 631 778 682 750 q 521 810 579 807 q 419 794 469 813 q 319 742 368 776 q 287 422 300 581 q 249 103 274 264 q 226 85 242 85 q 207 106 210 86 q 231 281 219 193 q 250 460 242 369 q 265 605 257 533 q 279 751 274 676 q 291 769 279 760 q 318 789 303 779 q 351 808 333 799 q 381 821 368 817 q 540 847 464 854 q 624 828 583 844 q 706 775 665 811 q 781 674 751 733 q 826 547 810 614 q 844 410 842 479 q 842 283 847 342 q 818 173 836 229 q 760 76 800 117 q 574 -37 676 -11 q 353 -43 471 -64 q 186 10 264 -26 q 33 96 108 47 m 346 1063 q 348 1091 336 1079 q 376 1092 360 1103 q 449 1016 413 1054 q 521 940 485 978 q 604 1001 563 971 q 686 1063 646 1032 q 714 1058 704 1071 q 713 1031 724 1046 q 623 964 668 997 q 532 897 578 931 q 501 899 517 888 q 346 1063 424 982 z "},"":{"ha":1089,"x_min":107,"x_max":990,"o":"m 149 -3 q 138 -17 146 -14 q 124 -19 131 -21 q 112 -12 117 -18 q 108 6 107 -6 q 159 234 132 119 q 221 461 186 349 q 299 682 256 574 q 400 893 343 790 q 422 901 411 904 q 438 885 432 899 q 479 626 457 754 q 540 371 501 497 q 574 260 554 321 q 624 147 594 200 q 694 59 653 94 q 790 24 735 24 q 879 61 850 24 q 926 158 908 99 q 945 274 942 213 q 944 398 949 335 q 928 522 939 461 q 903 638 917 583 q 905 654 900 647 q 917 663 910 661 q 931 662 924 665 q 943 649 939 658 q 982 400 974 525 q 967 150 990 275 q 951 103 963 129 q 928 58 940 78 q 871 3 903 21 q 794 -17 839 -14 q 735 -10 769 -18 q 662 31 700 -3 q 584 135 624 65 q 508 328 544 204 q 483 410 496 367 q 458 512 471 454 q 433 643 446 569 q 406 815 419 717 q 332 651 363 736 q 274 482 301 567 q 204 241 235 361 q 149 -3 174 121 m 683 836 q 658 845 665 831 q 663 872 650 860 q 726 916 699 897 q 780 953 754 935 q 833 990 806 971 q 896 1032 860 1008 q 914 1033 906 1036 q 926 1024 922 1031 q 928 1010 929 1018 q 917 996 926 1001 q 853 953 881 972 q 801 917 826 935 q 747 880 775 899 q 683 836 719 861 z "},"":{"ha":1089,"x_min":107,"x_max":990,"o":"m 149 -3 q 138 -17 146 -14 q 124 -19 131 -21 q 112 -12 117 -18 q 108 6 107 -6 q 159 234 132 119 q 221 461 186 349 q 299 682 256 574 q 400 893 343 790 q 422 901 411 904 q 438 885 432 899 q 479 626 457 754 q 540 371 501 497 q 574 260 554 321 q 624 147 594 200 q 694 59 653 94 q 790 24 735 24 q 879 61 850 24 q 926 158 908 99 q 945 274 942 213 q 944 398 949 335 q 928 522 939 461 q 903 638 917 583 q 905 654 900 647 q 917 663 910 661 q 931 662 924 665 q 943 649 939 658 q 982 400 974 525 q 967 150 990 275 q 951 103 963 129 q 928 58 940 78 q 871 3 903 21 q 794 -17 839 -14 q 735 -10 769 -18 q 662 31 700 -3 q 584 135 624 65 q 508 328 544 204 q 483 410 496 367 q 458 512 471 454 q 433 643 446 569 q 406 815 419 717 q 332 651 363 736 q 274 482 301 567 q 204 241 235 361 q 149 -3 174 121 m 532 1018 q 534 1047 522 1035 q 563 1047 546 1058 q 635 972 599 1010 q 707 896 671 933 q 790 957 749 926 q 872 1018 832 988 q 900 1014 890 1026 q 899 986 910 1001 q 809 919 854 953 q 718 853 764 886 q 688 854 703 843 q 532 1018 610 938 z "},"":{"ha":903,"x_min":99,"x_max":946,"o":"m 919 753 q 942 737 939 753 q 929 713 946 721 q 842 699 881 701 q 761 707 803 697 q 822 596 796 658 q 863 467 849 533 q 874 338 876 401 q 850 226 872 275 q 833 189 840 206 q 817 156 825 172 q 798 125 808 140 q 771 93 788 110 q 683 22 732 50 q 579 -20 633 -7 q 468 -33 525 -33 q 358 -17 411 -32 q 317 1 339 -11 q 275 27 296 13 q 235 58 254 42 q 204 89 217 74 q 120 254 142 163 q 113 442 99 346 q 174 624 126 538 q 299 764 221 710 q 435 826 361 808 q 583 838 508 843 q 598 828 593 835 q 602 813 603 821 q 595 801 601 806 q 578 796 589 796 q 392 767 481 803 q 243 653 304 731 q 169 499 193 588 q 153 322 144 411 q 202 158 161 235 q 325 40 243 82 q 465 6 392 7 q 604 31 538 4 q 733 113 676 58 q 813 242 789 167 q 831 366 831 300 q 815 497 831 432 q 767 622 799 563 q 693 724 736 681 q 694 749 686 739 q 718 757 701 760 q 817 740 769 739 q 919 753 865 742 m 506 900 q 480 909 488 894 q 485 936 472 924 q 549 980 521 961 q 602 1017 576 999 q 655 1053 628 1035 q 718 1096 682 1072 q 736 1097 728 1100 q 748 1088 744 1094 q 750 1074 751 1082 q 739 1060 749 1065 q 676 1017 703 1036 q 623 981 649 999 q 569 944 597 963 q 506 900 542 925 z "},"":{"ha":903,"x_min":99,"x_max":946,"o":"m 919 753 q 942 737 939 753 q 929 713 946 721 q 842 699 881 701 q 761 707 803 697 q 822 596 796 658 q 863 467 849 533 q 874 338 876 401 q 850 226 872 275 q 833 189 840 206 q 817 156 825 172 q 798 125 808 140 q 771 93 788 110 q 683 22 732 50 q 579 -20 633 -7 q 468 -33 525 -33 q 358 -17 411 -32 q 317 1 339 -11 q 275 27 296 13 q 235 58 254 42 q 204 89 217 74 q 120 254 142 163 q 113 442 99 346 q 174 624 126 538 q 299 764 221 710 q 435 826 361 808 q 583 838 508 843 q 598 828 593 835 q 602 813 603 821 q 595 801 601 806 q 578 796 589 796 q 392 767 481 803 q 243 653 304 731 q 169 499 193 588 q 153 322 144 411 q 202 158 161 235 q 325 40 243 82 q 465 6 392 7 q 604 31 538 4 q 733 113 676 58 q 813 242 789 167 q 831 366 831 300 q 815 497 831 432 q 767 622 799 563 q 693 724 736 681 q 694 749 686 739 q 718 757 701 760 q 817 740 769 739 q 919 753 865 742 m 378 926 q 464 999 422 963 q 549 1075 506 1036 q 579 1074 565 1083 q 663 998 622 1035 q 746 924 704 961 q 745 895 757 907 q 717 893 733 883 q 641 963 679 928 q 564 1031 603 997 q 484 963 524 997 q 406 894 444 929 q 390 892 397 890 q 378 899 382 893 q 373 911 374 904 q 378 926 372 918 z "},"":{"ha":903,"x_min":99,"x_max":946,"o":"m 919 753 q 942 737 939 753 q 929 713 946 721 q 842 699 881 701 q 761 707 803 697 q 822 596 796 658 q 863 467 849 533 q 874 338 876 401 q 850 226 872 275 q 833 189 840 206 q 817 156 825 172 q 798 125 808 140 q 771 93 788 110 q 683 22 732 50 q 579 -20 633 -7 q 468 -33 525 -33 q 358 -17 411 -32 q 317 1 339 -11 q 275 27 296 13 q 235 58 254 42 q 204 89 217 74 q 120 254 142 163 q 113 442 99 346 q 174 624 126 538 q 299 764 221 710 q 435 826 361 808 q 583 838 508 843 q 598 828 593 835 q 602 813 603 821 q 595 801 601 806 q 578 796 589 796 q 392 767 481 803 q 243 653 304 731 q 169 499 193 588 q 153 322 144 411 q 202 158 161 235 q 325 40 243 82 q 465 6 392 7 q 604 31 538 4 q 733 113 676 58 q 813 242 789 167 q 831 366 831 300 q 815 497 831 432 q 767 622 799 563 q 693 724 736 681 q 694 749 686 739 q 718 757 701 760 q 817 740 769 739 q 919 753 865 742 m 417 967 q 426 990 417 981 q 451 999 436 999 q 476 990 467 999 q 486 967 486 981 q 476 944 486 953 q 451 935 467 935 q 426 944 436 935 q 417 967 417 953 m 583 967 q 593 990 583 981 q 618 999 603 999 q 643 990 633 999 q 653 967 653 981 q 643 944 653 953 q 618 935 633 935 q 593 944 603 935 q 583 967 583 953 z "},"":{"ha":903,"x_min":218,"x_max":1094,"o":"m 260 22 q 237 5 253 4 q 218 25 221 6 q 272 444 240 236 q 356 858 303 651 q 376 874 361 872 q 522 884 449 882 q 668 872 596 886 q 726 856 697 867 q 781 828 756 846 q 885 700 860 774 q 896 551 911 626 q 866 467 888 507 q 813 393 844 426 q 742 337 782 360 q 657 304 703 314 q 513 311 585 289 q 459 336 486 319 q 410 368 432 353 q 429 317 418 344 q 454 261 440 289 q 505 171 474 221 q 581 85 536 121 q 653 40 617 56 q 725 22 689 25 q 858 47 794 15 q 981 138 922 79 q 1016 175 1000 157 q 1053 215 1032 193 q 1081 221 1067 229 q 1088 193 1094 213 q 1036 135 1058 157 q 986 85 1014 113 q 932 39 961 61 q 871 3 903 17 q 663 -8 763 -42 q 488 125 564 24 q 350 425 399 239 q 356 448 347 440 q 375 450 364 456 q 404 429 392 443 q 429 404 417 415 q 504 360 464 376 q 589 342 544 343 q 698 362 647 339 q 785 424 749 385 q 842 516 822 464 q 860 625 861 568 q 804 758 857 703 q 743 803 776 786 q 672 831 710 821 q 531 844 604 847 q 392 833 457 840 q 314 430 347 631 q 260 22 281 229 m 389 1107 q 391 1135 379 1124 q 419 1136 403 1147 q 492 1060 456 1099 q 564 985 528 1022 q 647 1046 606 1015 q 729 1107 689 1076 q 757 1103 747 1115 q 756 1075 767 1090 q 666 1008 711 1042 q 575 942 621 975 q 544 943 560 932 q 389 1107 467 1026 z "},"":{"ha":1014,"x_min":126,"x_max":1197,"o":"m 175 853 q 199 867 183 871 q 215 844 214 864 q 169 482 175 665 q 169 397 168 440 q 174 309 169 353 q 191 223 179 265 q 224 143 203 181 q 306 51 257 81 q 408 19 354 21 q 513 46 461 18 q 607 126 565 74 q 665 222 642 172 q 702 325 688 272 q 725 433 717 378 q 740 543 733 488 q 752 647 747 589 q 760 761 757 704 q 767 776 761 771 q 781 781 774 782 q 795 775 789 781 q 801 758 801 769 q 801 742 801 750 q 800 726 801 735 q 797 661 799 696 q 796 597 796 626 q 798 380 794 489 q 831 165 801 271 q 842 129 835 149 q 859 92 849 110 q 884 61 869 74 q 918 46 899 49 q 976 57 946 42 q 1025 86 1006 72 q 1096 146 1061 113 q 1160 214 1131 179 q 1176 222 1168 222 q 1190 217 1185 222 q 1196 203 1194 211 q 1190 186 1197 194 q 1130 118 1165 151 q 1072 67 1094 85 q 1035 41 1057 54 q 996 19 1013 28 q 909 3 946 -4 q 847 39 872 11 q 806 110 822 67 q 781 199 790 153 q 768 288 772 244 q 763 361 764 331 q 761 389 761 379 q 761 408 761 399 q 712 226 744 314 q 611 68 679 138 q 513 -1 567 22 q 403 -22 458 -24 q 297 8 347 -19 q 207 90 246 36 q 142 253 157 164 q 126 431 126 343 q 139 643 126 538 q 175 853 151 749 m 386 1064 q 403 1127 389 1099 q 447 1175 418 1156 q 519 1190 481 1197 q 557 1176 539 1188 q 590 1150 575 1165 q 617 1108 607 1131 q 625 1061 626 1085 q 603 989 624 1018 q 531 941 576 949 q 446 957 485 933 q 406 999 422 972 q 386 1064 389 1025 m 428 1061 q 440 1022 431 1039 q 471 988 449 1004 q 506 981 490 981 q 540 988 521 981 q 579 1044 569 1010 q 576 1095 586 1069 q 540 1140 567 1121 q 505 1147 521 1147 q 469 1140 489 1147 q 440 1106 449 1124 q 428 1061 431 1088 z "},"":{"ha":1014,"x_min":126,"x_max":1197,"o":"m 175 853 q 199 867 183 871 q 215 844 214 864 q 169 482 175 665 q 169 397 168 440 q 174 309 169 353 q 191 223 179 265 q 224 143 203 181 q 306 51 257 81 q 408 19 354 21 q 513 46 461 18 q 607 126 565 74 q 665 222 642 172 q 702 325 688 272 q 725 433 717 378 q 740 543 733 488 q 752 647 747 589 q 760 761 757 704 q 767 776 761 771 q 781 781 774 782 q 795 775 789 781 q 801 758 801 769 q 801 742 801 750 q 800 726 801 735 q 797 661 799 696 q 796 597 796 626 q 798 380 794 489 q 831 165 801 271 q 842 129 835 149 q 859 92 849 110 q 884 61 869 74 q 918 46 899 49 q 976 57 946 42 q 1025 86 1006 72 q 1096 146 1061 113 q 1160 214 1131 179 q 1176 222 1168 222 q 1190 217 1185 222 q 1196 203 1194 211 q 1190 186 1197 194 q 1130 118 1165 151 q 1072 67 1094 85 q 1035 41 1057 54 q 996 19 1013 28 q 909 3 946 -4 q 847 39 872 11 q 806 110 822 67 q 781 199 790 153 q 768 288 772 244 q 763 361 764 331 q 761 389 761 379 q 761 408 761 399 q 712 226 744 314 q 611 68 679 138 q 513 -1 567 22 q 403 -22 458 -24 q 297 8 347 -19 q 207 90 246 36 q 142 253 157 164 q 126 431 126 343 q 139 643 126 538 q 175 853 151 749 m 421 875 q 395 884 403 869 q 400 911 388 899 q 464 955 436 936 q 517 992 492 974 q 570 1028 543 1010 q 633 1071 597 1047 q 651 1072 643 1075 q 663 1063 660 1069 q 665 1049 667 1057 q 654 1035 664 1040 q 591 992 618 1011 q 538 956 564 974 q 485 919 513 938 q 421 875 457 900 z "},"":{"ha":1014,"x_min":126,"x_max":1197,"o":"m 175 853 q 199 867 183 871 q 215 844 214 864 q 169 482 175 665 q 169 397 168 440 q 174 309 169 353 q 191 223 179 265 q 224 143 203 181 q 306 51 257 81 q 408 19 354 21 q 513 46 461 18 q 607 126 565 74 q 665 222 642 172 q 702 325 688 272 q 725 433 717 378 q 740 543 733 488 q 752 647 747 589 q 760 761 757 704 q 767 776 761 771 q 781 781 774 782 q 795 775 789 781 q 801 758 801 769 q 801 742 801 750 q 800 726 801 735 q 797 661 799 696 q 796 597 796 626 q 798 380 794 489 q 831 165 801 271 q 842 129 835 149 q 859 92 849 110 q 884 61 869 74 q 918 46 899 49 q 976 57 946 42 q 1025 86 1006 72 q 1096 146 1061 113 q 1160 214 1131 179 q 1176 222 1168 222 q 1190 217 1185 222 q 1196 203 1194 211 q 1190 186 1197 194 q 1130 118 1165 151 q 1072 67 1094 85 q 1035 41 1057 54 q 996 19 1013 28 q 909 3 946 -4 q 847 39 872 11 q 806 110 822 67 q 781 199 790 153 q 768 288 772 244 q 763 361 764 331 q 761 389 761 379 q 761 408 761 399 q 712 226 744 314 q 611 68 679 138 q 513 -1 567 22 q 403 -22 458 -24 q 297 8 347 -19 q 207 90 246 36 q 142 253 157 164 q 126 431 126 343 q 139 643 126 538 q 175 853 151 749 m 381 992 q 390 1015 381 1006 q 415 1024 400 1024 q 440 1015 431 1024 q 450 992 450 1006 q 440 969 450 978 q 415 960 431 960 q 390 969 400 960 q 381 992 381 978 m 547 992 q 557 1015 547 1006 q 582 1024 567 1024 q 607 1015 597 1024 q 617 992 617 1006 q 607 969 617 978 q 582 960 597 960 q 557 969 567 960 q 547 992 547 978 z "},"":{"ha":661,"x_min":78,"x_max":733,"o":"m 82 867 q 90 882 83 878 q 103 886 96 886 q 116 881 110 886 q 124 864 122 875 q 124 776 119 822 q 140 687 128 731 q 174 603 153 643 q 226 532 196 563 q 315 474 264 493 q 433 468 367 456 q 449 472 442 469 q 464 476 457 474 q 494 571 479 529 q 533 661 510 613 q 548 692 539 674 q 568 732 557 711 q 593 774 579 753 q 622 813 607 796 q 667 847 643 836 q 714 849 690 858 q 726 833 724 843 q 732 792 733 814 q 724 749 731 771 q 709 706 718 726 q 693 668 700 685 q 646 576 674 619 q 582 499 618 532 q 542 468 563 482 q 497 444 521 454 q 444 226 465 336 q 399 8 422 117 q 388 -6 396 -3 q 374 -8 381 -10 q 362 -1 367 -7 q 358 17 357 6 q 381 126 369 71 q 406 235 393 182 q 424 315 415 279 q 443 393 432 350 q 451 429 447 417 q 447 428 449 429 q 442 428 444 428 q 310 433 368 414 q 207 494 251 453 q 145 572 171 528 q 104 665 119 615 q 83 766 89 714 q 82 867 78 818 m 550 597 q 531 549 539 574 q 514 500 522 525 q 568 544 542 518 q 618 609 596 574 q 656 683 640 644 q 667 711 660 694 q 681 746 674 728 q 694 790 690 771 q 688 810 697 810 q 658 793 674 810 q 626 750 643 776 q 583 670 603 714 q 550 597 563 626 m 371 897 q 345 906 353 892 q 350 933 338 921 q 414 977 386 958 q 467 1014 442 996 q 520 1051 493 1032 q 583 1093 547 1069 q 601 1094 593 1097 q 613 1085 610 1092 q 615 1071 617 1079 q 604 1057 614 1063 q 541 1015 568 1033 q 488 978 514 996 q 435 941 463 960 q 371 897 407 922 z "},"":{"ha":507,"x_min":-139,"x_max":774,"o":"m -107 514 q -122 622 -139 574 q -62 711 -106 671 q 8 762 -32 739 q 89 802 47 785 q 171 832 131 819 q 242 853 211 844 q 382 884 318 871 q 506 905 446 897 q 627 915 567 913 q 758 914 688 917 q 774 893 774 908 q 757 875 774 878 q 619 875 683 878 q 494 865 556 872 q 372 846 433 858 q 244 817 311 833 q 181 798 219 810 q 101 769 143 786 q 21 728 60 751 q -46 678 -18 706 q -85 612 -75 647 q -74 535 -96 576 q -81 510 -68 518 q -107 514 -93 503 m 351 769 q 358 665 358 717 q 356 561 358 613 q 350 447 354 508 q 335 326 346 386 q 306 208 325 265 q 257 106 288 151 q 185 41 225 61 q 93 32 146 21 q 78 26 83 31 q 72 14 74 21 q 75 1 71 7 q 88 -10 79 -6 q 165 -8 129 -18 q 232 23 201 1 q 285 76 263 44 q 324 143 308 107 q 380 347 367 240 q 396 558 393 454 q 399 666 397 611 q 393 774 400 721 q 370 790 386 792 q 351 769 354 789 m 188 -106 q 171 -99 176 -106 q 165 -85 165 -93 q 170 -72 165 -78 q 186 -64 175 -65 l 272 -64 q 292 -87 292 -68 q 255 -229 292 -162 q 163 -344 218 -296 q 146 -349 154 -351 q 133 -342 138 -347 q 129 -328 129 -336 q 136 -312 129 -319 q 249 -106 229 -231 l 188 -106 l 188 -106 z "},"":{"ha":653,"x_min":139,"x_max":838,"o":"m 178 185 q 158 174 167 174 q 145 179 150 174 q 140 193 140 185 q 144 208 139 201 q 194 260 167 232 q 250 315 221 289 q 307 358 279 340 q 359 380 335 376 q 401 368 383 383 q 425 311 418 353 q 430 210 433 265 q 418 99 426 156 q 397 -12 410 43 q 375 -112 385 -67 q 365 -126 372 -122 q 351 -128 358 -129 q 338 -120 343 -126 q 335 -104 332 -114 q 360 13 349 -42 q 379 125 371 68 q 386 192 383 164 q 388 253 389 219 q 381 310 388 286 q 353 333 374 335 q 313 313 336 331 q 265 273 290 296 q 217 226 240 250 q 178 185 194 201 m 428 432 q 433 449 428 443 q 447 456 439 456 q 461 451 454 457 q 469 436 468 446 q 479 384 474 410 q 494 332 485 358 q 533 254 511 288 q 590 186 556 221 q 674 147 629 151 q 713 150 693 146 q 751 167 732 154 q 803 215 774 182 q 818 223 810 224 q 832 217 826 222 q 837 201 838 211 q 826 181 836 192 q 794 149 808 161 q 765 129 779 136 q 676 110 722 106 q 558 165 614 115 q 501 233 526 194 q 457 313 475 271 q 428 432 432 371 m 326 506 q 301 515 308 500 q 306 542 293 529 q 369 585 342 567 q 423 622 397 604 q 476 659 449 640 q 539 701 503 678 q 557 703 549 706 q 569 694 565 700 q 571 679 572 688 q 560 665 569 671 q 497 623 524 642 q 444 586 469 604 q 390 549 418 568 q 326 506 363 531 z "},"":{"ha":783,"x_min":119,"x_max":971,"o":"m 597 306 q 594 286 600 293 q 582 278 589 279 q 567 283 575 278 q 558 299 560 288 q 517 377 547 350 q 442 407 486 404 q 339 378 393 410 q 238 282 285 346 q 185 193 207 242 q 163 93 163 144 q 199 15 163 39 q 285 6 235 -8 q 360 40 324 17 q 428 93 396 64 q 488 155 460 122 q 540 218 515 188 q 565 226 550 231 q 578 203 579 222 q 572 165 575 188 q 567 124 568 143 q 571 63 564 90 q 593 20 578 36 q 633 1 608 4 q 692 15 657 -1 q 765 61 726 32 q 839 122 803 90 q 890 169 867 146 q 933 213 914 193 q 950 221 942 221 q 963 215 958 221 q 969 201 968 210 q 964 185 971 193 q 912 134 940 161 q 851 81 883 107 q 765 16 810 46 q 676 -31 721 -14 q 609 -36 638 -44 q 562 -6 581 -28 q 534 49 543 17 q 525 113 525 81 l 525 135 q 474 79 501 107 q 416 28 446 51 q 355 -12 386 4 q 293 -35 324 -29 q 257 -41 271 -39 q 224 -40 243 -43 q 163 -17 186 -35 q 130 25 140 0 q 119 80 119 50 q 126 142 119 110 q 171 252 140 197 q 231 339 201 307 q 329 418 275 386 q 440 449 383 450 q 506 434 478 449 q 554 398 535 419 q 584 351 574 376 q 597 306 594 326 m 267 539 q 353 612 311 575 q 438 688 394 649 q 468 686 454 696 q 552 610 511 647 q 635 536 593 574 q 634 508 646 519 q 606 506 622 496 q 530 575 568 540 q 453 643 492 610 q 373 576 413 610 q 294 507 333 542 q 278 504 286 503 q 267 511 271 506 q 262 524 263 517 q 267 539 261 531 z "},"":{"ha":783,"x_min":119,"x_max":971,"o":"m 597 306 q 594 286 600 293 q 582 278 589 279 q 567 283 575 278 q 558 299 560 288 q 517 377 547 350 q 442 407 486 404 q 339 378 393 410 q 238 282 285 346 q 185 193 207 242 q 163 93 163 144 q 199 15 163 39 q 285 6 235 -8 q 360 40 324 17 q 428 93 396 64 q 488 155 460 122 q 540 218 515 188 q 565 226 550 231 q 578 203 579 222 q 572 165 575 188 q 567 124 568 143 q 571 63 564 90 q 593 20 578 36 q 633 1 608 4 q 692 15 657 -1 q 765 61 726 32 q 839 122 803 90 q 890 169 867 146 q 933 213 914 193 q 950 221 942 221 q 963 215 958 221 q 969 201 968 210 q 964 185 971 193 q 912 134 940 161 q 851 81 883 107 q 765 16 810 46 q 676 -31 721 -14 q 609 -36 638 -44 q 562 -6 581 -28 q 534 49 543 17 q 525 113 525 81 l 525 135 q 474 79 501 107 q 416 28 446 51 q 355 -12 386 4 q 293 -35 324 -29 q 257 -41 271 -39 q 224 -40 243 -43 q 163 -17 186 -35 q 130 25 140 0 q 119 80 119 50 q 126 142 119 110 q 171 252 140 197 q 231 339 201 307 q 329 418 275 386 q 440 449 383 450 q 506 434 478 449 q 554 398 535 419 q 584 351 574 376 q 597 306 594 326 m 282 647 q 284 664 279 657 q 296 673 289 671 q 310 672 303 675 q 322 658 318 668 q 357 602 333 625 q 410 568 381 579 q 483 561 444 556 q 553 593 521 567 q 578 615 565 603 q 599 640 592 626 q 611 653 603 650 q 626 653 619 656 q 636 642 632 650 q 636 625 640 635 q 611 590 626 606 q 579 561 596 575 q 494 522 539 529 q 408 525 450 514 q 333 567 367 536 q 282 647 299 599 z "},"":{"ha":688,"x_min":140,"x_max":869,"o":"m 174 181 q 158 175 167 175 q 146 181 151 175 q 140 196 140 188 q 147 212 140 201 q 165 233 154 222 q 185 255 175 244 q 203 274 196 265 q 195 331 197 301 q 193 390 193 361 q 213 583 193 482 q 269 768 233 683 q 359 908 306 853 q 468 963 413 963 q 517 931 504 963 q 531 858 531 900 q 510 708 531 783 q 453 562 489 633 q 372 424 418 490 q 278 299 326 357 q 263 281 271 289 q 247 263 254 272 q 346 76 274 132 q 515 19 418 19 q 608 36 564 19 q 692 81 653 53 q 767 142 732 108 q 833 213 801 176 q 851 221 842 221 q 869 201 869 221 q 857 174 869 190 q 826 138 844 157 q 789 102 808 119 q 756 74 769 85 q 638 3 700 29 q 508 -22 575 -22 q 417 -8 461 -22 q 336 35 374 6 q 267 110 299 64 q 214 224 236 157 q 194 202 204 213 q 174 181 185 192 m 240 318 q 378 512 319 411 q 468 724 438 613 q 483 783 475 746 q 490 854 490 819 q 485 899 490 876 q 460 922 479 922 q 403 889 440 922 q 328 790 365 856 q 263 629 290 725 q 235 410 235 533 q 236 364 235 386 q 240 318 238 342 m 354 994 q 328 1003 336 989 q 333 1031 321 1018 q 397 1074 369 1056 q 451 1111 425 1093 q 503 1148 476 1129 q 567 1190 531 1167 q 585 1192 576 1194 q 597 1183 593 1189 q 599 1168 600 1176 q 588 1154 597 1160 q 524 1112 551 1131 q 472 1075 497 1093 q 418 1038 446 1057 q 354 994 390 1019 z "},"":{"ha":754,"x_min":144,"x_max":940,"o":"m 564 339 q 558 323 564 328 q 543 319 551 318 q 528 325 535 319 q 522 342 522 331 q 508 390 522 372 q 472 417 494 408 q 429 424 453 424 q 382 417 406 424 q 278 360 324 400 q 200 249 226 314 q 188 185 189 218 q 193 122 186 153 q 230 49 204 78 q 292 4 256 21 q 354 -16 321 -10 q 422 -24 388 -22 q 490 -22 456 -25 q 554 -15 524 -19 q 651 16 607 -4 q 735 64 694 36 q 823 135 782 96 q 903 213 864 174 q 919 221 911 221 q 933 216 928 221 q 940 202 939 211 q 933 185 940 193 q 849 104 893 144 q 756 31 806 64 q 663 -20 711 1 q 558 -53 614 -42 q 485 -62 524 -60 q 406 -62 446 -65 q 327 -49 365 -58 q 256 -21 289 -39 q 190 34 218 0 q 151 118 163 68 q 146 191 144 154 q 161 263 147 228 q 244 383 189 332 q 303 427 272 408 q 371 456 335 446 q 492 456 438 475 q 544 415 524 443 q 564 339 564 386 m 324 506 q 298 515 306 500 q 303 542 290 529 q 367 585 339 567 q 420 622 394 604 q 473 659 446 640 q 536 701 500 678 q 554 703 546 706 q 566 694 563 700 q 568 679 569 688 q 557 665 567 671 q 494 623 521 642 q 441 586 467 604 q 388 549 415 568 q 324 506 360 531 z "},"":{"ha":754,"x_min":144,"x_max":940,"o":"m 564 339 q 558 323 564 328 q 543 319 551 318 q 528 325 535 319 q 522 342 522 331 q 508 390 522 372 q 472 417 494 408 q 429 424 453 424 q 382 417 406 424 q 278 360 324 400 q 200 249 226 314 q 188 185 189 218 q 193 122 186 153 q 230 49 204 78 q 292 4 256 21 q 354 -16 321 -10 q 422 -24 388 -22 q 490 -22 456 -25 q 554 -15 524 -19 q 651 16 607 -4 q 735 64 694 36 q 823 135 782 96 q 903 213 864 174 q 919 221 911 221 q 933 216 928 221 q 940 202 939 211 q 933 185 940 193 q 849 104 893 144 q 756 31 806 64 q 663 -20 711 1 q 558 -53 614 -42 q 487 -62 525 -60 q 410 -62 449 -65 q 395 -102 403 -78 q 383 -144 388 -126 q 450 -136 417 -135 q 510 -151 483 -137 q 554 -191 538 -164 q 569 -258 571 -218 q 561 -303 568 -281 q 539 -343 554 -326 q 474 -390 511 -374 q 397 -410 438 -406 q 316 -411 357 -415 q 238 -396 275 -407 q 224 -384 226 -392 q 223 -369 221 -376 q 232 -357 225 -361 q 250 -356 239 -353 q 317 -370 283 -365 q 386 -369 350 -375 q 419 -365 401 -368 q 453 -355 436 -361 q 484 -339 469 -349 q 508 -315 499 -329 q 526 -239 533 -282 q 504 -194 522 -208 q 462 -178 486 -181 q 411 -182 438 -176 q 364 -197 385 -187 q 335 -178 339 -204 q 345 -117 335 -153 q 367 -57 356 -81 q 308 -43 336 -51 q 256 -21 281 -35 q 190 34 218 0 q 151 118 163 68 q 146 191 144 154 q 161 263 147 228 q 244 383 189 332 q 303 427 272 408 q 371 456 335 446 q 492 456 438 475 q 544 415 524 443 q 564 339 564 386 z "},"":{"ha":754,"x_min":144,"x_max":940,"o":"m 564 339 q 558 323 564 328 q 543 319 551 318 q 528 325 535 319 q 522 342 522 331 q 508 390 522 372 q 472 417 494 408 q 429 424 453 424 q 382 417 406 424 q 278 360 324 400 q 200 249 226 314 q 188 185 189 218 q 193 122 186 153 q 230 49 204 78 q 292 4 256 21 q 354 -16 321 -10 q 422 -24 388 -22 q 490 -22 456 -25 q 554 -15 524 -19 q 651 16 607 -4 q 735 64 694 36 q 823 135 782 96 q 903 213 864 174 q 919 221 911 221 q 933 216 928 221 q 940 202 939 211 q 933 185 940 193 q 849 104 893 144 q 756 31 806 64 q 663 -20 711 1 q 558 -53 614 -42 q 485 -62 524 -60 q 406 -62 446 -65 q 327 -49 365 -58 q 256 -21 289 -39 q 190 34 218 0 q 151 118 163 68 q 146 191 144 154 q 161 263 147 228 q 244 383 189 332 q 303 427 272 408 q 371 456 335 446 q 492 456 438 475 q 544 415 524 443 q 564 339 564 386 m 275 701 q 277 730 265 718 q 306 731 289 742 q 378 655 342 693 q 450 579 414 617 q 533 640 492 610 q 615 701 575 671 q 643 697 633 710 q 642 669 653 685 q 552 603 597 636 q 461 536 507 569 q 431 538 446 526 q 275 701 353 621 z "},"":{"ha":664,"x_min":126,"x_max":849,"o":"m 500 222 q 431 182 471 196 q 346 164 390 168 q 257 163 301 160 q 175 175 213 167 q 172 160 172 168 q 169 146 171 153 q 174 82 164 113 q 207 28 185 51 q 261 -9 229 6 q 331 -26 293 -24 q 533 4 432 -36 q 673 85 604 32 q 811 213 742 138 q 826 221 818 221 q 840 216 835 221 q 847 202 846 211 q 842 185 849 193 q 738 86 789 131 q 633 10 686 42 q 538 -37 586 -18 q 438 -62 490 -56 q 436 -65 436 -64 q 435 -68 436 -67 q 410 -104 419 -83 q 396 -149 401 -125 q 399 -247 385 -203 q 444 -287 418 -276 q 512 -292 476 -303 q 583 -258 547 -281 q 601 -257 593 -254 q 613 -266 610 -260 q 615 -281 617 -272 q 604 -294 614 -289 q 525 -330 564 -318 q 438 -331 486 -342 q 371 -283 393 -321 q 349 -219 353 -256 q 353 -147 346 -183 q 382 -68 361 -100 q 360 -67 371 -68 q 338 -67 349 -67 q 233 -41 275 -62 q 167 13 192 -19 q 135 79 143 43 q 131 151 126 115 q 179 278 139 219 q 274 379 219 336 q 299 398 286 389 q 325 414 311 407 q 376 437 347 426 q 433 451 404 447 q 490 448 463 454 q 539 421 517 442 q 569 370 564 397 q 565 316 574 343 q 539 265 557 289 q 500 222 521 240 m 346 378 q 256 308 297 350 q 190 215 214 267 q 263 204 225 207 q 338 206 300 201 q 410 222 375 210 q 474 254 444 233 q 501 281 488 264 q 522 317 515 299 q 528 356 529 336 q 510 390 526 375 q 472 409 493 406 q 428 409 450 413 q 384 397 406 406 q 346 378 363 388 z "},"":{"ha":664,"x_min":126,"x_max":849,"o":"m 500 222 q 431 182 471 196 q 346 164 390 168 q 257 163 301 160 q 175 175 213 167 q 172 160 172 168 q 169 146 171 153 q 174 82 164 113 q 207 28 185 51 q 261 -9 229 6 q 331 -26 293 -24 q 533 4 432 -36 q 673 85 604 32 q 811 213 742 138 q 826 221 818 221 q 840 216 835 221 q 847 202 846 211 q 842 185 849 193 q 738 86 789 131 q 633 10 686 42 q 494 -52 565 -32 q 338 -67 422 -72 q 233 -41 275 -62 q 167 13 192 -19 q 135 79 143 43 q 131 151 126 115 q 179 278 139 219 q 274 379 219 336 q 299 398 286 389 q 325 414 311 407 q 376 437 347 426 q 433 451 404 447 q 490 448 463 454 q 539 421 517 442 q 569 370 564 397 q 565 316 574 343 q 539 265 557 289 q 500 222 521 240 m 346 378 q 256 308 297 350 q 190 215 214 267 q 263 204 225 207 q 338 206 300 201 q 410 222 375 210 q 474 254 444 233 q 501 281 488 264 q 522 317 515 299 q 528 356 529 336 q 510 390 526 375 q 472 409 493 406 q 428 409 450 413 q 384 397 406 406 q 346 378 363 388 m 331 554 q 340 577 331 568 q 365 586 350 586 q 390 577 381 586 q 400 554 400 568 q 390 531 400 540 q 365 522 381 522 q 340 531 350 522 q 331 554 331 540 m 497 554 q 507 577 497 568 q 532 586 517 586 q 557 577 547 586 q 567 554 567 568 q 557 531 567 540 q 532 522 547 522 q 507 531 517 522 q 497 554 497 540 z "},"":{"ha":664,"x_min":126,"x_max":849,"o":"m 500 222 q 431 182 471 196 q 346 164 390 168 q 257 163 301 160 q 175 175 213 167 q 172 160 172 168 q 169 146 171 153 q 174 82 164 113 q 207 28 185 51 q 261 -9 229 6 q 331 -26 293 -24 q 533 4 432 -36 q 673 85 604 32 q 811 213 742 138 q 826 221 818 221 q 840 216 835 221 q 847 202 846 211 q 842 185 849 193 q 738 86 789 131 q 633 10 686 42 q 494 -52 565 -32 q 338 -67 422 -72 q 233 -41 275 -62 q 167 13 192 -19 q 135 79 143 43 q 131 151 126 115 q 179 278 139 219 q 274 379 219 336 q 299 398 286 389 q 325 414 311 407 q 376 437 347 426 q 433 451 404 447 q 490 448 463 454 q 539 421 517 442 q 569 370 564 397 q 565 316 574 343 q 539 265 557 289 q 500 222 521 240 m 346 378 q 256 308 297 350 q 190 215 214 267 q 263 204 225 207 q 338 206 300 201 q 410 222 375 210 q 474 254 444 233 q 501 281 488 264 q 522 317 515 299 q 528 356 529 336 q 510 390 526 375 q 472 409 493 406 q 428 409 450 413 q 384 397 406 406 q 346 378 363 388 m 226 679 q 228 708 217 696 q 257 708 240 719 q 329 633 293 671 q 401 557 365 594 q 485 618 443 588 q 567 679 526 649 q 594 675 585 688 q 593 647 604 663 q 503 581 549 614 q 413 514 458 547 q 382 515 397 504 q 226 679 304 599 z "},"":{"ha":610,"x_min":79,"x_max":796,"o":"m 176 183 l 250 261 q 275 129 257 181 q 319 46 293 78 q 403 -8 356 3 q 501 -10 451 -18 q 579 13 543 -3 q 647 53 615 29 q 719 113 685 79 q 789 185 753 147 q 794 202 796 193 q 788 216 793 211 q 774 221 782 221 q 758 213 765 221 q 694 145 726 178 q 625 86 663 113 q 488 29 565 43 q 364 63 411 17 q 290 299 297 128 q 285 320 290 311 q 274 332 281 329 q 243 322 258 338 q 199 272 222 299 q 150 217 176 244 q 143 201 143 210 q 147 187 143 193 q 160 178 151 181 q 176 183 168 176 m 85 424 q 171 497 129 460 q 256 572 213 533 q 286 571 272 581 q 370 495 329 532 q 453 421 411 458 q 452 392 464 404 q 424 390 440 381 q 348 460 386 425 q 271 528 310 494 q 191 460 231 494 q 113 392 151 426 q 97 389 104 388 q 85 396 89 390 q 80 408 81 401 q 85 424 79 415 z "}}}
